<?xml version="1.0" standalone="no"?>
<!DOCTYPE svg PUBLIC "-//W3C//DTD SVG 20010904//EN"
 "http://www.w3.org/TR/2001/REC-SVG-20010904/DTD/svg10.dtd">
<svg version="1.0" xmlns="http://www.w3.org/2000/svg"
 width="300.000000pt" height="200.000000pt" viewBox="0 0 300.000000 200.000000"
 preserveAspectRatio="xMidYMid meet">
<metadata>
Created by potrace 1.10, written by Peter Selinger 2001-2011
</metadata>
<g transform="translate(0.000000,200.000000) scale(0.100000,-0.100000)"
fill="#000000" stroke="none">
<path d="M300 1980 c14 -11 52 -33 84 -50 63 -33 79 -32 129 9 9 8 17 10 17 4
0 -6 12 -8 28 -5 24 5 26 4 13 -11 -7 -10 -22 -17 -32 -17 -11 0 -19 -7 -19
-15 0 -8 -8 -15 -17 -16 -12 0 -14 -2 -5 -6 9 -3 3 -12 -17 -24 -32 -19 -35
-33 -22 -94 4 -20 9 -26 14 -17 5 6 17 12 28 12 16 0 19 5 14 20 -4 12 1 31
13 48 11 15 23 38 27 52 10 35 24 50 45 50 18 0 56 47 46 57 -3 3 -14 -5 -24
-17 l-19 -24 -51 22 c-63 27 -70 27 -74 0 -4 -32 -35 -28 -91 11 -29 20 -58
31 -79 31 l-33 0 25 -20z"/>
<path d="M1025 1983 c-13 -12 -19 -13 -24 -4 -5 7 -21 11 -37 9 -41 -4 -45
-47 -10 -89 26 -30 26 -37 -1 -69 -7 -8 -19 -23 -26 -33 -9 -13 -22 -18 -41
-15 l-28 3 46 34 c47 35 57 51 32 51 -7 0 -25 9 -40 21 -30 23 -35 59 -8 59
14 0 15 2 2 10 -20 13 -70 13 -70 0 0 -5 -6 -10 -12 -10 -7 0 -28 -14 -45 -31
-23 -21 -33 -25 -33 -15 0 9 -7 16 -16 16 -11 0 -14 5 -9 18 9 22 17 61 9 44
-11 -23 -55 -63 -64 -57 -5 3 -11 1 -14 -4 -4 -5 7 -12 23 -16 44 -9 49 -22
47 -109 -3 -83 -16 -106 -42 -71 -7 9 -18 15 -25 13 -9 -3 -6 -11 9 -26 19
-19 20 -23 6 -37 -27 -26 5 -17 57 17 27 17 49 36 49 43 0 6 19 30 42 53 48
49 46 54 -7 12 -46 -37 -60 -28 -51 32 8 49 19 67 60 93 28 19 28 19 47 -6 10
-13 19 -34 19 -46 0 -16 6 -23 20 -23 18 0 15 -5 -15 -31 -19 -17 -32 -36 -28
-42 3 -5 2 -7 -4 -4 -10 6 -79 -31 -71 -38 3 -3 29 1 59 9 84 22 137 28 151
20 7 -5 18 -9 23 -10 50 -8 130 -40 161 -64 20 -17 33 -30 29 -30 -5 0 1 -10
13 -23 31 -33 34 -117 6 -174 -14 -28 -16 -39 -7 -36 9 4 13 -4 13 -22 0 -34
-55 -89 -82 -82 -12 4 -18 0 -18 -11 0 -22 -64 -58 -119 -67 -34 -6 -42 -4
-39 6 2 7 19 17 37 22 19 4 44 15 56 23 12 8 24 11 27 8 4 -3 11 3 17 14 9 18
4 17 -42 -8 -28 -15 -72 -31 -96 -35 l-43 -7 29 -30 c25 -25 34 -28 49 -19 11
6 39 19 64 30 25 10 65 35 88 55 50 41 57 44 42 17 -16 -30 -13 -46 5 -31 8 7
15 18 15 25 0 7 7 15 15 19 8 3 15 12 15 21 0 8 3 15 8 15 4 0 13 9 20 21 12
19 11 19 -8 9 -20 -11 -21 -10 -15 11 4 12 13 36 20 52 12 30 12 30 32 10 15
-15 25 -18 37 -11 16 9 16 12 -5 34 -12 13 -28 24 -36 24 -7 0 -13 9 -13 21 0
38 -42 124 -78 156 -47 44 -107 71 -181 84 -33 6 -61 16 -61 21 0 6 10 28 22
50 21 37 22 41 5 53 -22 16 -22 35 1 35 18 0 40 19 56 48 10 17 0 15 -19 -5z"/>
<path d="M2448 1970 c-12 -16 -27 -30 -34 -30 -6 0 -18 -7 -25 -16 -7 -9 -22
-20 -34 -24 -15 -7 -10 -9 23 -9 28 -1 49 -8 62 -21 16 -16 24 -18 39 -8 24
14 60 3 43 -14 -17 -17 -15 -28 4 -28 8 0 12 5 9 11 -4 6 0 9 10 7 10 -2 20 2
22 8 5 14 -61 40 -119 49 -27 3 -48 11 -48 16 0 6 10 9 21 7 26 -4 89 50 82
69 -8 22 -31 15 -55 -17z"/>
<path d="M2285 1971 c-22 -10 -70 -21 -105 -25 -35 -4 -66 -9 -68 -10 -1 -2
26 -7 62 -10 57 -7 69 -5 113 18 26 14 54 26 61 26 7 0 10 5 7 10 -8 14 -23
12 -70 -9z"/>
<path d="M2736 1978 c29 -53 57 -78 85 -78 26 0 29 3 29 31 0 27 -3 31 -22 26
-13 -4 -31 1 -46 14 -28 22 -57 26 -46 7z"/>
<path d="M1065 1952 c7 -19 8 -22 6 -40 -1 -8 -10 -11 -26 -8 -13 3 -28 0 -31
-6 -4 -7 -2 -8 4 -4 7 4 12 3 12 -2 0 -5 14 -15 31 -22 37 -16 52 -1 42 40 -4
14 -6 32 -6 40 1 9 -7 17 -19 17 -15 2 -18 -2 -13 -15z"/>
<path d="M2537 1943 c-43 -31 -42 -40 4 -24 18 6 49 9 68 6 20 -3 30 -2 24 1
-7 3 -13 10 -13 16 0 16 44 -3 63 -28 19 -24 47 -33 47 -14 0 6 -3 10 -7 10
-5 0 -21 11 -37 25 -16 14 -32 25 -35 26 -3 0 -22 2 -41 5 -27 3 -44 -2 -73
-23z"/>
<path d="M243 1914 c22 -22 35 -44 32 -52 -3 -8 -1 -20 5 -27 8 -10 8 -15 -1
-20 -6 -4 -14 -2 -18 4 -6 8 -14 9 -32 2 -53 -23 -125 -70 -134 -88 -6 -11
-16 -18 -23 -15 -7 2 -12 -5 -12 -19 0 -13 -14 -37 -31 -55 -17 -18 -29 -38
-27 -44 2 -7 16 6 32 28 15 22 35 44 44 47 41 17 86 22 117 14 53 -15 163
-115 165 -150 0 -10 -112 -39 -150 -39 -32 0 -33 0 -15 -20 27 -30 133 -24
121 6 -3 9 2 14 14 14 11 0 29 11 42 24 13 13 32 26 43 29 20 5 20 5 0 6 -11
1 -29 15 -40 31 -11 16 -26 30 -32 30 -7 0 -13 11 -13 24 0 52 -23 75 -33 34
-6 -20 -7 -21 -24 -6 -10 9 -30 20 -45 23 -16 4 -28 12 -28 17 0 6 -6 8 -13 5
-10 -4 -13 2 -9 21 9 51 33 61 109 46 33 -7 80 -73 64 -90 -15 -15 6 -51 34
-58 30 -8 55 7 55 34 0 9 12 23 28 30 24 12 25 14 8 18 -11 2 -25 -3 -32 -13
-13 -18 -36 -12 -32 8 1 7 -1 25 -5 41 -6 19 -3 36 7 52 12 16 13 25 4 30 -7
4 -8 3 -4 -4 4 -7 3 -12 -3 -12 -5 0 -13 5 -17 11 -15 24 -24 -19 -10 -46 8
-15 12 -34 9 -41 -3 -8 1 -14 8 -14 11 0 11 -2 1 -8 -13 -9 -6 -42 9 -42 5 0
9 -7 9 -15 0 -18 -1 -18 -35 -5 -21 8 -24 14 -19 35 7 30 -11 80 -43 115 -31
33 -31 57 -1 36 24 -17 48 -21 48 -8 0 5 -11 14 -25 20 -13 6 -38 23 -54 38
-16 14 -42 33 -58 41 -25 13 -24 10 10 -23z"/>
<path d="M2170 1877 c0 -17 -45 -34 -111 -42 -66 -7 -85 -19 -95 -58 -6 -26
-5 -28 12 -19 11 6 28 14 39 18 18 7 19 7 2 11 -10 3 -16 10 -14 16 4 13 73
16 99 5 9 -5 20 -4 23 2 3 5 14 10 23 10 14 -1 13 -4 -7 -20 -13 -11 -29 -20
-37 -20 -29 0 -19 -15 11 -17 28 -1 34 2 37 20 2 15 11 23 28 25 14 2 31 9 38
15 10 8 14 5 19 -12 4 -16 8 -19 13 -10 13 19 64 -27 71 -64 6 -27 6 -24 6 15
0 61 -6 68 -56 75 -29 4 -47 13 -57 29 -18 26 -44 39 -44 21z"/>
<path d="M1890 1862 c0 -22 27 -49 38 -37 4 4 1 10 -5 12 -7 3 -13 11 -13 18
0 8 -4 17 -10 20 -5 3 -10 -3 -10 -13z"/>
<path d="M2331 1851 c-11 -7 -9 -10 8 -16 28 -9 74 2 66 15 -8 12 -55 13 -74
1z"/>
<path d="M2832 1839 c1 -13 8 -23 13 -21 15 3 12 35 -3 40 -9 3 -13 -3 -10
-19z"/>
<path d="M1051 1840 c-15 -8 -8 -40 8 -40 11 0 22 38 12 44 -4 3 -13 1 -20 -4z"/>
<path d="M2700 1836 c0 -22 27 -27 33 -5 4 14 0 19 -14 19 -10 0 -19 -6 -19
-14z"/>
<path d="M2801 1833 c3 -23 -14 -50 -30 -46 -10 2 -23 -3 -30 -11 -8 -9 -20
-16 -28 -16 -11 0 -11 -3 -1 -14 11 -12 15 -12 29 0 8 8 27 14 42 14 18 0 26
5 26 18 -1 9 2 27 6 40 5 14 3 22 -4 22 -6 0 -11 -3 -10 -7z"/>
<path d="M608 1808 c12 -6 22 -19 22 -28 0 -10 7 -21 16 -24 13 -5 15 -2 10
16 -3 13 -6 29 -6 36 0 7 -13 12 -32 11 -31 0 -32 -1 -10 -11z"/>
<path d="M2550 1801 c0 -30 -11 -51 -26 -51 -24 0 -64 -23 -64 -37 0 -19 14
-16 36 8 14 15 26 19 49 15 19 -4 25 -3 16 3 -11 7 -10 11 7 20 26 14 35 14
27 1 -8 -14 17 -13 65 2 22 7 40 19 40 25 0 18 -45 16 -60 -2 -17 -20 -37 -19
-49 4 -15 27 -41 35 -41 12z"/>
<path d="M2200 1775 c0 -7 5 -17 11 -21 16 -9 -28 -33 -61 -34 -15 0 -30 4
-36 10 -6 6 -15 6 -24 0 -13 -8 -12 -10 3 -10 9 0 17 -7 17 -15 0 -9 9 -15 24
-15 19 0 27 -8 36 -35 6 -19 16 -37 21 -40 5 -3 6 0 3 8 -3 8 2 20 10 27 10 7
14 21 10 35 -3 13 1 33 10 47 14 22 14 25 -4 41 -16 14 -20 14 -20 2z"/>
<path d="M2505 1779 c-4 -6 -20 -9 -36 -7 -16 1 -29 -2 -29 -7 -2 -18 28 -16
67 4 21 11 30 20 21 21 -9 0 -20 -5 -23 -11z"/>
<path d="M1761 1754 c-30 -13 -52 -26 -49 -29 5 -6 109 33 123 46 17 16 -18 9
-74 -17z"/>
<path d="M2352 1749 c-2 -25 1 -29 23 -29 15 0 24 -4 20 -10 -3 -5 -4 -10 -1
-10 2 0 12 -3 21 -6 13 -6 15 -2 9 22 -4 16 -7 36 -7 45 1 10 -8 15 -31 16
-28 1 -32 -2 -34 -28z"/>
<path d="M1877 1735 c-24 -21 -26 -27 -15 -45 14 -23 25 -24 63 -10 24 9 31
38 8 33 -6 -1 -8 9 -5 22 6 32 -14 32 -51 0z"/>
<path d="M2246 1726 c-15 -33 -20 -56 -12 -56 19 0 33 14 29 29 -2 9 3 23 11
30 20 17 21 31 2 31 -7 0 -21 -15 -30 -34z"/>
<path d="M2816 1744 c-4 -11 -13 -14 -30 -10 -22 5 -25 2 -31 -34 -4 -22 -14
-47 -22 -56 -12 -11 -13 -18 -4 -27 13 -13 42 20 34 40 -3 8 3 13 15 13 14 0
22 8 24 23 2 12 13 26 26 32 22 10 25 26 5 32 -6 2 -13 -4 -17 -13z"/>
<path d="M2883 1725 c-17 -20 -35 -46 -41 -58 -31 -62 -68 -150 -91 -216 -15
-41 -32 -76 -39 -79 -7 -2 -10 2 -6 11 18 49 -49 149 -109 161 -60 13 -146 12
-169 0 -19 -11 -10 -12 63 -7 85 6 85 6 121 -26 55 -48 82 -113 75 -184 -3
-32 -7 -61 -10 -63 -10 -10 -45 20 -40 33 3 7 -2 13 -11 13 -9 0 -16 -8 -16
-20 0 -11 5 -20 11 -20 5 0 8 -4 5 -9 -8 -13 -47 -1 -53 16 -3 7 2 22 11 32
22 24 11 31 -56 33 -40 2 -58 -2 -75 -17 -13 -11 -23 -23 -23 -27 0 -13 18 -9
34 7 18 18 45 8 68 -23 7 -11 27 -22 43 -26 17 -4 37 -13 45 -20 8 -8 31 -16
50 -19 20 -3 63 -18 96 -34 54 -26 63 -28 89 -17 17 7 24 13 18 14 -7 0 -13 6
-13 13 0 9 -17 12 -55 12 -37 -1 -56 3 -60 12 -2 8 -10 13 -17 12 -20 -4 -62
12 -52 20 16 11 44 60 44 76 0 9 6 18 14 21 7 3 16 23 20 44 3 21 17 52 31 68
14 17 25 35 25 40 0 6 5 23 12 39 6 15 13 37 15 48 2 10 10 29 18 42 8 12 15
29 15 36 0 18 43 47 70 47 25 0 26 18 3 27 -10 4 -21 11 -24 16 -3 5 -20 -8
-36 -28z"/>
<path d="M1964 1724 c3 -9 6 -20 6 -25 0 -4 7 -6 15 -3 11 5 12 11 4 25 -12
23 -34 26 -25 3z"/>
<path d="M2002 1724 c2 -11 16 -21 36 -25 50 -10 36 20 -16 36 -20 6 -23 4
-20 -11z"/>
<path d="M2563 1713 c-20 -7 -15 -31 7 -43 19 -10 20 -9 14 17 -8 34 -6 31
-21 26z"/>
<path d="M2636 1713 c-6 -7 -9 -43 -2 -43 1 0 17 5 35 11 33 12 43 32 14 27
-10 -1 -23 1 -29 4 -6 4 -14 5 -18 1z"/>
<path d="M500 1690 c-11 -11 -20 -25 -20 -30 0 -13 47 20 54 38 8 19 -12 14
-34 -8z"/>
<path d="M865 1699 c-27 -5 -70 -12 -95 -17 -45 -9 -44 -9 31 -13 63 -3 76 -1
71 10 -4 11 8 13 65 9 53 -4 84 -13 131 -38 77 -41 90 -70 71 -153 -9 -37 -23
-59 -58 -93 -54 -52 -44 -60 12 -9 52 48 81 114 72 168 -11 59 -23 75 -84 103
-75 35 -139 45 -216 33z"/>
<path d="M2353 1693 c-22 -8 -14 -19 25 -36 20 -8 44 -18 52 -22 34 -14 59
-32 54 -38 -4 -4 9 -6 28 -5 19 1 40 -2 46 -6 7 -4 15 0 18 8 9 23 26 19 19
-4 -4 -14 -2 -20 8 -20 8 0 14 8 13 18 -1 11 6 17 19 16 39 -3 66 -16 61 -30
-6 -16 10 -19 19 -3 8 13 -22 79 -37 79 -5 0 -8 -6 -5 -13 3 -9 -4 -12 -27
-11 -17 1 -50 -3 -73 -9 -36 -9 -45 -8 -61 6 -10 9 -26 17 -35 17 -9 0 -20 7
-25 17 -6 10 -16 14 -26 10 -10 -4 -23 1 -33 13 -18 21 -20 22 -40 13z"/>
<path d="M2490 1692 c0 -13 39 -46 46 -39 9 9 -16 47 -31 47 -8 0 -15 -4 -15
-8z"/>
<path d="M1693 1677 c-3 -4 -2 -11 1 -14 3 -4 6 -1 6 6 0 12 49 -17 50 -30 0
-5 -93 -70 -163 -113 -27 -16 -29 -16 -61 4 -19 11 -39 27 -46 34 -15 19 -73
18 -66 -1 7 -17 -2 -17 -20 2 -17 17 -49 21 -39 5 3 -5 4 -10 2 -10 -8 0 -47
79 -47 94 0 14 -29 30 -38 22 -2 -3 4 -26 14 -51 23 -56 91 -126 103 -107 14
23 72 23 108 1 37 -23 43 -34 13 -26 -11 3 -23 1 -26 -4 -5 -9 31 -67 49 -80
5 -4 6 -12 3 -18 -4 -6 -3 -11 2 -11 4 0 18 -9 30 -20 38 -35 33 -4 -7 38
l-38 42 21 19 c31 27 234 161 245 161 21 0 22 23 1 45 -22 23 -85 31 -97 12z"/>
<path d="M955 1660 c32 -11 61 -17 63 -15 7 7 -47 25 -87 30 -27 3 -21 -1 24
-15z"/>
<path d="M2283 1638 c-18 -20 -19 -25 -7 -36 16 -15 28 -57 21 -75 -7 -18
-108 -69 -182 -92 -33 -10 -64 -22 -69 -27 -6 -4 -22 -8 -36 -8 -14 0 -30 -4
-35 -9 -6 -4 -32 -17 -60 -27 -27 -10 -73 -31 -101 -46 -39 -21 -60 -26 -83
-22 -17 4 -31 10 -31 15 0 5 -8 9 -17 9 -13 0 -10 -7 13 -28 17 -16 33 -34 35
-40 3 -9 16 -4 39 14 67 50 254 128 548 227 65 22 75 31 42 40 -20 5 -29 47
-10 47 6 0 10 7 10 15 0 10 -10 15 -30 15 -27 0 -30 2 -24 25 8 31 3 31 -23 3z"/>
<path d="M762 1642 c-10 -3 -5 -10 14 -23 24 -16 30 -16 48 -3 11 8 33 14 48
14 15 0 30 5 33 11 7 10 -114 11 -143 1z"/>
<path d="M545 1620 c-22 -11 -44 -20 -50 -20 -5 0 -19 -8 -30 -16 -19 -16 -19
-16 5 -8 14 4 36 8 50 9 39 4 42 4 36 14 -3 5 8 11 24 15 17 3 30 10 30 16 0
15 -22 12 -65 -10z"/>
<path d="M1059 1606 c28 -29 32 -39 26 -64 -9 -43 -56 -105 -100 -132 -32 -20
-46 -22 -107 -18 -52 4 -78 11 -101 29 -21 15 -27 17 -18 5 34 -41 110 -61
179 -45 68 15 116 50 143 106 29 60 27 101 -7 131 -40 35 -52 26 -15 -12z"/>
<path d="M705 1611 c-24 -5 -33 -15 -47 -51 -9 -25 -17 -58 -17 -73 -2 -60 57
-130 118 -142 39 -7 49 -1 31 20 -9 11 -16 12 -26 4 -10 -8 -22 -4 -50 17 -47
36 -54 58 -42 124 13 64 21 77 62 95 33 14 21 17 -29 6z"/>
<path d="M576 1575 c-16 -12 -17 -17 -6 -30 11 -13 14 -12 26 11 21 39 15 45
-20 19z"/>
<path d="M2381 1571 c-7 -5 -11 -14 -7 -20 7 -11 46 7 46 21 0 11 -22 10 -39
-1z"/>
<path d="M30 1519 c-16 -16 -30 -33 -30 -38 0 -5 21 -17 46 -27 39 -15 49 -15
67 -4 12 7 33 16 47 21 24 7 23 7 -7 8 -32 1 -49 21 -18 21 34 0 12 27 -30 37
-42 10 -47 9 -75 -18z m79 -16 c3 -2 -1 -9 -7 -15 -9 -9 -17 -7 -33 10 l-20
23 28 -7 c15 -4 30 -9 32 -11z"/>
<path d="M541 1503 c-24 -66 -24 -69 3 -28 26 40 33 65 18 65 -4 0 -14 -17
-21 -37z"/>
<path d="M365 1491 c-12 -11 -3 -21 17 -18 28 5 36 26 8 24 -11 -1 -23 -3 -25
-6z"/>
<path d="M562 1465 c-12 -19 -27 -35 -32 -35 -6 0 -10 -6 -10 -13 0 -8 -9 -24
-20 -37 -11 -13 -20 -27 -20 -31 0 -4 -9 -10 -19 -14 -23 -7 -34 -42 -16 -49
17 -6 25 3 25 26 0 11 4 17 9 13 9 -5 76 79 76 96 0 5 10 16 23 24 12 9 22 25
22 36 0 28 -12 23 -38 -16z"/>
<path d="M1384 1445 c-21 -19 -35 -38 -31 -41 3 -3 17 5 31 19 14 14 33 30 42
35 10 6 12 12 6 16 -5 3 -27 -10 -48 -29z"/>
<path d="M2991 1458 c0 -10 -11 -28 -23 -40 -37 -36 -105 -164 -94 -176 9 -9
36 19 53 57 9 20 30 55 46 77 20 29 27 50 24 70 -2 16 -5 21 -6 12z"/>
<path d="M305 1425 c-18 -45 -18 -42 0 -42 8 0 15 4 15 9 0 13 22 32 40 36 26
6 32 19 11 25 -12 3 -21 0 -21 -5 0 -6 -6 -6 -15 2 -12 10 -17 5 -30 -25z"/>
<path d="M601 1428 c0 -10 -5 -18 -11 -18 -5 0 -10 -7 -10 -15 0 -8 -5 -15
-11 -15 -7 0 -8 -14 -4 -40 6 -36 5 -40 -13 -40 -11 0 -22 5 -24 11 -2 6 -11
3 -20 -8 -16 -18 -13 -18 103 -19 116 -1 120 -2 140 -28 11 -14 25 -26 32 -26
6 0 -2 14 -19 31 -30 32 -77 61 -91 57 -4 -2 -19 5 -33 14 -17 13 -26 31 -31
65 -3 27 -7 40 -8 31z"/>
<path d="M1446 1426 c3 -8 -4 -33 -16 -56 -21 -41 -21 -41 -1 -30 12 6 21 15
21 20 0 6 7 10 16 10 12 0 14 -3 6 -13 -13 -15 -11 -40 3 -46 19 -8 29 45 15
78 -13 32 -56 67 -44 37z"/>
<path d="M180 1383 c0 -10 59 -57 79 -63 24 -6 26 -10 23 -61 -3 -41 -12 -66
-39 -106 -40 -61 -108 -123 -134 -123 -10 0 -22 -7 -27 -17 -9 -15 -12 -15
-35 4 -15 11 -24 23 -21 25 2 3 -2 11 -11 18 -12 10 -15 10 -15 -3 0 -8 12
-24 27 -35 l28 -21 -25 -10 c-14 -5 -19 -10 -11 -10 8 -1 20 -9 27 -18 7 -10
16 -15 20 -11 4 4 1 14 -6 23 -16 20 3 20 33 1 12 -8 46 -16 75 -17 28 -2 52
-6 52 -10 0 -4 9 -5 20 -2 24 6 27 23 3 23 -15 0 -15 1 -2 13 11 8 14 21 8 42
-6 29 -9 25 -13 -22 -2 -25 -23 -35 -46 -23 -16 9 -25 9 -36 -1 -11 -9 -21 -9
-45 2 -31 12 -31 13 -9 21 13 5 31 6 41 3 13 -4 19 -1 19 8 0 8 9 22 20 32 11
10 20 25 21 34 0 10 2 11 6 4 2 -7 -2 -27 -11 -44 -11 -21 -11 -28 -2 -20 7 6
25 37 41 68 16 32 34 61 39 65 6 4 32 10 60 13 44 7 51 5 67 -16 11 -15 19
-41 19 -66 0 -36 3 -43 20 -43 16 0 20 7 20 34 0 19 -6 36 -12 38 -10 4 -10
10 -1 31 7 15 9 27 4 27 -5 0 -11 -6 -14 -12 -6 -16 -43 4 -40 21 3 11 -9 15
-37 12 -13 -2 -13 -1 0 8 8 5 11 13 8 16 -10 10 -28 -4 -28 -21 0 -12 -2 -12
-14 -2 -9 9 -11 17 -4 25 5 7 7 17 4 22 -10 16 15 25 26 10 7 -11 8 -9 4 5 -4
11 0 26 9 36 14 16 14 18 1 23 -9 4 -15 1 -13 -5 1 -7 -5 -13 -14 -15 -10 -3
-21 7 -29 27 -7 16 -16 30 -21 30 -5 0 -9 7 -9 16 0 8 -4 12 -10 9 -5 -3 -10
-2 -10 3 0 8 -80 13 -80 5z"/>
<path d="M419 1357 c-14 -17 -24 -38 -22 -44 7 -20 19 -15 20 9 1 11 6 24 11
27 8 5 25 41 19 41 -1 0 -14 -15 -28 -33z"/>
<path d="M1350 1361 c0 -5 -24 -20 -53 -34 -29 -15 -66 -41 -82 -58 -32 -34
-25 -31 43 15 32 22 46 26 54 18 9 -9 9 -12 -2 -12 -7 0 -10 -3 -7 -7 10 -9
-68 -83 -87 -83 -9 0 -16 -6 -16 -12 0 -7 -7 -2 -16 10 -8 12 -12 28 -8 35 5
8 2 8 -9 -2 -15 -12 -17 -11 -17 7 0 35 -13 31 -50 -14 -35 -44 -48 -48 -95
-28 -13 5 -7 -4 14 -23 l33 -31 -18 -25 c-17 -22 -25 -25 -74 -22 -51 3 -53 2
-30 -10 32 -18 82 -18 148 -1 30 8 60 12 67 10 15 -6 28 -44 15 -44 -5 0 -16
-7 -25 -16 -17 -17 -109 -28 -99 -12 8 12 -25 9 -76 -6 l-45 -15 62 0 c57 -1
64 -3 85 -31 18 -25 29 -30 62 -30 21 0 37 -2 34 -6 -3 -3 -32 -5 -65 -6 l-59
-1 12 -46 c13 -51 3 -76 -28 -68 -13 4 -18 0 -18 -14 0 -10 7 -19 15 -19 18 0
20 -19 2 -25 -9 -4 -11 -27 -9 -83 2 -42 5 -78 7 -80 1 -1 24 18 51 43 27 25
57 48 67 51 9 3 15 9 12 14 -3 4 3 6 13 4 11 -3 28 7 47 28 17 18 20 24 8 14
-13 -11 -23 -14 -23 -8 0 6 5 14 10 17 13 8 13 35 -1 35 -5 0 -7 -4 -4 -10 3
-5 3 -10 0 -10 -12 0 -125 73 -125 80 0 4 7 13 15 20 8 7 15 17 15 22 0 7 -5
6 -13 -1 -14 -11 -27 -5 -27 13 0 7 17 10 44 8 46 -4 91 12 81 28 -3 6 1 7 9
4 11 -4 16 0 16 15 0 12 5 21 11 21 5 0 8 -4 5 -9 -8 -12 3 -41 15 -41 16 0
10 50 -6 57 -9 3 -25 -3 -36 -13 -19 -17 -20 -17 -13 2 4 10 15 26 26 34 18
15 18 16 -2 16 -11 0 -20 -6 -20 -12 0 -21 -49 -54 -70 -46 -29 11 -25 26 9
35 23 5 29 12 24 24 -4 11 -3 14 5 9 12 -7 16 5 12 34 -1 8 -11 23 -23 32 -12
10 -17 18 -11 18 16 0 164 121 196 161 20 23 25 35 16 40 -8 5 -2 10 15 14 14
4 31 13 38 21 9 11 6 14 -20 14 -17 0 -31 -4 -31 -9z m-181 -161 c6 0 11 -4
11 -10 0 -13 -57 -13 -65 0 -4 6 -1 18 6 26 12 14 14 14 25 0 6 -9 16 -16 23
-16z m-44 -30 c3 -5 15 -10 27 -10 17 0 18 -2 8 -15 -7 -9 -15 -13 -18 -10 -3
2 -10 -3 -17 -11 -6 -9 -28 -18 -48 -20 l-37 -3 16 32 c23 45 54 61 69 37z
m-51 -379 c3 -5 15 -7 26 -4 14 4 23 -2 32 -21 11 -26 9 -30 -40 -79 -43 -43
-54 -49 -62 -37 -12 19 -13 90 -1 90 5 0 12 14 16 30 7 30 19 38 29 21z"/>
<path d="M1000 1350 c-8 -5 -45 -12 -82 -16 -75 -7 -83 -24 -12 -24 39 0 124
31 124 45 0 8 -14 6 -30 -5z"/>
<path d="M1600 1330 c0 -6 -11 -8 -25 -4 -19 5 -25 3 -23 -7 2 -10 -6 -13 -27
-12 -28 2 -29 1 -11 -12 25 -19 46 -19 46 0 0 30 30 14 62 -32 18 -27 32 -50
31 -53 0 -3 4 -4 10 -2 6 2 6 -3 -2 -12 -8 -10 -9 -16 -1 -21 19 -12 11 -27
-11 -20 -15 5 -19 4 -14 -5 4 -6 16 -10 26 -7 13 4 19 0 19 -12 0 -9 9 -33 20
-54 23 -43 24 -48 8 -42 -7 3 -26 1 -43 -4 -25 -7 -20 -8 26 -7 65 1 65 -4 8
108 -28 57 -29 61 -9 43 l23 -20 -18 30 c-10 17 -36 51 -57 77 -42 52 -45 58
-23 58 8 0 15 5 15 10 0 6 -7 10 -15 10 -8 0 -15 -5 -15 -10z"/>
<path d="M2357 1279 c-26 -15 -3 -43 24 -29 15 8 21 6 31 -10 7 -11 21 -20 31
-20 17 0 15 4 -10 34 -30 37 -47 42 -76 25z"/>
<path d="M390 1262 c0 -13 6 -22 15 -22 9 0 12 -6 9 -15 -4 -8 -11 -12 -17 -8
-6 3 -7 1 -3 -6 9 -14 22 -6 37 22 7 12 8 19 4 15 -4 -4 -16 2 -26 14 l-19 21
0 -21z"/>
<path d="M2453 1256 c19 -17 39 -26 60 -25 l32 1 -32 8 c-18 4 -45 15 -60 24
l-28 17 28 -25z"/>
<path d="M1465 1260 c-3 -5 -1 -10 4 -10 21 0 26 -2 39 -12 14 -12 38 4 29 19
-8 13 -65 15 -72 3z"/>
<path d="M1690 1267 c0 -8 43 -71 63 -92 14 -15 -22 47 -44 76 -10 13 -19 20
-19 16z"/>
<path d="M207 1242 c-10 -10 -17 -24 -17 -31 0 -7 -5 -9 -12 -5 -8 5 -7 1 2
-10 13 -17 15 -17 22 10 4 16 15 35 25 41 9 7 12 13 6 13 -5 0 -17 -8 -26 -18z"/>
<path d="M576 1253 c-3 -4 -13 -8 -21 -9 -19 -3 -83 -55 -84 -68 -1 -6 4 -5
11 2 7 7 20 12 30 12 10 0 18 4 18 10 0 5 11 12 25 16 14 3 25 9 25 14 0 4 10
12 23 18 21 10 21 11 1 11 -11 1 -24 -2 -28 -6z"/>
<path d="M2226 1235 c-15 -12 -17 -18 -8 -27 9 -9 16 -8 30 5 10 9 25 17 33
17 12 0 11 2 -1 10 -20 13 -31 12 -54 -5z"/>
<path d="M1456 1190 c3 -30 6 -78 8 -107 2 -31 9 -58 19 -68 10 -9 17 -22 17
-30 0 -11 20 -25 36 -25 9 0 -19 45 -32 53 -8 4 -14 18 -15 30 0 12 -9 63 -19
112 -15 71 -18 78 -14 35z"/>
<path d="M681 1194 c-13 -14 -30 -23 -38 -20 -8 3 -13 -2 -13 -12 -1 -15 -3
-15 -17 3 -15 19 -15 19 -9 -7 6 -24 3 -28 -16 -28 -19 0 -20 -2 -8 -10 13 -9
13 -11 0 -19 -8 -5 -17 -8 -22 -5 -4 3 -17 -5 -30 -18 -14 -14 -17 -23 -10
-26 7 -2 12 -12 12 -22 0 -15 18 -30 37 -30 2 0 3 17 2 38 -2 23 1 36 8 35 7
-2 15 6 18 17 7 21 63 69 110 93 27 13 34 13 58 1 24 -13 27 -13 27 0 0 9 -16
19 -37 25 -49 14 -44 15 -72 -15z"/>
<path d="M1386 1196 c3 -7 -11 -27 -31 -45 -20 -17 -29 -31 -21 -31 10 0 14
-11 13 -35 -1 -27 -5 -35 -19 -35 -11 0 -25 -14 -35 -35 -9 -19 -20 -35 -25
-35 -4 0 -8 -7 -8 -15 0 -22 43 -18 58 5 7 12 10 25 7 30 -3 5 4 14 15 20 11
6 20 17 20 25 0 8 5 15 10 15 6 0 9 3 8 8 -1 4 4 18 11 31 20 37 24 98 7 104
-10 4 -13 1 -10 -7z"/>
<path d="M1846 1201 c-3 -5 13 -21 35 -37 66 -45 70 -60 60 -232 -7 -134 -11
-155 -35 -201 -66 -127 -205 -270 -318 -327 -68 -34 -96 -58 -62 -52 11 2 22
8 27 13 4 6 13 3 22 -9 8 -11 18 -16 22 -11 5 4 2 10 -4 12 -18 7 -16 30 3 37
22 8 31 1 43 -37 10 -30 15 -33 45 -32 18 0 41 9 51 19 11 11 27 16 42 13 16
-3 23 0 23 10 0 10 -6 13 -16 9 -13 -5 -15 -2 -11 15 4 14 -1 32 -14 47 -25
32 -24 42 4 42 16 0 27 -9 34 -27 10 -25 11 -26 12 -6 1 22 -6 31 -43 57 -16
11 -17 14 -3 19 8 3 24 -3 35 -14 12 -10 28 -19 36 -19 15 0 26 -21 26 -51 0
-10 7 -19 15 -19 18 0 19 18 3 57 -8 17 -19 27 -29 25 -26 -5 -41 21 -25 44 8
10 18 16 22 12 4 -4 1 -14 -6 -23 -7 -9 -10 -19 -6 -23 11 -10 38 30 31 45
-18 46 -19 44 8 32 15 -7 24 -16 21 -20 -2 -4 -2 -20 2 -34 5 -21 12 -25 33
-23 17 2 27 10 29 23 3 20 3 20 -13 1 -8 -11 -15 -14 -15 -8 0 7 -7 12 -15 12
-8 0 -15 7 -15 16 0 12 6 15 25 10 40 -10 29 11 -17 36 -37 19 -40 23 -20 26
12 2 29 -4 38 -12 17 -18 28 -21 19 -6 -3 6 2 10 11 10 16 0 16 2 -1 20 -11
13 -25 18 -37 14 -10 -3 -18 -1 -18 5 0 6 6 11 13 12 6 0 4 4 -6 8 -18 7 -18
8 0 29 11 14 32 24 54 26 20 2 49 11 65 20 l29 16 -30 -7 c-26 -5 -28 -4 -18
9 7 8 10 18 6 21 -13 14 -23 6 -23 -17 0 -30 -13 -40 -42 -30 l-22 7 21 17
c17 13 19 20 10 29 -9 9 -8 11 8 5 16 -5 18 -4 8 6 -9 10 -9 17 0 32 9 13 9
21 1 26 -12 8 -13 56 -1 68 12 13 8 24 -8 18 -9 -4 -15 0 -15 8 0 22 12 29 27
17 20 -17 89 -14 108 5 15 15 15 16 0 16 -12 0 -16 6 -12 20 3 11 1 22 -3 25
-5 3 -10 -5 -12 -17 -2 -19 -10 -24 -40 -26 -38 -3 -53 13 -23 24 20 8 11 39
-19 69 -13 13 -31 33 -42 46 -27 34 -82 71 -88 60z m-100 -776 c10 -42 -43
-77 -72 -48 -15 16 -14 19 15 45 38 34 49 35 57 3z"/>
<path d="M2520 1190 c0 -5 18 -10 39 -10 22 0 43 5 46 10 4 6 -12 10 -39 10
-25 0 -46 -4 -46 -10z"/>
<path d="M835 1180 c-11 -18 5 -47 33 -59 l27 -13 -27 26 c-17 15 -25 31 -22
40 7 18 -1 22 -11 6z"/>
<path d="M1780 1178 c0 -7 7 -25 14 -40 8 -16 11 -28 6 -28 -5 0 -8 -19 -7
-42 1 -25 -3 -43 -11 -46 -8 -2 -10 -13 -6 -29 5 -20 4 -24 -7 -19 -8 4 -5 0
5 -8 11 -9 23 -16 28 -16 4 0 8 -7 8 -15 0 -16 16 -20 24 -6 3 4 -5 18 -18 30
l-24 22 19 60 c22 70 24 120 7 137 -16 16 -38 15 -38 0z"/>
<path d="M2630 1180 c0 -5 7 -10 15 -10 21 0 19 -38 -2 -43 -24 -5 30 0 91 9
l49 7 -44 23 c-45 24 -109 32 -109 14z"/>
<path d="M2437 1148 c-11 -12 -27 -18 -38 -15 -10 3 -19 1 -19 -4 0 -5 -11 -7
-25 -3 -19 5 -25 2 -25 -10 0 -9 -7 -19 -15 -22 -8 -4 -15 -12 -15 -20 0 -10
24 -2 80 26 46 23 80 47 80 55 0 18 -1 18 -23 -7z"/>
<path d="M483 1153 c4 -3 -1 -12 -11 -19 -9 -7 -14 -16 -10 -20 4 -4 19 5 32
19 25 26 25 27 4 27 -12 0 -18 -3 -15 -7z"/>
<path d="M2250 1145 c-7 -8 -24 -15 -38 -15 -27 0 -25 -10 3 -14 22 -3 47 -54
36 -73 -5 -10 -11 -12 -15 -5 -7 12 -36 5 -36 -8 0 -10 46 -19 59 -10 6 3 11
17 10 31 0 13 -1 43 -2 67 0 23 -2 42 -3 42 -1 0 -7 -7 -14 -15z"/>
<path d="M313 1138 c-28 -13 -30 -28 -4 -28 30 0 51 11 51 26 0 16 -16 17 -47
2z"/>
<path d="M788 1134 c-4 -3 -14 -7 -25 -9 -30 -6 -29 -7 2 -14 20 -4 31 -14 35
-31 5 -22 12 -25 55 -27 50 -3 50 -3 23 12 -15 9 -32 24 -38 35 -6 11 -18 20
-26 20 -8 0 -12 5 -9 10 7 11 -8 14 -17 4z"/>
<path d="M2755 1110 l-40 -6 30 -9 c17 -4 35 -15 42 -24 8 -11 12 -12 13 -3 0
7 13 12 30 12 34 0 39 14 11 30 -21 11 -25 11 -86 0z"/>
<path d="M2940 1098 c-22 -18 -22 -20 -4 -14 18 6 20 2 20 -36 -1 -25 4 -43
12 -45 14 -5 17 33 2 42 -6 4 -6 15 0 31 19 49 10 56 -30 22z"/>
<path d="M2590 1087 c-24 -12 -57 -34 -73 -49 -27 -25 -28 -28 -14 -49 l15
-21 19 23 c10 13 40 45 67 72 54 52 52 56 -14 24z"/>
<path d="M265 1089 c-7 -10 10 -29 25 -29 10 0 34 19 30 23 -14 13 -49 16 -55
6z"/>
<path d="M1256 1085 c-10 -8 -23 -16 -28 -17 -5 -2 -2 -16 6 -32 l15 -29 6 26
c4 14 13 31 21 38 30 25 12 38 -20 14z"/>
<path d="M2675 1088 c-11 -6 -22 -13 -24 -14 -3 -3 38 -44 44 -44 1 0 1 10 1
23 -1 14 4 21 13 19 12 -3 12 0 1 12 -7 9 -13 16 -14 16 0 0 -10 -6 -21 -12z"/>
<path d="M2130 1075 c0 -12 -6 -15 -20 -10 -12 4 -20 2 -20 -5 0 -7 13 -10 33
-8 32 3 45 27 20 36 -7 2 -13 -4 -13 -13z"/>
<path d="M1567 1073 c-2 -5 -3 -15 -2 -23 2 -11 -6 -17 -23 -18 -31 -3 -43
-12 -15 -12 11 0 25 -10 31 -22 8 -18 11 -19 11 -5 1 21 10 22 41 0 17 -12 25
-13 28 -5 2 7 8 10 13 6 15 -9 10 -22 -8 -27 -16 -4 -16 -5 -1 -6 9 0 23 5 30
13 10 10 20 11 34 4 18 -9 18 -9 0 6 -10 8 -42 22 -72 32 -57 18 -73 30 -26
20 15 -3 34 -2 42 4 12 7 8 10 -17 10 -39 0 -65 9 -57 21 3 5 3 9 0 9 -3 0 -7
-3 -9 -7z"/>
<path d="M590 1050 c0 -5 9 -12 20 -15 20 -6 28 -25 11 -25 -5 0 -11 -6 -14
-14 -4 -9 0 -12 12 -9 9 2 22 18 29 35 6 17 9 28 6 25 -3 -3 -19 -1 -35 3 -16
5 -29 5 -29 0z"/>
<path d="M2593 1018 c-17 -18 -34 -47 -38 -65 -6 -31 -35 -67 -35 -45 0 6 5
14 10 17 19 12 11 33 -11 28 -13 -4 -17 -8 -9 -13 8 -5 7 -11 -4 -23 -21 -21
-20 -24 9 -24 13 0 32 8 41 18 23 26 35 24 74 -11 21 -19 45 -30 62 -30 16 0
27 4 24 9 -3 5 -14 7 -25 4 -20 -5 -51 20 -51 43 0 8 -10 14 -26 14 -22 0 -24
3 -19 23 4 12 18 30 31 40 26 20 32 47 11 47 -7 0 -27 -15 -44 -32z"/>
<path d="M310 1008 c-17 -16 -20 -23 -10 -26 7 -3 18 2 24 10 13 17 56 30 56
16 0 -5 5 -6 11 -2 8 4 7 9 -2 15 -24 15 -54 10 -79 -13z"/>
<path d="M637 980 c-9 -11 -12 -22 -7 -25 6 -4 10 -20 10 -37 0 -26 2 -29 15
-18 13 10 13 15 3 21 -14 9 -12 11 17 27 25 13 65 -6 85 -42 7 -14 37 -39 67
-56 55 -31 87 -40 66 -19 -7 7 -11 24 -9 38 2 14 1 18 -1 9 -2 -10 -11 -18
-19 -18 -19 0 -18 10 4 40 18 27 43 92 37 98 -2 2 -11 -8 -20 -22 -10 -14 -24
-26 -32 -26 -8 0 -11 -4 -8 -10 3 -5 1 -19 -5 -29 -12 -24 -40 -17 -40 10 0
10 -5 19 -11 19 -13 0 -39 25 -39 39 0 18 -16 20 -45 5 -26 -13 -31 -13 -40 0
-10 13 -14 13 -28 -4z"/>
<path d="M2150 985 c10 -12 15 -13 28 -3 12 10 16 10 19 1 3 -7 16 -13 29 -13
13 0 24 -4 24 -10 0 -5 7 -10 15 -10 26 0 65 -31 65 -51 0 -23 37 -62 45 -49
9 15 25 12 25 -4 0 -8 5 -16 12 -18 8 -3 7 -11 -5 -28 -22 -32 -21 -65 3 -118
19 -43 21 -44 59 -39 30 3 38 1 34 -9 -3 -10 3 -14 21 -14 29 0 33 11 12 30
-8 6 -16 21 -18 33 -2 14 -9 21 -20 19 -11 -2 -18 5 -20 20 -2 13 -10 23 -18
23 -17 1 -15 23 6 46 16 18 9 29 -18 29 -26 0 -22 25 8 49 32 25 24 28 -11 5
-25 -16 -61 -12 -50 6 3 5 -5 12 -19 16 -14 3 -32 16 -40 29 -9 13 -24 26 -35
30 -12 3 -17 12 -14 23 3 13 -4 18 -32 19 -22 2 -35 -1 -35 -9 0 -9 -3 -9 -12
0 -7 7 -25 12 -41 12 -25 0 -28 -2 -17 -15z m297 -258 c4 -6 8 -27 9 -45 l1
-33 -21 21 c-18 18 -19 22 -6 30 13 8 12 10 -2 10 -10 0 -18 4 -18 9 0 5 -3
17 -7 26 -5 15 -3 16 15 6 11 -6 24 -17 29 -24z"/>
<path d="M2320 976 c0 -9 5 -16 12 -16 7 0 24 -12 39 -26 24 -23 27 -24 23 -6
-3 11 -15 25 -27 31 -21 11 -21 11 3 7 24 -5 24 -5 5 10 -13 9 -21 11 -23 4
-3 -8 -8 -7 -18 1 -11 9 -14 8 -14 -5z"/>
<path d="M508 938 c-7 -12 -19 -23 -27 -23 -8 0 -16 -6 -19 -14 -4 -11 2 -12
24 -7 16 4 45 8 64 9 20 0 43 9 53 19 18 19 17 19 -19 12 -29 -5 -40 -3 -50
10 -12 16 -13 16 -26 -6z"/>
<path d="M1681 943 c-1 -13 3 -23 7 -23 5 0 14 -10 20 -22 l11 -23 0 23 c1 12
-3 22 -7 22 -5 0 -14 10 -20 23 l-11 22 0 -22z"/>
<path d="M1340 935 c-14 -7 -24 -17 -24 -22 1 -4 -7 -26 -18 -47 -15 -29 -18
-50 -14 -78 4 -23 2 -38 -4 -38 -6 0 -5 -8 2 -20 14 -22 38 -27 38 -7 0 6 -6
32 -14 57 -13 42 -12 48 10 92 13 26 34 54 46 62 28 20 12 20 -22 1z"/>
<path d="M210 924 l-35 -13 30 0 c31 -1 63 13 49 21 -5 2 -25 -1 -44 -8z"/>
<path d="M1262 920 c-13 -32 -51 -72 -62 -65 -19 12 -21 -18 -1 -36 20 -19 20
-19 37 13 9 18 20 35 24 38 16 12 28 47 20 60 -7 11 -11 9 -18 -10z"/>
<path d="M1784 893 c4 -37 2 -41 -15 -40 -11 1 -17 7 -15 14 3 7 -1 10 -10 6
-22 -8 -12 -25 21 -36 24 -8 31 -6 48 14 11 14 31 24 48 25 l29 2 -23 -22
c-12 -11 -34 -29 -47 -38 l-25 -17 25 4 c24 4 24 4 5 -11 -11 -8 -32 -18 -47
-21 -29 -6 -81 -53 -58 -53 7 0 21 6 29 14 9 8 27 16 40 18 34 4 121 104 121
138 0 5 -13 7 -31 3 -29 -6 -75 10 -92 32 -4 5 -5 -9 -3 -32z"/>
<path d="M88 913 c-22 -6 -30 -29 -13 -43 19 -16 55 4 55 30 0 20 -8 22 -42
13z"/>
<path d="M1450 912 c0 -10 22 -32 32 -32 15 0 8 28 -8 34 -21 8 -24 8 -24 -2z"/>
<path d="M2793 903 c-7 -3 -13 -11 -13 -18 0 -8 -10 -16 -22 -18 -22 -4 -22
-4 -2 -6 11 0 29 8 39 19 19 21 18 30 -2 23z"/>
<path d="M2934 900 c-43 -17 -33 -28 13 -14 25 8 49 16 51 19 9 8 -41 4 -64
-5z"/>
<path d="M424 882 c-7 -4 -19 -23 -27 -43 -12 -30 -21 -37 -54 -42 -41 -7 -85
-44 -101 -86 -9 -24 -9 -24 -28 15 -11 23 -28 41 -41 44 -13 3 -32 13 -44 24
-20 17 -23 17 -31 2 -6 -11 -17 -14 -34 -10 -14 4 -24 2 -24 -5 0 -6 5 -11 11
-11 5 0 7 -4 4 -10 -4 -6 11 -11 37 -12 24 -1 54 -2 68 -3 33 -1 39 -32 9 -43
-21 -8 -21 -9 -3 -17 10 -4 24 -9 29 -11 6 -2 19 -6 31 -9 17 -5 23 0 34 27
24 60 48 78 105 78 57 0 73 -9 105 -60 12 -19 20 -27 16 -18 -7 23 71 113 96
112 20 -1 25 12 7 18 -8 3 -8 10 2 26 10 16 11 24 2 33 -8 8 -15 2 -28 -25
-10 -20 -21 -36 -26 -36 -5 0 -9 -7 -9 -15 0 -8 -5 -15 -12 -15 -6 0 -8 -3 -5
-6 8 -9 -11 -44 -23 -44 -6 0 -25 14 -42 31 -29 27 -31 32 -19 51 11 18 11 20
-3 15 -11 -4 -13 -1 -9 11 3 9 10 23 16 30 11 14 7 15 -9 4z"/>
<path d="M2059 858 c-8 -14 -14 -18 -17 -10 -6 19 -22 14 -22 -8 0 -14 5 -18
18 -13 9 4 20 11 24 16 3 6 16 11 29 12 32 2 37 25 5 25 -16 0 -30 -8 -37 -22z"/>
<path d="M18 863 c-19 -5 -25 -32 -8 -34 37 -5 43 -2 45 19 2 22 -4 24 -37 15z"/>
<path d="M112 862 c-19 -6 -14 -30 9 -37 26 -9 28 -5 15 21 -6 11 -17 19 -24
16z"/>
<path d="M2934 855 c-11 -5 -37 -16 -57 -24 -41 -16 -50 -30 -14 -24 12 2 39
-5 59 -15 20 -11 37 -17 36 -13 -1 3 2 13 5 21 4 8 4 26 -1 40 -6 22 -10 24
-28 15z"/>
<path d="M1472 810 c-42 -28 -60 -45 -56 -55 9 -21 25 -19 31 5 3 11 9 17 14
14 10 -6 85 63 77 71 -2 3 -32 -13 -66 -35z"/>
<path d="M2650 842 c0 -6 7 -12 15 -16 8 -3 15 -1 15 4 0 18 33 10 58 -12 14
-13 21 -16 16 -8 -5 8 -9 20 -9 25 0 6 -21 11 -47 13 -27 2 -48 -1 -48 -6z"/>
<path d="M2297 813 c-12 -13 -20 -14 -28 -6 -8 8 -16 6 -31 -9 -11 -11 -17
-23 -13 -26 4 -4 11 1 16 11 6 9 15 17 21 17 6 0 1 -11 -12 -25 -37 -39 -15
-42 24 -3 31 31 36 33 50 19 14 -14 17 -13 31 4 20 28 18 38 -5 25 -14 -7 -20
-7 -20 0 0 15 -13 12 -33 -7z"/>
<path d="M2056 812 c-2 -4 1 -15 8 -24 12 -16 15 -16 32 -2 16 13 16 15 2 10
-12 -3 -15 -1 -11 10 5 14 -22 21 -31 6z"/>
<path d="M860 798 c0 -7 7 -24 16 -36 10 -15 14 -33 10 -50 -4 -15 -9 -44 -11
-65 -3 -21 -7 -42 -10 -46 -2 -5 2 -28 9 -52 l14 -44 -1 40 c0 22 5 56 11 75
18 59 21 140 6 140 -8 0 -14 6 -14 14 0 7 -7 19 -15 26 -12 10 -15 10 -15 -2z"/>
<path d="M2614 772 c16 -31 16 -32 -4 -32 -32 0 -23 -14 15 -26 34 -11 57 -3
35 11 -6 4 -8 10 -6 14 3 4 -9 20 -26 36 l-31 29 17 -32z"/>
<path d="M7 783 c-4 -3 -7 -15 -7 -25 0 -15 3 -16 19 -6 10 6 17 18 14 25 -6
14 -16 17 -26 6z"/>
<path d="M2841 776 c-14 -17 0 -29 23 -20 8 3 31 -3 49 -15 41 -25 47 -26 47
-6 0 8 -12 18 -27 21 -16 4 -37 13 -48 20 -24 17 -30 17 -44 0z"/>
<path d="M563 753 c-7 -15 -13 -38 -13 -52 1 -25 1 -25 12 -6 6 11 16 23 21
26 5 4 5 9 -1 13 -6 3 -8 15 -5 26 7 28 0 25 -14 -7z"/>
<path d="M2298 755 c-6 -14 -8 -28 -4 -33 9 -8 36 26 36 45 0 22 -20 14 -32
-12z"/>
<path d="M2511 758 c-15 -25 -13 -28 35 -34 33 -4 36 -3 15 6 -14 6 -21 16
-18 24 9 23 -18 26 -32 4z"/>
<path d="M1997 719 c-21 -11 -35 -24 -31 -30 4 -7 10 -6 19 1 8 7 18 9 23 6 6
-3 15 1 22 9 7 8 19 15 26 15 8 0 14 5 14 10 0 16 -31 11 -73 -11z"/>
<path d="M2180 730 c-8 -5 -25 -10 -38 -10 -13 0 -20 -4 -17 -10 4 -6 -7 -13
-24 -16 -17 -4 -31 -10 -31 -14 0 -4 -15 -11 -32 -15 -29 -7 -30 -9 -10 -12
13 -3 30 1 38 8 11 9 18 9 26 1 7 -7 17 -12 23 -12 5 0 4 4 -4 9 -7 5 -10 14
-7 20 10 15 29 14 20 -1 -4 -7 -4 -10 0 -6 4 3 7 10 6 14 -1 3 17 15 39 25 23
10 41 20 41 24 0 8 -13 6 -30 -5z"/>
<path d="M2230 721 c0 -5 -3 -18 -6 -28 -6 -15 -4 -16 7 -5 7 6 22 12 34 12
20 1 20 1 1 15 -23 17 -36 19 -36 6z"/>
<path d="M0 711 c0 -19 21 -35 68 -54 51 -20 93 -23 86 -4 -2 7 -30 18 -62 26
-31 7 -65 20 -74 29 -13 10 -18 11 -18 3z"/>
<path d="M734 704 c3 -9 6 -22 6 -30 0 -28 15 -13 16 16 1 20 -4 30 -14 30 -9
0 -12 -6 -8 -16z"/>
<path d="M342 698 c-17 -17 -15 -25 8 -31 16 -4 20 0 20 19 0 26 -10 30 -28
12z"/>
<path d="M1426 677 c-5 -24 -9 -29 -16 -17 -5 8 -6 19 -2 25 3 5 -2 4 -11 -4
-15 -12 -20 -11 -35 3 -24 21 -39 20 -52 -4 -6 -11 -31 -31 -55 -46 -25 -14
-67 -44 -93 -65 -25 -21 -55 -39 -64 -39 -10 0 -18 -4 -18 -10 0 -5 -6 -10
-14 -10 -11 0 -26 -20 -26 -36 0 -6 167 105 247 164 l45 34 42 -16 c50 -19 56
-20 56 -4 0 6 7 19 15 28 14 15 14 18 2 23 -10 4 -17 -4 -21 -26z"/>
<path d="M1590 700 c-19 -4 -29 -8 -22 -9 17 -2 15 -21 -3 -21 -8 0 -15 7 -15
16 0 13 -3 14 -15 4 -8 -7 -26 -10 -39 -8 -18 4 -23 1 -18 -10 3 -8 -3 -21
-13 -28 -13 -10 -15 -14 -5 -14 8 0 -8 -20 -35 -45 -30 -26 -44 -44 -34 -45 8
0 25 14 38 30 27 37 108 90 139 90 12 0 22 5 22 11 0 5 3 8 8 6 11 -7 52 11
52 23 0 11 -8 11 -60 0z"/>
<path d="M2169 682 c-15 -13 -19 -21 -11 -26 7 -4 12 -1 12 10 0 13 3 14 15 4
8 -7 15 -10 15 -7 0 3 3 12 6 21 8 21 -9 20 -37 -2z"/>
<path d="M2310 678 c1 -7 10 -24 21 -37 15 -18 23 -21 31 -13 9 9 9 12 0 12
-7 0 -12 6 -12 13 0 7 -9 18 -20 25 -16 10 -20 10 -20 0z"/>
<path d="M680 667 c0 -8 3 -17 8 -21 4 -4 7 -19 7 -33 0 -15 6 -28 12 -30 14
-5 12 31 -2 75 -8 24 -25 30 -25 9z"/>
<path d="M1072 620 c-61 -59 -62 -60 -62 -115 0 -32 4 -55 11 -55 5 0 7 5 4
11 -8 12 42 119 56 119 5 0 9 12 9 26 0 17 4 23 13 18 6 -4 9 -4 5 1 -4 4 3
16 15 25 12 10 19 21 16 24 -3 3 -33 -21 -67 -54z"/>
<path d="M2663 650 c-32 -35 -44 -36 -81 -13 -26 17 -26 17 -13 0 27 -35 160
-57 198 -34 6 4 16 0 23 -8 15 -19 40 -19 65 -2 17 13 17 14 -4 20 -11 3 -21
1 -21 -4 0 -5 -5 -9 -11 -9 -6 0 -8 9 -4 21 6 17 3 20 -12 16 -10 -3 -36 -8
-58 -12 -22 -3 -48 -8 -57 -11 -26 -8 -23 21 4 46 12 11 17 20 11 20 -6 0 -24
-13 -40 -30z"/>
<path d="M2892 653 c-34 -8 -60 -18 -57 -23 3 -5 13 -7 23 -5 9 3 38 10 65 16
26 6 45 15 41 20 -3 5 -6 9 -7 8 -1 0 -30 -7 -65 -16z"/>
<path d="M339 639 c-21 -3 -45 -14 -55 -24 -18 -18 -18 -18 18 -12 33 5 37 3
43 -20 5 -23 8 -25 21 -11 9 9 14 28 12 44 -3 28 -5 29 -39 23z"/>
<path d="M486 627 c-10 -36 -7 -47 12 -47 10 0 24 -6 31 -12 11 -11 12 -9 3 8
-7 12 -19 24 -28 28 -13 5 -14 9 -5 20 7 8 8 17 3 20 -6 3 -12 -4 -16 -17z"/>
<path d="M780 635 c-15 -18 -6 -45 14 -45 21 0 25 12 11 38 -11 20 -14 21 -25
7z"/>
<path d="M2128 634 c-8 -13 9 -54 22 -54 5 0 10 6 10 13 0 19 -26 52 -32 41z"/>
<path d="M1979 617 c-16 -12 -16 -16 0 -61 17 -51 47 -75 93 -76 28 0 33 20 9
43 -11 10 -13 8 -8 -10 3 -13 3 -23 0 -23 -28 0 -83 71 -83 108 0 15 5 19 21
15 12 -3 18 -11 15 -19 -3 -8 -1 -24 4 -36 9 -21 9 -20 7 7 -2 25 1 29 18 27
20 -4 20 -4 0 13 -11 9 -14 14 -7 10 6 -3 12 -1 12 4 0 15 -61 13 -81 -2z"/>
<path d="M23 606 c-34 -16 -28 -22 18 -18 22 3 46 -1 52 -7 6 -6 18 -11 26
-11 22 0 2 16 -39 33 -26 10 -41 11 -57 3z"/>
<path d="M2327 586 c18 -25 33 -25 33 -1 0 7 -7 16 -16 19 -30 11 -35 6 -17
-18z"/>
<path d="M2945 598 c-27 -10 -28 -12 -10 -19 19 -7 19 -8 1 -8 -10 -1 -24 6
-30 15 -10 14 -14 13 -30 -5 l-19 -21 72 0 c46 0 70 4 66 10 -4 6 -11 7 -17 4
-7 -5 -9 0 -6 14 4 12 5 22 5 21 -1 0 -15 -5 -32 -11z"/>
<path d="M634 576 c12 -24 76 -84 76 -71 0 8 -52 78 -65 87 -19 14 -24 8 -11
-16z"/>
<path d="M2245 585 c19 -8 34 -10 42 -4 7 7 13 5 16 -3 2 -7 8 -9 13 -5 14 13
-18 27 -61 26 l-40 -1 30 -13z"/>
<path d="M2390 572 c0 -25 12 -34 34 -26 17 7 22 34 7 34 -5 0 -16 3 -25 6
-11 4 -16 0 -16 -14z"/>
<path d="M2585 580 c-4 -6 15 -10 52 -9 48 1 53 3 28 9 -44 11 -73 11 -80 0z"/>
<path d="M126 551 c-14 -15 -24 -17 -59 -10 -62 12 -67 11 -66 -13 0 -13 3
-18 5 -11 3 7 14 3 30 -12 31 -29 30 -32 -6 -30 -16 1 -30 -2 -30 -8 0 -5 17
-7 38 -5 20 3 73 1 116 -3 44 -4 84 -5 90 -1 6 4 27 12 46 18 23 8 28 12 15
13 -11 1 -31 8 -43 17 -20 14 -22 14 -22 -4 0 -17 -7 -18 -72 -15 -80 4 -98 8
-98 21 0 5 13 7 29 4 24 -3 31 1 44 27 17 35 9 41 -17 12z"/>
<path d="M846 561 c-9 -14 -67 -42 -77 -36 -4 3 -7 -3 -7 -12 0 -10 -3 -26 -7
-35 -5 -13 -3 -18 8 -18 9 0 18 -8 20 -17 4 -17 5 -17 6 0 0 9 8 17 17 17 10
0 13 6 9 19 -4 12 4 30 21 50 15 18 24 34 21 37 -3 3 -8 1 -11 -5z"/>
<path d="M2164 555 c-3 -8 -3 -19 1 -25 4 -6 2 -16 -4 -23 -7 -10 -5 -13 8
-14 20 -2 30 26 23 60 -4 21 -21 22 -28 2z"/>
<path d="M2220 564 c0 -16 24 -64 33 -64 14 0 7 31 -13 52 -11 12 -20 17 -20
12z"/>
<path d="M400 540 c-14 -4 -42 -8 -63 -9 -52 -1 -39 -17 31 -37 31 -9 66 -25
78 -35 25 -24 34 -24 34 -1 0 11 -17 24 -48 37 l-47 19 33 10 c17 5 32 13 32
17 0 11 -15 10 -50 -1z"/>
<path d="M2095 540 c-3 -5 1 -10 10 -10 9 0 14 -4 10 -9 -3 -5 -1 -12 5 -16 6
-4 10 5 10 19 0 26 -23 36 -35 16z"/>
<path d="M2440 541 c0 -6 5 -13 10 -16 12 -7 3 -46 -12 -56 -5 -3 7 -18 26
-33 20 -15 36 -26 36 -24 7 48 7 118 1 103 -5 -11 -7 -23 -5 -27 3 -4 -1 -10
-7 -14 -9 -5 -10 1 -5 20 5 21 4 26 -6 20 -7 -4 -4 2 6 14 l19 22 -31 0 c-18
0 -32 -4 -32 -9z"/>
<path d="M2720 510 c-25 -22 -52 -40 -60 -40 -9 0 -21 -5 -28 -12 -8 -8 -15
-8 -27 2 -14 12 -18 11 -26 -1 -5 -8 -9 -20 -9 -26 0 -16 -46 -47 -58 -39 -5
3 -7 -5 -5 -19 4 -16 -3 -32 -20 -49 -29 -29 -24 -32 20 -13 16 6 28 18 26 25
-3 6 2 12 10 12 8 0 17 7 21 15 3 8 10 15 15 15 15 0 22 -31 11 -48 -9 -14
-10 -13 -5 6 6 21 5 22 -14 10 -14 -9 -17 -14 -8 -20 7 -5 0 -10 -21 -14 -31
-6 -49 -20 -40 -30 3 -2 23 -6 46 -8 38 -4 42 -2 56 29 21 43 20 71 -1 85 -13
8 -14 13 -5 16 18 8 15 24 -5 25 -10 0 3 6 29 13 39 11 158 87 158 101 0 12
-18 1 -60 -35z"/>
<path d="M2806 532 c-3 -9 -25 -26 -48 -37 -30 -14 -43 -26 -41 -38 1 -15 -4
-18 -22 -14 -35 6 -52 -7 -36 -27 8 -9 22 -16 31 -16 51 0 64 -26 29 -61 -11
-11 -18 -27 -15 -35 8 -20 24 -17 31 6 3 11 11 20 16 20 5 0 9 6 9 14 0 8 9
30 20 50 22 36 21 39 -22 50 -54 13 -29 46 34 46 34 0 101 37 92 51 -10 17
-72 10 -78 -9z"/>
<path d="M2580 521 c0 -11 5 -23 10 -26 6 -3 10 4 10 16 0 21 0 21 21 -2 11
-13 17 -18 13 -10 -4 9 0 19 11 28 17 12 15 13 -23 13 -35 0 -42 -3 -42 -19z"/>
<path d="M2913 529 c11 -6 32 -9 48 -7 16 3 31 0 33 -6 2 -6 5 -3 5 7 1 14 -8
17 -51 17 -43 -1 -49 -3 -35 -11z"/>
<path d="M2853 472 c10 -10 17 -26 17 -34 0 -21 47 -51 63 -41 7 4 21 8 32 8
15 0 21 9 26 39 l6 38 -24 -31 c-14 -17 -31 -31 -38 -31 -26 0 -28 23 -4 42
l24 19 -41 -6 c-26 -4 -45 -2 -49 4 -3 6 -11 11 -17 11 -6 0 -4 -8 5 -18z"/>
<path d="M325 463 c-73 -7 -71 -15 8 -38 100 -29 111 -39 90 -83 -15 -31 -15
-34 0 -50 16 -15 17 -15 17 1 0 9 5 17 10 17 16 0 11 32 -14 87 -20 42 -54 79
-68 71 -2 -1 -21 -3 -43 -5z"/>
<path d="M504 462 c-8 -5 -3 -18 17 -42 33 -39 35 -37 14 14 -17 40 -15 39
-31 28z"/>
<path d="M2104 456 c-3 -9 -4 -22 -1 -30 7 -17 57 -28 56 -12 -1 15 -17 53
-18 42 -1 -5 -8 -3 -16 4 -12 10 -16 9 -21 -4z"/>
<path d="M2348 452 c-8 -10 -24 -23 -34 -29 -17 -11 -16 -12 6 -5 32 11 60 4
60 -14 0 -8 6 -14 13 -14 6 0 17 -11 24 -25 10 -22 9 -25 -7 -25 -10 0 -21 8
-23 18 -4 16 -5 16 -6 -1 0 -10 -5 -16 -11 -12 -5 3 -17 -2 -27 -12 -16 -16
-68 -40 -98 -46 -6 -1 -9 13 -7 31 2 18 -1 32 -7 32 -6 0 -11 -15 -11 -34 0
-34 -15 -57 -22 -36 -2 6 -13 1 -26 -10 -12 -12 -26 -18 -32 -15 -5 3 -13 -2
-18 -11 -6 -12 -17 -15 -32 -11 -22 6 -22 5 -6 -11 15 -16 19 -16 64 1 26 10
83 31 127 47 44 15 96 35 116 44 20 8 39 13 42 10 3 -3 4 6 3 20 -2 14 2 26 8
26 6 0 3 5 -6 11 -10 5 -18 19 -18 29 0 11 -5 17 -12 15 -7 -3 -20 0 -28 5
-12 8 -13 12 -2 19 11 7 11 9 -1 14 -8 3 -21 -2 -29 -11z"/>
<path d="M560 428 c0 -5 14 -8 30 -8 19 0 30 -5 30 -14 0 -7 10 -16 22 -19 12
-4 19 -9 16 -13 -4 -3 -21 -1 -39 5 l-32 11 7 -33 c28 -143 42 -188 37 -120
-1 12 6 26 16 32 11 6 13 11 5 11 -10 0 -9 4 2 16 15 14 18 14 37 -8 l20 -23
-6 25 c-4 14 -19 53 -35 86 -28 61 -28 61 -69 60 -22 0 -41 -4 -41 -8z"/>
<path d="M1942 425 c1 -10 -3 -20 -11 -23 -10 -3 -12 0 -8 12 4 10 3 15 -3 11
-13 -8 -13 -35 0 -35 21 0 8 -19 -24 -34 -42 -20 -46 -20 -46 0 0 9 -5 14 -12
12 -23 -8 -17 -23 17 -40 19 -10 35 -13 35 -8 0 6 6 10 14 10 7 0 26 6 40 14
22 11 24 15 11 20 -19 7 -15 31 6 31 24 1 25 17 1 33 -22 14 -23 14 -20 -3z"/>
<path d="M810 390 c-24 -47 -26 -80 -5 -80 21 0 21 -78 0 -86 -8 -4 -15 -18
-15 -33 0 -18 3 -22 9 -13 4 8 11 13 15 13 19 -1 79 -89 73 -106 -4 -9 1 -11
14 -8 19 5 19 7 -7 34 -15 16 -25 32 -21 35 3 4 -3 20 -14 35 -11 16 -18 33
-14 39 3 5 0 18 -7 29 -10 16 -9 26 7 55 11 19 16 38 12 42 -4 4 -7 -1 -7 -11
0 -18 -1 -18 -16 -3 -21 21 -6 74 20 72 22 -2 15 18 -7 22 -11 1 -24 -11 -37
-36z"/>
<path d="M2464 380 c3 -17 1 -30 -4 -30 -6 0 -10 -5 -10 -11 0 -8 5 -8 15 1
17 14 20 70 4 70 -7 0 -9 -11 -5 -30z"/>
<path d="M2175 390 c-11 -18 5 -30 39 -30 46 0 52 11 15 27 -38 16 -46 16 -54
3z"/>
<path d="M528 368 c7 -7 12 -22 12 -35 0 -14 6 -23 15 -23 18 0 19 9 5 44 -5
14 -17 26 -27 26 -13 0 -14 -3 -5 -12z"/>
<path d="M2812 350 c-13 -16 -26 -29 -31 -27 -16 4 -13 -18 5 -28 12 -7 18 -6
21 3 3 6 10 12 17 12 8 0 12 13 12 35 -1 19 -1 35 -2 35 0 0 -10 -13 -22 -30z"/>
<path d="M1431 316 c-36 -16 -79 -30 -98 -31 -18 -1 -43 -11 -54 -21 -13 -12
-35 -18 -60 -18 l-39 1 28 -32 c49 -57 107 -41 181 50 7 9 15 14 18 11 3 -3 0
-12 -6 -20 -7 -8 -11 -23 -9 -33 2 -13 10 -6 30 27 38 66 61 84 87 70 26 -13
27 -9 3 11 -16 14 -24 12 -81 -15z"/>
<path d="M1955 317 c-4 -15 -11 -27 -16 -27 -5 0 -9 -5 -9 -11 0 -5 4 -8 9 -5
5 3 11 -1 15 -9 3 -8 1 -15 -4 -15 -6 0 -10 -9 -10 -20 0 -11 5 -20 10 -20 6
0 10 9 10 19 0 11 5 23 10 26 12 8 13 55 1 74 -8 12 -11 9 -16 -12z"/>
<path d="M130 303 c0 -9 -6 -24 -14 -32 -8 -9 -27 -41 -44 -71 -23 -43 -34
-54 -51 -53 -25 3 -28 -13 -4 -20 10 -2 25 -8 33 -11 16 -7 49 47 71 119 6 22
19 50 27 63 13 20 13 22 -2 22 -9 0 -16 -8 -16 -17z"/>
<path d="M197 305 c12 -9 57 -27 100 -41 88 -28 143 -61 190 -112 28 -30 31
-32 24 -11 -21 66 -34 90 -41 79 -6 -10 -15 -8 -36 7 -37 25 -147 73 -167 73
-9 0 -19 5 -22 10 -3 6 -20 10 -38 10 -31 0 -31 0 -10 -15z"/>
<path d="M1540 302 c0 -5 4 -32 10 -60 5 -28 10 -67 12 -86 4 -59 18 -28 17
37 -1 72 -10 109 -27 115 -6 2 -12 -1 -12 -6z"/>
<path d="M1849 295 c-2 -17 -6 -34 -9 -37 -6 -8 -7 -98 0 -98 6 0 40 114 40
133 0 13 -30 14 -31 2z"/>
<path d="M574 207 c2 -53 0 -100 -5 -103 -12 -7 -12 -81 0 -88 23 -15 34 233
12 271 -8 13 -9 -8 -7 -80z"/>
<path d="M1015 274 c-20 -13 -49 -24 -65 -24 -35 0 -38 -10 -10 -35 23 -20 25
-37 9 -66 -8 -16 -13 -18 -25 -8 -18 15 -18 4 1 -24 14 -21 13 -25 -14 -54
-42 -46 -48 -69 -10 -41 34 25 114 157 124 205 9 43 56 56 130 37 14 -3 11 0
-6 10 -47 27 -95 27 -134 0z"/>
<path d="M690 244 c6 -14 7 -36 4 -49 -3 -12 -1 -26 5 -29 6 -4 11 -19 11 -33
0 -49 11 -16 17 49 3 44 2 68 -6 73 -8 5 -10 -2 -6 -22 5 -27 5 -27 -10 5 -18
38 -29 43 -15 6z"/>
<path d="M1993 242 c-6 -4 -11 -22 -10 -41 2 -34 1 -35 -73 -60 -41 -15 -80
-30 -87 -34 -6 -4 -19 -4 -30 -1 -14 5 -15 4 -3 -4 12 -9 9 -13 -13 -21 -16
-6 -39 -11 -53 -11 -15 0 -24 -6 -24 -15 0 -22 25 -18 110 15 41 17 78 30 82
30 10 0 158 71 158 75 0 2 -12 16 -26 31 -22 21 -24 28 -13 35 8 5 10 9 4 9
-5 0 -15 -4 -22 -8z"/>
<path d="M244 143 c8 -16 19 -48 26 -73 11 -43 32 -70 53 -70 6 0 3 8 -5 18
-15 18 -38 87 -38 117 0 14 5 16 28 11 45 -11 152 -64 152 -76 0 -6 11 -15 25
-20 15 -6 25 -17 25 -30 0 -11 7 -20 15 -20 24 0 18 12 -30 67 -39 44 -56 55
-123 77 -42 14 -92 26 -110 26 -32 0 -32 0 -18 -27z"/>
<path d="M798 159 c-10 -5 -18 -20 -18 -33 0 -13 -7 -29 -15 -36 -12 -10 -10
-17 17 -51 37 -46 50 -48 73 -13 16 25 16 25 -4 15 -16 -9 -23 -7 -39 17 -17
24 -18 31 -7 70 7 23 12 42 11 42 0 0 -9 -5 -18 -11z"/>
<path d="M1603 125 c6 -39 55 -114 75 -115 17 0 15 17 -3 24 -8 3 -15 16 -15
30 0 14 -5 28 -11 31 -6 4 -8 13 -5 20 5 13 -23 45 -39 45 -4 0 -5 -16 -2 -35z"/>
<path d="M1096 130 c20 -8 44 -66 44 -109 0 -11 5 -21 10 -21 13 0 13 35 -1
85 -12 44 -23 55 -54 54 -20 0 -20 0 1 -9z"/>
<path d="M2043 119 c-23 -12 -58 -35 -77 -52 -19 -18 -45 -40 -57 -49 -13 -10
-18 -18 -12 -18 6 0 16 7 23 15 7 8 19 15 26 15 8 0 14 5 14 10 0 6 4 10 9 10
6 0 22 11 37 25 15 14 29 23 32 21 2 -3 11 1 19 9 19 20 25 19 51 -5 24 -23
30 -7 8 23 -16 21 -21 21 -73 -4z"/>
<path d="M1465 109 c3 -4 -11 -14 -31 -24 -57 -27 -33 -28 47 -1 49 16 65 25
49 26 -14 1 -35 3 -47 4 -12 1 -20 -1 -18 -5z"/>
<path d="M977 70 c-14 -17 -26 -73 -12 -59 6 7 36 79 32 79 -1 0 -10 -9 -20
-20z"/>
<path d="M1383 46 c3 -8 -1 -20 -9 -27 -8 -6 -12 -14 -9 -17 6 -6 45 27 45 38
0 5 -7 11 -16 14 -11 4 -15 2 -11 -8z"/>
</g>
</svg>
