<?xml version="1.0" standalone="no"?>
<!DOCTYPE svg PUBLIC "-//W3C//DTD SVG 20010904//EN"
 "http://www.w3.org/TR/2001/REC-SVG-20010904/DTD/svg10.dtd">
<svg version="1.0" xmlns="http://www.w3.org/2000/svg"
 width="300.000000pt" height="188.000000pt" viewBox="0 0 300.000000 188.000000"
 preserveAspectRatio="xMidYMid meet">
<metadata>
Created by potrace 1.10, written by Peter Selinger 2001-2011
</metadata>
<g transform="translate(0.000000,188.000000) scale(0.100000,-0.100000)"
fill="#000000" stroke="none">
<path d="M807 1870 c7 -6 98 -26 168 -37 17 -3 62 -11 100 -18 42 -8 74 -10
80 -4 5 5 0 9 -14 9 -13 0 -62 9 -110 20 -92 21 -236 41 -224 30z"/>
<path d="M1150 1871 c41 -3 95 -3 120 0 27 4 -4 6 -75 6 -104 0 -110 -1 -45
-6z"/>
<path d="M2118 1873 c17 -2 47 -2 65 0 17 2 3 4 -33 4 -36 0 -50 -2 -32 -4z"/>
<path d="M2258 1873 c18 -2 45 -2 60 0 15 2 0 4 -33 4 -33 0 -45 -2 -27 -4z"/>
<path d="M2391 1876 c2 -2 36 -6 74 -9 46 -4 65 -3 55 3 -14 9 -139 15 -129 6z"/>
<path d="M1615 1850 c3 -5 25 -10 48 -9 33 0 38 2 22 9 -28 12 -78 12 -70 0z"/>
<path d="M1846 1852 c-8 -14 280 -60 292 -47 12 11 -15 26 -46 25 -52 0 -204
17 -223 25 -10 3 -20 2 -23 -3z"/>
<path d="M2170 1806 c4 -4 55 -10 112 -12 121 -4 231 -20 271 -41 41 -21 53
-11 18 15 -19 14 -57 26 -103 33 -90 13 -310 17 -298 5z"/>
<path d="M1778 1776 c9 -5 33 -9 53 -8 19 2 60 -4 90 -11 61 -15 111 -15 116
0 4 12 -77 23 -194 26 -55 1 -76 -1 -65 -7z"/>
<path d="M695 1752 c-2 -2 -43 -6 -92 -9 -48 -3 -97 -7 -108 -8 -11 -1 -31 -3
-44 -4 -13 0 -22 -3 -19 -6 5 -6 223 -12 497 -15 134 -2 145 -1 164 19 l21 21
-114 2 c-207 3 -301 3 -305 0z"/>
<path d="M1364 1723 c4 -30 0 -44 -19 -68 -13 -16 -33 -41 -43 -55 l-20 -24
-32 58 c-27 47 -35 55 -42 42 -7 -12 -2 -25 16 -47 14 -16 33 -54 42 -84 l17
-54 23 57 c24 59 81 119 119 126 11 2 45 9 75 16 105 24 147 19 295 -32 43
-15 81 -20 135 -19 105 3 262 -23 275 -46 16 -27 62 -73 74 -73 19 0 12 21
-19 57 -16 18 -30 44 -30 58 0 25 -24 55 -43 55 -7 0 -19 -5 -27 -10 -12 -8
-11 -10 8 -10 22 0 28 -10 15 -23 -3 -4 -12 -2 -19 4 -8 6 -20 9 -28 6 -8 -3
-17 -3 -20 0 -11 12 -163 18 -238 9 -56 -6 -57 -6 -84 30 -23 30 -32 35 -56
30 -15 -3 -28 -2 -28 2 0 11 -210 8 -218 -3 -10 -14 -59 -35 -82 -35 -12 0
-21 10 -25 30 -10 45 -26 48 -21 3z"/>
<path d="M2084 1751 c4 -6 23 -10 44 -7 20 2 54 -2 76 -9 21 -8 44 -11 50 -9
7 3 46 0 87 -6 41 -6 110 -11 154 -10 44 0 103 -4 130 -10 28 -6 118 -13 200
-16 83 -2 156 -7 163 -9 6 -2 12 2 12 10 0 8 -3 15 -7 15 -5 0 -89 7 -189 14
-100 8 -212 13 -250 11 -38 -1 -74 1 -79 6 -6 4 -49 10 -95 13 -47 3 -134 8
-194 12 -79 4 -107 3 -102 -5z"/>
<path d="M1155 1709 c-24 -27 -33 -45 -27 -51 11 -11 82 57 82 79 0 23 -16 14
-55 -28z"/>
<path d="M515 1668 c-83 -30 -162 -108 -209 -208 -29 -61 -31 -72 -31 -185 0
-102 4 -131 25 -192 13 -40 28 -73 31 -73 13 0 20 33 9 44 -5 5 -10 19 -10 31
0 12 -5 26 -10 31 -21 21 -31 133 -20 213 26 191 151 324 320 341 l65 7 -70 1
c-38 0 -83 -4 -100 -10z"/>
<path d="M1010 1650 c28 -22 40 -25 40 -10 0 6 -12 15 -26 20 -38 15 -42 12
-14 -10z"/>
<path d="M711 1646 c101 -27 177 -91 234 -196 19 -36 35 -58 35 -50 0 28 -52
115 -99 163 -54 56 -131 97 -180 96 l-36 0 46 -13z"/>
<path d="M2640 1652 c0 -6 7 -12 15 -16 8 -3 15 -12 15 -21 0 -8 11 -33 25
-55 14 -22 25 -45 25 -52 0 -7 12 -21 25 -31 22 -15 25 -16 25 -2 0 8 -4 15
-8 15 -11 0 -62 93 -62 113 0 9 -13 25 -30 37 -16 12 -30 17 -30 12z"/>
<path d="M331 1639 c-64 -12 -62 -19 5 -19 37 0 68 6 80 15 18 14 17 14 -11
14 -16 -1 -50 -5 -74 -10z"/>
<path d="M1100 1640 c-8 -5 -10 -10 -5 -10 6 0 4 -4 -4 -9 -12 -8 -10 -15 10
-39 29 -38 48 -42 24 -6 -10 16 -14 35 -11 50 7 27 7 27 -14 14z"/>
<path d="M1162 1613 c20 -23 43 -79 54 -135 1 -5 2 -11 3 -15 1 -5 6 -1 11 7
15 23 12 57 -5 64 -9 3 -15 18 -15 35 0 20 -8 36 -26 50 -38 30 -52 26 -22 -6z"/>
<path d="M164 1619 c-3 -6 -17 -8 -29 -5 -13 3 -27 2 -30 -4 -3 -5 -3 -10 2
-11 4 0 28 -2 53 -4 150 -13 194 -14 165 -5 -16 5 -51 12 -78 15 -26 4 -45 10
-42 16 4 5 -3 9 -14 9 -11 0 -23 -5 -27 -11z"/>
<path d="M543 1614 c-23 -8 -62 -33 -86 -55 -68 -59 -97 -117 -113 -221 -7
-48 -16 -93 -19 -98 -11 -18 13 -11 51 15 52 35 107 47 196 43 76 -3 78 -2 78
20 0 57 61 146 122 178 15 8 45 14 68 14 22 0 40 5 40 10 0 13 -71 13 -104 0
-45 -17 -104 -79 -127 -135 -13 -30 -26 -55 -31 -55 -25 0 17 100 65 154 31
35 56 52 97 66 40 14 50 20 38 25 -28 11 -119 -46 -160 -100 -20 -27 -42 -71
-48 -97 -13 -51 -25 -67 -41 -51 -6 6 -2 35 13 79 18 56 33 80 79 127 32 32
66 57 78 57 11 0 22 4 25 9 17 26 -158 39 -221 15z m111 -46 c-53 -58 -79
-102 -100 -173 -22 -74 -31 -86 -39 -52 -7 26 -8 26 -24 8 -9 -11 -40 -26 -69
-34 l-54 -15 7 51 c9 65 16 82 52 132 36 48 97 92 141 101 38 8 42 -8 12 -46
-11 -14 -20 -29 -20 -34 0 -6 11 6 25 25 30 41 75 79 94 79 7 0 -4 -19 -25
-42z"/>
<path d="M1318 1513 c-18 -34 -28 -72 -33 -127 -5 -57 -13 -88 -28 -108 -11
-15 -17 -31 -13 -35 12 -12 65 59 67 87 0 14 3 20 5 14 4 -9 11 -9 28 -1 l23
11 -29 36 -29 37 20 63 c11 35 19 65 17 67 -1 2 -14 -18 -28 -44z"/>
<path d="M2013 1549 c-35 -10 -73 -52 -73 -80 0 -10 -5 -21 -10 -24 -6 -3 -7
-17 -4 -31 3 -13 1 -31 -6 -39 -6 -8 -10 -29 -9 -47 2 -18 -9 -71 -25 -118
-33 -100 -83 -237 -97 -265 -5 -11 -16 -45 -23 -75 -14 -52 -10 -69 15 -70 11
0 31 82 31 126 0 30 3 41 12 38 13 -5 46 71 62 139 4 16 15 34 25 40 11 7 19
21 19 32 0 12 5 26 12 33 9 9 7 16 -6 31 -10 11 -15 25 -11 30 9 15 25 14 21
-1 -1 -7 -1 -10 1 -6 2 4 11 4 19 1 8 -3 14 0 14 6 0 6 8 11 17 11 9 0 14 -3
11 -6 -23 -23 100 -64 193 -64 24 0 30 -3 20 -9 -8 -5 -20 -7 -27 -4 -7 2 -21
0 -31 -6 -15 -8 -10 -10 26 -11 41 0 43 -1 37 -26 -5 -17 -3 -23 4 -19 13 8
13 -21 0 -46 -6 -11 -7 -25 -3 -32 4 -6 8 -64 9 -128 0 -70 6 -129 14 -148 16
-39 7 -69 -16 -50 -13 10 -17 10 -25 -2 -6 -10 -9 -11 -9 -1 0 7 -5 10 -10 7
-6 -4 -8 -11 -5 -16 8 -12 -8 -12 -21 0 -5 5 -31 1 -64 -10 -30 -10 -43 -16
-27 -14 20 4 27 1 27 -10 0 -11 -12 -15 -49 -15 -28 0 -53 -4 -56 -10 -6 -10
-15 -7 -70 23 -16 9 -43 22 -58 28 -17 7 -26 17 -23 25 3 7 -1 32 -9 56 -15
49 -18 39 -15 -51 l2 -63 -25 18 c-14 11 -30 37 -37 59 -14 48 -52 116 -76
136 -14 11 -13 6 5 -29 12 -23 26 -42 32 -42 8 0 8 -4 2 -12 -6 -7 -13 -38
-16 -68 -4 -37 -3 -50 3 -40 5 8 10 34 10 58 0 27 4 41 10 37 6 -4 8 -10 5
-15 -3 -5 1 -22 9 -38 8 -16 12 -32 9 -36 -4 -3 1 -6 10 -6 28 0 28 -17 -2
-48 -19 -22 -34 -29 -49 -26 -15 4 -22 0 -27 -18 -4 -12 -13 -29 -19 -37 -11
-14 -16 -81 -5 -81 3 0 6 -7 6 -15 0 -8 -4 -15 -9 -15 -19 0 -23 2 -20 12 1 5
-2 7 -7 4 -5 -4 -12 -2 -15 3 -4 5 -2 12 4 16 5 3 10 14 10 23 -1 14 -4 13
-20 -7 -11 -13 -20 -29 -20 -37 0 -8 -8 -14 -18 -14 -10 0 -25 -13 -35 -29
-21 -35 -21 -48 -3 -48 8 0 17 15 21 35 5 29 9 33 28 28 12 -3 28 -6 36 -6 9
0 11 -8 7 -25 -7 -29 10 -34 29 -8 11 15 14 14 27 -13 16 -31 16 -60 -1 -77
-6 -6 -11 -19 -11 -29 0 -23 -3 -22 -68 2 -29 11 -58 18 -63 14 -5 -3 -9 -2
-8 3 4 18 -21 60 -55 92 -33 32 -53 40 -23 9 24 -25 57 -85 57 -106 0 -11 7
-27 15 -35 8 -8 11 -17 8 -21 -8 -8 -43 24 -43 39 0 7 -7 18 -15 25 -12 10
-15 10 -15 -1 0 -7 -15 4 -34 24 -38 42 -46 45 -41 17 5 -25 0 -25 -43 2 -30
18 -35 19 -29 5 4 -11 1 -17 -9 -17 -27 0 -101 -39 -131 -68 -16 -16 -37 -48
-47 -70 -10 -22 -25 -43 -34 -47 -13 -5 -14 3 -8 51 3 31 11 65 17 76 6 10 8
24 6 31 -10 30 -39 -99 -38 -171 0 -94 11 -136 36 -141 15 -3 17 0 9 10 -21
27 -24 86 -5 108 10 11 21 18 24 15 3 -4 9 7 13 22 10 45 60 117 99 143 29 20
44 23 95 19 50 -4 70 -11 116 -44 70 -49 120 -128 136 -212 8 -42 16 -62 26
-62 22 0 7 93 -26 160 -14 30 -25 58 -24 63 1 4 -3 7 -8 7 -6 0 -10 9 -10 20
0 11 -4 20 -10 20 -5 0 -10 6 -10 13 1 6 10 1 21 -12 11 -13 22 -21 26 -17 3
3 15 -1 25 -11 17 -15 18 -15 18 2 0 14 3 16 12 7 7 -7 17 -8 29 -1 10 5 24 8
31 7 6 -2 12 4 13 12 0 9 8 14 20 12 24 -5 36 -21 30 -42 -2 -8 -6 -58 -9
-110 -5 -70 -3 -89 4 -71 6 14 13 59 16 100 3 42 8 78 10 80 2 2 16 4 32 5 16
1 29 7 29 13 0 7 -3 11 -5 8 -3 -3 -11 0 -19 6 -16 14 -17 66 -1 71 9 3 8 12
-5 31 -10 15 -13 27 -7 27 5 0 10 -4 10 -10 0 -5 7 -10 15 -10 24 0 53 -31 48
-50 -3 -10 0 -21 6 -24 17 -11 13 -26 -4 -20 -8 4 -15 1 -15 -5 0 -6 4 -11 10
-11 5 0 7 -7 3 -15 -3 -10 0 -15 8 -13 8 2 14 -5 14 -17 0 -12 11 -25 28 -33
15 -7 27 -18 27 -24 0 -6 -6 -5 -16 3 -12 9 -10 3 5 -24 14 -25 17 -37 8 -37
-6 -1 7 -18 31 -39 23 -21 42 -41 42 -44 0 -3 -10 -8 -22 -10 -13 -3 -1 -3 25
-2 26 1 50 4 52 7 3 3 -22 26 -55 52 -62 47 -83 77 -62 84 7 2 10 8 6 13 -3 5
6 9 20 9 19 0 26 -5 26 -20 0 -11 -5 -20 -11 -20 -6 0 -8 7 -5 16 6 14 4 15
-9 4 -14 -12 -13 -16 12 -36 22 -18 29 -19 31 -8 6 23 37 12 40 -15 3 -15 0
-21 -8 -16 -6 4 -9 14 -6 22 3 8 1 11 -4 8 -17 -11 -11 -33 11 -40 11 -4 24
-16 29 -28 8 -20 9 -20 9 7 1 24 4 27 23 23 25 -7 81 19 73 33 -4 6 -2 10 3
10 6 0 13 8 16 17 6 15 5 15 -13 -1 -11 -10 -19 -22 -16 -26 2 -4 -6 -12 -18
-17 -25 -12 -57 4 -57 27 0 10 4 9 17 -1 25 -20 -18 40 -50 69 -18 17 -27 20
-32 11 -5 -7 -4 -10 2 -6 11 7 36 -16 28 -25 -3 -3 1 -11 10 -18 8 -7 15 -19
15 -27 0 -12 -3 -12 -16 1 -8 9 -19 16 -24 16 -5 0 -7 9 -5 21 3 16 1 18 -8
10 -10 -8 -18 -3 -31 20 -10 17 -20 28 -23 25 -8 -8 -32 27 -26 37 3 5 19 -4
36 -20 l31 -28 -27 37 c-15 20 -26 43 -25 50 2 7 -2 12 -8 11 -7 -1 -10 6 -7
16 3 11 -4 28 -17 41 -17 17 -20 31 -18 68 2 26 8 46 13 45 6 -1 9 15 8 35 -1
22 5 44 14 55 9 9 11 17 5 17 -6 0 -16 -8 -21 -17 -9 -16 -10 -16 -11 4 0 31
10 53 26 53 7 0 18 8 23 18 14 27 71 18 64 -9 -5 -17 5 -24 30 -20 9 1 8 -8
-3 -34 -8 -19 -9 -19 -9 -1 -1 15 -4 16 -16 6 -11 -9 -12 -17 -4 -31 10 -19 7
-89 -6 -108 -4 -7 1 -8 12 -4 12 4 10 -1 -7 -15 -15 -13 -19 -21 -11 -22 8 0
11 -6 7 -16 -5 -14 -4 -15 9 -4 14 12 15 9 12 -23 -2 -21 0 -37 4 -37 5 0 9 5
9 10 0 6 5 10 11 10 6 0 8 -9 4 -20 -5 -14 -2 -20 10 -20 10 0 13 -5 9 -12 -6
-10 -4 -10 7 -2 8 6 21 14 29 18 8 3 5 4 -8 2 -19 -4 -22 -1 -16 16 4 14 2 18
-5 14 -6 -4 -11 0 -11 9 0 9 -4 13 -10 10 -5 -3 -10 -1 -10 4 0 6 4 11 10 11
11 0 1 32 -14 42 -7 5 -7 8 2 8 6 0 12 5 12 11 0 5 -4 7 -10 4 -5 -3 -10 -1
-10 4 0 6 5 11 11 11 5 0 7 5 4 10 -3 6 -1 10 6 10 8 0 8 4 1 13 -6 7 -9 30
-5 52 3 22 5 48 5 57 -1 18 21 20 45 5 6 -4 14 -1 16 5 4 9 6 10 6 1 1 -7 11
-10 26 -7 14 2 25 0 25 -5 0 -5 8 -8 18 -7 9 2 21 -2 25 -8 6 -7 7 -6 5 4 -6
20 -62 39 -120 39 -26 1 -49 4 -51 8 -9 15 12 53 28 53 9 0 13 5 10 10 -3 6
-1 10 4 10 6 0 11 -4 11 -10 0 -5 11 -10 25 -10 16 0 25 6 25 16 0 14 7 16 45
11 l45 -7 0 55 c0 30 -6 74 -14 97 -9 26 -17 102 -20 188 -2 80 -2 132 1 115
2 -16 9 -35 15 -42 5 -7 6 -17 2 -24 -4 -7 -2 -10 7 -7 8 2 15 18 17 34 2 22
0 26 -7 14 -8 -12 -11 -9 -11 15 0 23 3 27 10 15 7 -11 10 -7 10 17 0 17 -5
35 -12 39 -7 4 -8 3 -4 -4 4 -7 4 -12 -1 -13 -4 0 -16 -2 -25 -4 -9 -2 -19 3
-22 11 -3 9 -22 14 -53 15 l-48 1 50 9 c28 4 54 4 60 -1 17 -14 81 28 66 43
-8 8 -19 8 -44 -2 -17 -7 -47 -16 -64 -18 -43 -7 -162 14 -192 34 -19 12 -25
13 -32 2 -7 -12 -10 -12 -21 0 -11 11 -11 14 0 18 10 4 8 11 -9 29 -16 17 -19
28 -12 35 7 7 14 4 24 -7 12 -16 12 -17 -1 -9 -13 8 -13 7 -1 -8 15 -18 26
-23 16 -7 -9 15 8 12 31 -5 10 -8 26 -14 34 -14 10 0 9 3 -5 11 -11 6 -37 27
-57 46 -43 41 -50 67 -16 56 20 -6 21 -5 9 10 -7 9 -9 16 -3 16 5 0 15 -7 22
-15 10 -12 10 -15 -1 -15 -10 0 -10 -3 -1 -12 20 -20 13 -32 -8 -13 -11 10
-20 13 -20 7 0 -26 152 -100 182 -89 7 2 -12 11 -42 21 -67 20 -114 45 -87 46
17 0 17 1 2 16 -25 25 -12 26 36 4 24 -11 38 -20 30 -20 -8 0 -11 -3 -7 -7 4
-5 55 -8 112 -8 57 0 104 3 104 8 0 4 7 7 15 7 8 0 15 9 15 19 0 11 2 26 5 33
3 8 -5 26 -17 39 -22 24 -31 25 -135 28 -86 2 -118 -1 -142 -14 -42 -21 -39
-27 4 -9 70 29 247 7 262 -33 3 -8 -5 -25 -18 -38 l-24 -23 -60 19 c-33 10
-85 19 -116 19 -45 0 -60 4 -77 23 -24 26 -28 52 -10 63 7 5 8 3 3 -6 -5 -9
-3 -11 6 -6 8 3 22 9 32 12 9 4 17 11 17 16 0 10 153 3 173 -8 9 -5 9 -4 1 5
-25 28 -146 39 -211 20z m162 -150 c13 -6 1 -6 -30 -3 -27 4 -57 11 -65 16
-18 11 65 0 95 -13z m-265 -741 c0 -13 -8 -18 -25 -18 -14 0 -25 4 -25 10 0 5
-7 7 -16 3 -21 -8 1 -23 36 -23 20 0 22 -2 10 -10 -8 -5 -22 -7 -31 -4 -16 4
-18 0 -34 -58 -2 -5 -3 -15 -4 -23 0 -8 -5 -15 -11 -15 -13 0 -13 37 0 45 6 4
8 11 5 16 -4 5 -1 9 6 9 7 0 9 3 6 7 -4 3 -2 12 4 20 9 9 8 13 0 13 -6 0 -19
-13 -30 -30 -10 -16 -21 -27 -26 -22 -5 4 -5 2 -2 -5 4 -6 2 -24 -3 -39 -6
-15 -7 -30 -2 -33 11 -8 23 -41 14 -40 -34 5 -44 -19 -17 -41 19 -15 19 -31 1
-55 -12 -17 -15 -13 -34 46 l-20 64 -1 -49 c-1 -59 -10 -55 -23 11 -6 26 -13
65 -18 85 -6 31 -4 41 15 58 22 21 41 27 30 10 -15 -25 14 -6 50 31 45 47 66
57 113 56 24 -1 32 -5 32 -19z m-39 -81 c-17 -17 -13 -33 9 -34 20 -2 28 13
10 19 -6 2 -6 8 0 18 8 13 11 11 16 -7 3 -12 13 -24 21 -27 12 -5 11 -13 -10
-50 -14 -25 -22 -48 -19 -51 4 -3 7 -21 9 -39 1 -18 15 -56 32 -85 17 -28 31
-53 31 -54 0 -2 -10 -3 -21 -4 -12 -1 -19 0 -16 3 9 9 -14 64 -24 58 -5 -3 -9
8 -9 25 0 32 -15 50 -23 29 -3 -8 -6 -5 -6 6 -1 10 7 25 17 33 9 7 13 13 7 12
-22 -3 -49 3 -37 8 6 2 10 9 6 14 -3 5 0 9 6 9 7 0 9 8 5 19 -3 11 -1 22 5 26
13 8 3 25 -14 25 -8 0 -12 -10 -11 -22 1 -13 0 -15 -2 -5 -2 9 -9 15 -14 12
-5 -4 -9 -1 -9 4 0 6 5 11 10 11 6 0 10 7 10 15 0 8 -5 15 -12 15 -6 0 -3 8 8
19 10 10 23 16 27 14 5 -3 4 -10 -2 -16z m-49 -73 c3 -3 4 -14 1 -24 -4 -17
-7 -17 -19 -5 -8 7 -14 18 -14 24 0 11 23 15 32 5z m13 -54 c-16 -17 -15 -19
5 -30 17 -9 19 -15 10 -23 -9 -9 -14 -8 -23 4 -7 9 -18 14 -24 12 -8 -3 -13 4
-13 16 0 12 6 21 15 21 9 0 18 7 21 15 4 8 10 12 16 9 5 -3 2 -14 -7 -24z
m-94 -99 c0 -3 3 -19 5 -34 4 -23 2 -28 -13 -25 -24 4 -32 65 -9 65 9 0 16 -3
17 -6z m319 -323 c0 -17 -18 -6 -51 29 l-34 36 42 -29 c24 -16 43 -32 43 -36z"/>
<path d="M1733 563 c-19 -4 -23 -11 -23 -38 0 -51 16 -51 32 0 9 25 15 44 14
44 0 -1 -11 -4 -23 -6z"/>
<path d="M0 1505 c0 -9 9 -15 23 -15 12 0 44 -7 71 -15 67 -21 196 -20 196 0
0 12 -14 15 -62 15 -35 0 -85 7 -112 15 -65 20 -116 20 -116 0z"/>
<path d="M1132 1482 c-15 -50 -15 -52 3 -52 9 0 20 -12 26 -27 7 -16 15 -37
20 -48 14 -35 18 -85 8 -115 -9 -23 -17 -29 -52 -33 -23 -3 -54 -8 -69 -12
-23 -6 -28 -4 -28 11 -1 14 -28 -46 -30 -63 0 -1 25 7 55 18 30 10 69 19 87
19 32 -1 106 -28 80 -29 -7 -1 3 -15 22 -32 19 -16 38 -39 41 -50 4 -11 10
-17 14 -15 10 7 -5 -87 -18 -112 -14 -27 -82 -85 -90 -77 -3 4 2 12 12 19 9 7
17 21 17 31 0 16 -3 16 -25 -5 -16 -15 -23 -30 -19 -42 3 -12 0 -18 -10 -18
-9 0 -16 5 -16 10 0 6 -4 10 -10 10 -5 0 -7 -7 -4 -15 9 -22 -61 -19 -114 5
l-43 19 16 32 c9 17 18 41 21 52 7 40 88 85 154 86 19 0 54 -8 77 -18 32 -15
41 -16 36 -5 -3 8 -9 14 -15 14 -5 0 -7 4 -4 8 5 9 -5 11 -94 18 -55 4 -71 1
-105 -18 -22 -13 -49 -38 -61 -56 -14 -20 -24 -27 -27 -20 -2 7 -2 -8 1 -34 2
-27 2 -48 -1 -48 -3 0 -14 16 -23 35 -15 32 -15 41 -2 95 11 47 12 57 1 49 -7
-6 -11 -15 -8 -19 3 -5 0 -10 -5 -12 -6 -2 -15 -23 -21 -47 -10 -45 -4 -85 12
-76 5 4 9 -1 9 -9 0 -9 5 -16 10 -16 6 0 10 -6 10 -14 0 -13 27 -31 43 -28 4
1 6 -3 5 -9 -3 -12 54 -37 88 -38 12 -1 25 -8 28 -17 4 -9 9 -15 11 -12 13 13
-10 38 -34 38 -14 1 -39 7 -56 15 -16 8 -21 13 -10 11 11 -3 35 -7 53 -11 57
-12 125 19 183 83 29 31 47 48 41 36 -8 -14 -8 -24 -1 -31 8 -8 7 -13 0 -17
-6 -4 -11 0 -11 10 0 13 -3 14 -15 4 -8 -6 -13 -17 -12 -23 1 -6 -5 -11 -13
-12 -8 0 -14 -6 -13 -12 1 -6 -18 -20 -42 -30 -29 -11 -45 -24 -45 -35 0 -10
5 -18 11 -18 6 0 9 5 7 12 -3 7 16 22 41 34 25 11 52 28 60 37 18 23 26 21 39
-5 10 -20 11 -20 9 -3 -1 12 5 21 16 23 17 3 22 -11 19 -51 -1 -12 2 -16 10
-11 8 5 9 2 5 -10 -14 -35 -53 -75 -98 -100 -52 -29 -59 -31 -59 -16 0 6 4 10
9 10 13 0 83 42 78 46 -2 3 -26 -8 -52 -22 -39 -22 -61 -27 -119 -28 -60 0
-78 4 -118 28 -27 15 -51 32 -54 38 -4 6 6 2 22 -8 l29 -18 -19 22 c-11 12
-25 22 -33 22 -7 0 -13 5 -13 12 0 6 -3 9 -6 5 -9 -9 33 -74 52 -81 10 -4 14
-12 10 -23 -4 -10 -4 -14 0 -10 4 4 16 0 26 -10 24 -22 116 -29 176 -13 73 20
148 66 162 100 7 16 16 27 21 24 5 -3 5 6 -1 20 -5 14 -6 26 -2 26 4 0 8 19 9
43 l2 42 -14 -35 c-12 -32 -14 -33 -16 -10 -1 14 -1 44 0 66 3 40 -11 65 -24
44 -3 -5 -1 -10 5 -10 8 0 9 -11 5 -32 -9 -39 -14 -46 -23 -31 -10 16 -2 104
9 97 5 -3 9 -1 9 5 0 15 -22 61 -30 61 -4 0 -12 11 -18 25 -7 14 -23 30 -37
37 -16 7 -25 19 -25 34 0 17 -4 22 -15 18 -12 -5 -15 6 -15 66 0 54 -8 95 -31
164 -16 50 -34 95 -38 99 -4 4 -13 -10 -19 -31z"/>
<path d="M2190 1470 c-12 -8 -10 -10 10 -10 14 0 37 -7 53 -14 15 -8 27 -11
27 -6 0 9 -52 40 -67 40 -4 0 -15 -5 -23 -10z"/>
<path d="M782 1433 c-38 -18 -64 -53 -81 -105 -7 -21 -19 -38 -27 -38 -8 0
-14 -4 -14 -9 0 -4 11 -6 24 -4 18 4 26 13 30 37 10 50 60 104 114 120 41 13
43 15 17 15 -16 0 -45 -7 -63 -16z"/>
<path d="M95 1390 c-14 -6 -4 -9 38 -9 38 -1 64 -6 73 -16 17 -17 44 -20 44
-6 0 5 3 16 6 25 5 14 -4 16 -67 15 -41 0 -83 -4 -94 -9z"/>
<path d="M1015 1350 c3 -19 10 -55 15 -80 9 -43 9 -42 7 22 -2 39 -8 73 -16
80 -10 11 -11 6 -6 -22z"/>
<path d="M2234 1356 c-5 -14 -14 -16 -41 -11 -24 4 -33 3 -28 -4 9 -16 61 -13
75 4 7 9 10 18 7 22 -4 3 -10 -2 -13 -11z"/>
<path d="M2788 1363 c-9 -2 -19 -15 -22 -29 -5 -19 -13 -24 -39 -24 -18 0 -38
5 -45 12 -8 8 -15 9 -22 2 -7 -7 -33 -7 -73 -2 -34 4 -75 4 -92 1 -16 -4 -34
-7 -39 -7 -5 -1 -11 -5 -13 -11 -2 -6 32 -10 89 -10 51 0 124 -3 161 -7 46 -4
71 -2 78 6 65 81 65 82 17 69z"/>
<path d="M2260 1327 c-34 -10 -34 -10 -10 -17 19 -6 10 -9 -35 -10 -33 -1 -67
-2 -75 -1 -10 1 -9 -2 4 -10 31 -19 125 -4 153 24 26 26 18 29 -37 14z"/>
<path d="M0 1271 c0 -12 51 -20 150 -22 95 -2 119 12 38 23 -80 9 -188 9 -188
-1z"/>
<path d="M659 1222 c-13 -33 -13 -32 34 -32 64 0 166 -28 224 -60 l52 -30 11
38 c15 57 13 72 -12 72 -13 0 -54 8 -93 16 -38 9 -101 17 -139 18 -63 1 -69
-1 -77 -22z"/>
<path d="M2428 1245 c-2 -3 -3 -19 0 -35 3 -25 7 -28 18 -19 18 15 18 59 1 59
-8 0 -16 -2 -19 -5z"/>
<path d="M413 1230 c-39 -9 -63 -27 -63 -47 0 -8 -4 -12 -8 -9 -5 3 -9 -8 -9
-24 l0 -28 59 51 c32 28 58 55 58 59 0 5 -1 8 -2 7 -2 -1 -18 -5 -35 -9z"/>
<path d="M517 1222 c-10 -10 -17 -22 -17 -25 0 -13 85 -7 103 7 25 19 23 40
-3 24 -16 -10 -24 -10 -40 0 -25 15 -24 15 -43 -6z"/>
<path d="M561 1155 c-24 -7 -47 -18 -50 -23 -3 -4 -32 -23 -63 -41 -53 -30
-98 -75 -98 -99 0 -6 9 -14 20 -17 16 -5 32 4 66 35 52 48 108 74 194 91 76
15 166 1 248 -38 44 -21 56 -23 63 -12 5 8 9 19 9 25 0 15 -127 72 -175 78
-116 14 -172 14 -214 1z m94 -20 c-90 -17 -159 -43 -221 -85 l-49 -33 30 32
c57 62 156 99 265 99 40 0 38 -2 -25 -13z"/>
<path d="M415 1142 c-39 -24 -58 -48 -50 -62 5 -8 14 -5 29 9 11 11 41 31 66
45 44 25 44 26 15 26 -16 0 -43 -8 -60 -18z"/>
<path d="M1075 1121 c-47 -22 -89 -64 -82 -83 4 -9 6 -8 6 4 1 20 54 66 86 74
13 3 32 1 42 -4 15 -9 19 -7 20 9 2 24 -20 24 -72 0z"/>
<path d="M1207 1124 c33 -12 41 -19 38 -36 -3 -11 -1 -18 2 -14 18 18 9 39
-22 52 -19 8 -40 14 -47 13 -7 0 6 -7 29 -15z"/>
<path d="M0 1117 c0 -17 24 -25 111 -34 61 -6 61 -6 50 15 -8 15 -21 22 -40
22 -15 0 -49 3 -75 6 -37 6 -46 4 -46 -9z"/>
<path d="M2376 1091 c-29 -30 -34 -39 -19 -35 14 4 26 -1 36 -16 l15 -22 24
36 c14 21 29 34 38 31 31 -8 85 -9 88 0 2 5 -23 15 -55 21 -32 7 -65 15 -73
18 -10 4 -29 -8 -54 -33z"/>
<path d="M2580 1120 c0 -5 12 -13 28 -16 36 -9 52 -23 52 -46 0 -10 4 -17 9
-14 14 9 0 56 -22 71 -24 17 -67 20 -67 5z"/>
<path d="M207 1094 c-15 -15 -6 -22 33 -26 32 -3 40 0 38 12 -3 16 -58 27 -71
14z"/>
<path d="M1054 1081 c-39 -24 -58 -49 -23 -30 13 7 25 12 27 11 8 -6 22 0 17
7 -3 6 3 14 12 20 10 6 14 11 8 11 -5 0 -24 -9 -41 -19z"/>
<path d="M148 1035 c-2 -2 -21 -5 -42 -7 -78 -5 -42 -15 52 -14 53 1 109 -2
125 -7 16 -4 27 -3 27 3 0 5 -10 12 -22 14 -38 8 -135 16 -140 11z"/>
<path d="M578 1026 c-31 -23 -68 -85 -56 -92 7 -5 8 -2 3 7 -5 8 -4 11 0 6 13
-11 13 -60 1 -75 -7 -10 -5 -17 7 -24 10 -5 14 -15 11 -21 -4 -7 -3 -9 1 -4
15 13 65 -45 99 -118 18 -39 42 -77 52 -85 16 -13 15 -11 -2 15 -20 29 -54 94
-54 102 0 2 9 -2 20 -10 18 -13 25 -12 58 4 40 21 77 25 66 8 -3 -6 -25 -19
-49 -29 -44 -19 -62 -36 -50 -48 3 -4 11 1 16 11 6 10 22 17 38 17 31 0 66 22
66 42 1 7 9 32 19 56 19 43 48 57 60 27 3 -8 11 -15 17 -15 8 0 9 4 0 13 -6 8
-7 17 -3 21 4 4 -11 6 -33 4 -32 -2 -43 -9 -55 -32 -9 -17 -30 -35 -53 -44
-47 -18 -87 -4 -134 48 -35 38 -44 61 -15 39 14 -11 14 -10 -2 8 -10 13 -22
21 -25 18 -4 -2 -13 5 -20 17 -7 11 -8 17 -2 13 6 -3 11 -1 11 5 0 6 5 8 10 5
6 -3 5 6 -2 20 -11 24 -10 29 7 42 33 23 62 26 89 8 36 -24 33 -40 -16 -67
-23 -13 -43 -29 -44 -36 -1 -7 0 -8 3 -2 7 15 63 42 63 31 0 -6 -9 -15 -20
-21 -11 -6 -20 -16 -20 -22 0 -7 4 -7 13 -1 25 20 65 24 81 7 9 -8 16 -20 16
-26 0 -15 25 -3 26 13 1 27 16 48 30 42 8 -3 12 -9 9 -13 -3 -5 3 -6 14 -3 10
3 33 -3 51 -12 31 -16 32 -16 28 7 -2 17 -10 23 -28 23 -44 1 -113 28 -117 46
-3 10 -26 34 -51 53 -49 39 -101 47 -134 22z m76 -5 c3 -5 -10 -12 -29 -15
-19 -4 -43 -18 -55 -33 -14 -18 -20 -21 -20 -10 0 9 15 27 33 41 33 26 61 33
71 17z m90 -74 c20 -26 36 -49 36 -52 0 -12 -38 -3 -65 16 l-30 21 33 -6 33
-6 -26 34 c-14 18 -25 37 -25 41 0 10 0 10 44 -48z"/>
<path d="M1123 1013 c-24 -8 -43 -21 -43 -29 0 -12 4 -13 21 -3 16 8 23 8 29
0 5 -9 10 -8 20 3 7 9 17 13 22 10 6 -4 14 -1 18 7 7 10 12 10 27 -1 16 -13
16 -12 -1 8 -22 25 -35 26 -93 5z"/>
<path d="M1605 1015 c-22 -8 -67 -15 -100 -16 l-60 -1 50 -13 c28 -7 76 -24
109 -39 70 -31 76 -32 46 -6 -13 11 -32 20 -42 20 -12 0 -16 4 -12 12 5 8 0 9
-14 6 -12 -4 -22 -3 -22 1 0 6 79 31 99 31 5 0 16 -6 23 -14 8 -7 25 -17 38
-21 21 -7 22 -6 10 6 -20 19 -68 49 -77 49 -4 -1 -26 -7 -48 -15z"/>
<path d="M478 981 c-27 -25 -39 -43 -33 -48 6 -5 27 9 51 34 54 55 38 67 -18
14z"/>
<path d="M2970 1000 c-8 -5 -25 -10 -37 -10 -15 0 -21 -5 -17 -14 4 -12 -29
-28 -51 -26 -9 1 -65 -61 -65 -71 0 -16 10 -10 41 26 32 37 94 60 136 52 20
-4 23 0 23 24 0 31 -6 35 -30 19z"/>
<path d="M2333 976 c4 -10 7 -31 7 -47 0 -17 4 -28 8 -25 14 9 8 79 -7 84 -10
3 -12 -1 -8 -12z"/>
<path d="M1476 952 c4 -9 8 -28 10 -42 1 -14 3 -28 3 -32 1 -5 6 -8 12 -8 6 0
7 6 2 13 -4 6 5 4 20 -5 32 -22 44 -22 63 -3 14 13 12 15 -15 15 -26 0 -71 28
-71 45 0 10 28 5 32 -7 3 -8 9 -8 21 -2 14 8 8 13 -34 26 -47 16 -50 16 -43 0z"/>
<path d="M607 954 c-16 -16 -6 -31 18 -26 25 4 46 22 26 22 -5 0 -16 2 -23 5
-8 3 -17 2 -21 -1z"/>
<path d="M1145 939 c-6 -17 -9 -19 -17 -8 -8 12 -9 12 -6 0 6 -20 28 -26 28
-8 0 10 18 18 58 25 l57 9 -57 2 c-50 1 -57 -2 -63 -20z"/>
<path d="M2660 892 c0 -50 4 -73 15 -82 14 -11 14 -15 0 -37 -22 -33 -16 -68
12 -68 11 0 24 -3 28 -7 9 -9 25 -1 25 13 0 6 -3 8 -8 5 -4 -2 -16 2 -27 10
-16 12 -17 14 -2 14 19 0 22 11 7 26 -6 6 -13 34 -15 62 -2 28 -8 59 -13 68
-5 9 -7 25 -5 34 3 10 0 21 -6 24 -8 5 -11 -15 -11 -62z"/>
<path d="M0 940 c0 -5 8 -10 18 -10 35 0 124 -51 180 -102 l57 -52 -54 56
c-53 56 -121 100 -173 112 -17 4 -28 2 -28 -4z"/>
<path d="M1049 931 c6 -10 8 -21 5 -24 -8 -7 15 -47 26 -47 17 0 11 56 -8 73
-25 22 -35 21 -23 -2z"/>
<path d="M2888 924 c-30 -16 -68 -80 -68 -114 0 -11 21 -44 48 -73 33 -36 39
-46 20 -34 -33 21 -33 21 -52 2 -13 -14 -16 -13 -26 6 -9 15 -9 24 -1 32 13
13 15 47 3 47 -17 0 -32 -25 -32 -53 0 -34 44 -99 82 -121 41 -25 41 -19 0 18
-34 32 -36 36 -21 51 15 16 19 16 49 0 18 -10 29 -12 25 -5 -5 9 -1 10 15 5
18 -6 15 0 -14 25 -25 22 -36 39 -33 52 3 10 -3 29 -14 42 -20 26 -25 71 -9
81 6 4 10 -6 10 -24 0 -17 11 -42 26 -60 14 -17 21 -31 15 -31 -23 0 24 -57
56 -67 18 -5 33 -9 33 -8 0 1 -18 22 -41 46 -50 54 -79 98 -79 122 0 21 37 37
86 37 19 0 34 4 34 10 0 5 -10 9 -22 7 -14 -1 -22 3 -20 11 3 16 -37 15 -70
-4z"/>
<path d="M1432 900 c0 -19 -5 -48 -11 -63 -15 -39 -13 -47 4 -17 11 20 14 21
15 7 0 -10 4 -16 10 -12 5 3 6 13 3 21 -3 9 -2 19 4 23 5 3 2 20 -8 41 l-17
35 0 -35z"/>
<path d="M0 891 l0 -28 34 16 c39 19 39 19 -3 31 -29 8 -31 7 -31 -19z"/>
<path d="M1610 891 c0 -6 6 -11 14 -11 24 0 28 -18 15 -55 -9 -24 -16 -31 -22
-22 -5 7 -6 3 -2 -11 5 -16 1 -30 -13 -45 -26 -30 -42 -61 -42 -87 0 -11 -14
-35 -32 -52 -32 -32 -47 -68 -27 -68 5 0 8 4 4 9 -3 5 8 18 25 27 16 10 30 23
31 29 1 5 5 -1 10 -15 7 -21 8 -18 4 13 -6 57 11 97 43 97 24 1 25 2 10 13
-12 10 -14 17 -6 32 23 41 44 111 39 130 -6 21 -51 35 -51 16z"/>
<path d="M49 848 c-23 -18 -45 -40 -47 -48 -3 -10 4 -7 20 7 33 31 82 47 104
35 15 -8 12 -13 -24 -31 -55 -28 -102 -80 -101 -111 0 -17 2 -20 7 -10 23 51
89 103 146 116 l40 9 -44 33 c-24 17 -47 32 -51 32 -4 0 -27 -15 -50 -32z"/>
<path d="M2918 869 c-10 -5 -18 -19 -18 -29 0 -15 7 -20 28 -20 15 0 37 -3 50
-6 19 -5 22 -2 22 20 0 14 -6 26 -12 26 -9 0 -8 4 2 10 21 14 -49 13 -72 -1z"/>
<path d="M954 829 c0 -10 4 -15 8 -13 5 3 11 -2 14 -11 9 -23 83 -63 131 -71
59 -9 136 12 173 48 38 36 33 48 -8 18 -50 -37 -141 -50 -213 -30 -20 6 -52
25 -70 43 -27 27 -35 30 -35 16z"/>
<path d="M2782 834 c-12 -8 -22 -25 -22 -37 0 -18 3 -16 25 13 34 46 33 50 -3
24z"/>
<path d="M1320 795 c-19 -19 -29 -35 -24 -35 13 0 69 58 63 65 -3 2 -21 -11
-39 -30z"/>
<path d="M282 719 c33 -52 52 -119 38 -133 -5 -5 -3 -21 7 -39 23 -46 28 -180
10 -251 -11 -41 -13 -64 -6 -75 8 -12 8 -10 3 8 -4 18 -3 22 7 16 9 -6 11 -3
6 10 -4 9 -2 24 5 33 9 10 13 52 12 136 0 110 -3 130 -34 219 -18 55 -39 101
-47 104 -7 3 -11 8 -8 12 2 4 -2 8 -9 8 -9 0 -3 -17 16 -48z"/>
<path d="M920 758 c0 -10 5 -18 10 -18 15 0 11 -43 -6 -65 -15 -19 -16 -19
-12 10 3 17 3 24 1 18 -3 -7 -8 -13 -12 -13 -8 0 -22 -44 -26 -83 -2 -16 0
-16 19 3 12 11 26 20 31 20 9 0 34 31 35 44 0 5 -7 3 -15 -4 -8 -7 -15 -8 -15
-2 0 5 7 15 15 22 20 16 19 30 -5 60 -16 20 -20 22 -20 8z"/>
<path d="M1475 752 c-7 -20 20 -42 52 -42 28 0 30 16 3 25 -11 3 -20 11 -20
18 0 8 3 8 12 -1 15 -15 31 -16 26 0 -7 19 -65 19 -73 0z"/>
<path d="M1943 736 c-46 -16 -48 -23 -8 -30 19 -4 33 -11 30 -16 -3 -5 7 -7
22 -5 16 2 34 4 41 4 7 1 10 6 7 11 -3 6 -16 8 -28 5 -13 -4 -30 1 -42 10 -19
16 -18 16 18 11 20 -2 37 -1 37 3 0 14 -44 18 -77 7z"/>
<path d="M96 696 c-20 -18 -43 -49 -51 -69 -17 -41 -20 -133 -5 -171 11 -31
-17 -106 -32 -84 -5 9 -8 5 -8 -11 0 -18 3 -21 13 -12 8 6 18 7 22 3 5 -4 5
-1 1 6 -5 7 -2 21 7 30 14 17 37 75 37 95 0 6 -7 2 -15 -9 -13 -17 -14 -13
-14 46 -1 84 24 139 80 179 33 24 38 31 21 31 -11 0 -37 -15 -56 -34z"/>
<path d="M600 729 c0 -3 7 -29 16 -58 8 -29 15 -76 14 -104 -2 -71 -1 -77 10
-77 15 0 12 88 -5 154 -14 51 -34 101 -35 85z"/>
<path d="M861 688 c-8 -28 -24 -51 -46 -68 -37 -28 -36 -40 1 -40 19 0 24 5
24 25 0 14 4 25 9 25 10 0 36 88 29 96 -3 2 -11 -15 -17 -38z"/>
<path d="M2314 705 c3 -9 0 -15 -10 -15 -8 0 -17 -7 -20 -15 -4 -8 -11 -15
-16 -15 -6 0 -8 6 -5 14 6 14 -26 29 -37 18 -16 -16 -1 -32 42 -45 75 -24 93
-27 85 -14 -4 7 0 6 10 -1 9 -8 21 -11 28 -7 8 6 7 10 -2 16 -11 7 -10 9 5 9
13 0 17 -5 14 -18 -3 -11 4 -25 20 -36 24 -18 24 -18 17 4 -5 16 -4 21 6 18 8
-3 14 -13 14 -24 0 -19 36 -57 45 -48 2 3 -2 9 -10 14 -12 8 -10 10 8 10 18 0
22 -4 17 -19 -4 -15 0 -20 25 -23 16 -3 30 -1 30 4 0 5 10 6 23 3 15 -4 28 -1
36 9 9 11 10 16 2 16 -18 0 -12 39 9 60 12 12 26 18 32 14 6 -4 -1 9 -16 29
l-28 36 -23 -43 c-12 -23 -26 -57 -30 -74 -6 -31 -7 -32 -36 -17 -16 9 -29 20
-29 24 0 9 -39 32 -119 71 -44 21 -52 19 -64 -15 -2 -6 -13 -5 -28 3 -21 10
-21 11 -2 7 12 -3 24 -1 28 5 3 5 0 10 -7 10 -10 0 -10 2 1 9 15 10 8 41 -10
41 -6 0 -9 -7 -5 -15z"/>
<path d="M177 637 c-6 -79 -66 -254 -110 -319 -13 -18 -33 -60 -45 -93 -27
-70 -37 -57 108 -143 52 -30 102 -62 111 -69 23 -19 39 -16 39 7 0 20 58 110
71 110 15 0 22 -23 21 -66 0 -39 3 -44 30 -53 46 -16 50 -14 23 14 -14 13 -25
36 -26 52 0 15 -4 37 -8 48 -12 30 7 50 26 28 13 -16 14 -12 9 34 -6 61 -3 64
84 91 58 17 239 48 249 43 2 -2 7 2 10 8 9 15 71 26 71 13 0 -5 25 -13 55 -17
l55 -6 0 -39 c0 -21 5 -42 11 -45 7 -5 9 3 7 21 -2 16 2 34 9 39 6 6 14 26 18
45 l7 35 -26 -24 c-14 -14 -26 -19 -26 -13 0 7 -9 12 -20 12 -11 0 -20 5 -20
11 0 5 -6 7 -12 3 -10 -6 -10 -4 0 7 20 22 14 29 -15 18 -20 -7 -29 -7 -31 1
-3 8 -9 7 -21 -3 -16 -14 -125 -37 -175 -37 -14 0 -26 -5 -26 -11 0 -7 -15 -9
-44 -6 -31 4 -46 2 -49 -7 -6 -16 -111 -66 -138 -66 -11 0 -22 -8 -26 -18 -14
-39 -94 -170 -118 -192 -34 -32 -32 -17 4 29 42 54 63 98 46 98 -7 0 -11 -7
-7 -15 3 -9 1 -13 -5 -9 -6 4 -17 -1 -24 -11 -13 -15 -12 -16 3 -3 22 16 24
-1 3 -19 -8 -7 -15 -9 -15 -5 0 4 -7 2 -15 -5 -8 -7 -13 -16 -10 -20 3 -4 -2
-13 -10 -20 -12 -10 -15 -10 -15 0 0 8 -3 10 -6 7 -4 -3 -15 -2 -26 4 -18 10
-16 14 25 58 49 52 77 99 77 129 0 10 6 24 13 30 17 18 17 210 -1 237 -11 17
-12 11 -5 -40 19 -151 -13 -260 -101 -345 -41 -39 -49 -43 -59 -30 -7 8 -22
14 -34 12 -19 -3 -23 1 -23 25 0 16 9 46 21 68 l21 40 -46 -50 c-54 -59 -61
-55 -10 6 42 50 69 101 79 149 7 29 9 32 15 15 6 -17 8 -15 14 10 15 61 91
213 114 227 l23 14 -40 37 c-64 57 -77 52 -84 -36z"/>
<path d="M2732 663 c-10 -16 -22 -40 -25 -54 -4 -14 -21 -43 -38 -65 -30 -38
-57 -50 -71 -29 -5 6 -11 6 -19 -2 -13 -13 -4 -33 16 -33 14 0 29 -29 20 -39
-3 -3 -10 1 -15 9 -8 13 -10 13 -10 -2 0 -13 -8 -15 -42 -11 -39 4 -41 3 -25
-11 11 -8 17 -24 16 -38 -2 -13 2 -32 8 -43 5 -11 9 -30 8 -42 -1 -12 2 -20 6
-17 10 6 23 -98 17 -131 -5 -26 6 -35 15 -12 3 6 6 3 6 -8 1 -15 3 -17 10 -6
10 16 32 6 25 -12 -2 -7 -13 -18 -24 -25 -17 -10 -18 -9 -13 6 3 9 -7 2 -23
-16 -16 -18 -42 -36 -59 -40 -16 -5 -25 -11 -20 -14 11 -6 92 29 119 51 12 10
20 11 24 4 5 -7 11 -6 20 3 10 12 10 14 -3 14 -19 0 -20 16 0 24 9 3 15 0 15
-10 0 -9 5 -12 13 -8 6 4 4 -1 -5 -12 -9 -10 -18 -23 -20 -29 -2 -5 -10 -8
-18 -7 -8 2 -19 5 -24 5 -5 1 -11 -4 -14 -12 -2 -8 0 -11 6 -7 6 3 14 1 18 -5
5 -8 -3 -10 -25 -7 -24 3 -31 1 -27 -9 3 -7 0 -13 -6 -13 -6 0 -9 -3 -6 -6 4
-3 22 -1 42 4 25 7 36 7 40 -1 3 -7 3 -2 1 9 -7 25 22 42 31 19 4 -8 11 -12
17 -8 6 4 8 0 4 -10 -8 -21 7 -22 27 -1 17 16 21 28 9 21 -14 -8 -53 12 -53
28 0 20 27 19 38 -1 7 -13 11 -14 17 -4 4 7 2 16 -5 20 -7 4 -9 13 -5 20 5 9
4 11 -3 6 -7 -4 -12 -2 -12 3 0 6 9 11 20 11 23 0 35 -36 27 -78 -5 -26 -4
-28 27 -24 24 3 32 9 32 23 0 16 -5 19 -23 14 -13 -3 -23 -1 -23 5 0 6 5 8 10
5 6 -4 10 5 10 19 0 26 14 35 25 16 3 -5 9 -29 13 -52 4 -23 14 -44 21 -46 11
-4 12 0 6 14 -13 31 -18 74 -9 74 5 0 26 -20 48 -45 40 -47 56 -55 56 -30 0 7
6 18 13 22 8 4 17 26 20 48 4 22 3 34 -2 27 -4 -7 -17 -15 -27 -16 -12 -2 -18
-10 -17 -24 2 -15 -2 -19 -17 -15 -11 3 -20 10 -20 17 0 12 -58 42 -75 39 -5
-2 -21 6 -35 17 l-25 20 28 0 c16 0 26 4 22 10 -7 12 -36 2 -52 -18 -7 -9 -16
-13 -19 -9 -4 4 -1 13 6 22 8 10 9 15 1 15 -6 0 -11 -4 -11 -10 0 -5 -4 -10
-10 -10 -18 0 -10 19 11 25 16 5 18 9 9 15 -7 5 -20 5 -29 2 -14 -5 -14 -4 -1
10 8 9 17 12 18 7 8 -21 22 -7 16 16 -3 14 -3 25 1 25 5 0 39 -33 78 -72 57
-60 66 -67 52 -38 -38 75 -81 113 -144 125 -9 2 -18 4 -20 4 -2 1 2 7 8 15 8
9 8 16 2 20 -19 12 -63 120 -63 155 -1 65 2 82 11 77 5 -3 21 13 36 37 16 23
39 53 52 66 26 26 23 42 -3 20 -15 -12 -16 -11 -10 9 10 30 1 28 -22 -5z m-92
-244 c0 -4 -6 -14 -13 -21 -12 -10 -11 -18 5 -45 l20 -33 -29 -24 c-30 -27
-43 -32 -43 -16 0 6 8 11 18 11 16 1 16 2 0 6 -16 4 -16 6 -2 20 9 9 12 22 8
32 -4 9 -8 30 -10 47 -3 28 0 32 22 32 13 0 24 -4 24 -9z m22 -29 c0 -11 1
-24 2 -30 1 -5 -3 -9 -8 -7 -12 3 -16 57 -5 57 5 0 10 -9 11 -20z m22 -125
c14 -13 26 -21 26 -17 0 4 8 8 19 8 11 0 17 -5 14 -13 -3 -7 -9 -10 -14 -7 -6
3 -17 0 -25 -7 -12 -10 -17 -8 -30 7 -14 18 -14 18 -12 -6 2 -18 8 -24 22 -22
11 2 17 -1 14 -10 -3 -7 -11 -13 -19 -13 -7 0 -15 -8 -17 -17 -2 -13 1 -16 12
-12 10 4 16 1 16 -7 0 -11 3 -11 10 1 8 13 10 12 10 -4 0 -12 -5 -16 -16 -12
-9 3 -27 9 -41 12 -22 6 -24 10 -19 43 4 20 7 51 7 69 2 38 8 40 43 7z"/>
<path d="M2490 670 c14 -4 39 -8 55 -8 25 -1 27 1 10 8 -11 5 -36 8 -55 8 -32
0 -33 -1 -10 -8z"/>
<path d="M127 595 c-25 -53 -39 -97 -41 -131 -2 -28 -15 -77 -29 -108 -14 -31
-24 -56 -22 -56 16 0 83 179 106 280 6 24 15 47 21 51 5 3 8 15 6 25 -2 12
-17 -9 -41 -61z"/>
<path d="M1250 630 c-19 -11 -42 -19 -50 -20 -16 0 -60 -96 -60 -130 0 -10 -4
-22 -10 -25 -15 -9 -12 -25 4 -19 8 3 16 14 19 24 3 13 18 20 50 25 26 4 54
13 64 21 16 12 15 13 -12 14 -17 0 -36 -5 -42 -11 -8 -8 -17 -7 -32 4 -21 14
-21 14 10 21 17 3 42 6 55 6 13 0 24 4 24 9 0 5 -17 7 -37 5 -34 -4 -35 -3
-13 6 13 6 36 10 50 8 23 -3 25 1 28 40 4 47 1 49 -48 22z"/>
<path d="M1407 623 c-4 -3 -7 -21 -7 -39 0 -27 3 -32 17 -27 18 7 13 -7 -15
-39 -18 -22 -6 -24 14 -3 19 18 48 20 39 3 -4 -7 1 -4 9 6 18 23 20 36 6 36
-6 0 -18 16 -27 35 -17 35 -24 41 -36 28z"/>
<path d="M670 613 c0 -15 42 -50 70 -58 l25 -7 -25 18 c-14 9 -35 26 -47 37
-13 11 -23 16 -23 10z"/>
<path d="M1090 595 c-5 -14 -7 -32 -3 -41 4 -10 -1 -17 -16 -21 -11 -3 -21 -9
-21 -15 0 -5 8 -5 19 1 16 9 17 7 13 -14 -2 -13 -12 -26 -21 -28 -9 -3 0 -5
19 -6 27 -1 31 -4 20 -11 -8 -5 -10 -10 -4 -10 19 0 22 11 12 47 -13 49 -3 80
35 103 l32 20 -38 0 c-31 0 -39 -4 -47 -25z"/>
<path d="M1004 602 c-14 -9 -37 -52 -31 -58 3 -3 15 9 27 26 22 31 24 45 4 32z"/>
<path d="M2358 603 c26 -10 10 -18 -33 -15 -28 3 -45 0 -45 -7 0 -12 5 -14 74
-16 50 -2 86 -27 86 -62 0 -8 5 -11 10 -8 6 4 8 16 4 27 -4 14 -2 18 5 14 6
-4 11 -2 11 3 0 6 -7 11 -16 11 -9 0 -32 14 -51 30 -18 17 -39 30 -46 29 -9 0
-9 -2 1 -6z"/>
<path d="M995 545 l-31 -34 23 -10 c19 -9 25 -7 37 12 42 67 22 89 -29 32z"/>
<path d="M946 562 c-4 -7 -11 -10 -16 -7 -4 3 -11 -2 -14 -11 -8 -22 -8 -24 8
-24 18 0 39 26 34 42 -3 9 -6 9 -12 0z"/>
<path d="M394 422 c-1 -65 2 -108 6 -97 10 27 12 202 3 208 -5 3 -9 -47 -9
-111z"/>
<path d="M1297 534 c-3 -4 -2 -15 4 -26 6 -11 13 -17 16 -14 4 3 13 0 21 -6
12 -10 14 -9 11 6 -4 21 -42 50 -52 40z"/>
<path d="M2282 525 c-13 -15 -5 -20 21 -16 5 1 6 -3 2 -9 -3 -6 -12 -7 -18 -4
-7 4 -9 4 -5 -1 4 -4 1 -20 -8 -36 -23 -45 -25 -88 -3 -99 25 -14 26 -13 21
20 -3 18 0 30 7 30 6 0 11 11 11 25 0 14 7 37 16 50 9 13 13 29 9 36 -4 6 5 3
21 -7 l29 -17 -23 24 c-19 21 -25 22 -43 11 -12 -8 -18 -9 -14 -3 9 16 -8 13
-23 -4z"/>
<path d="M2480 537 c0 -3 7 -13 17 -22 14 -14 14 -18 2 -26 -12 -7 -12 -9 0
-9 11 0 11 -3 1 -15 -14 -17 0 -20 35 -6 12 5 26 4 35 -2 8 -6 -1 5 -22 24
-48 46 -68 63 -68 56z"/>
<path d="M850 515 c-10 -12 -9 -15 6 -15 11 0 25 4 32 9 11 7 10 10 -3 15 -22
8 -21 8 -35 -9z"/>
<path d="M654 488 c-5 -7 -9 -35 -10 -63 -1 -27 0 -39 2 -25 13 71 12 69 46
59 18 -5 54 -9 80 -9 26 0 49 -4 52 -9 3 -5 21 -5 40 -1 24 5 41 3 54 -5 10
-8 24 -10 31 -6 18 12 -69 38 -149 46 -60 6 -74 8 -122 21 -9 3 -20 -1 -24 -8z"/>
<path d="M902 485 c-11 -12 -10 -15 2 -15 8 0 18 5 21 10 5 8 11 8 19 1 9 -8
13 -7 13 4 0 19 -38 19 -55 0z"/>
<path d="M1330 444 c25 -9 58 -28 74 -42 l29 -27 -19 27 c-25 35 -44 45 -90
53 l-39 6 45 -17z"/>
<path d="M201 321 c-29 -71 -51 -135 -48 -143 4 -9 6 -9 6 3 1 8 14 42 29 75
16 32 34 75 41 94 7 19 18 45 23 57 6 11 9 26 7 32 -2 6 -28 -47 -58 -118z"/>
<path d="M1205 431 c-16 -10 -39 -28 -50 -41 -19 -21 -18 -21 18 3 21 14 51
28 67 32 17 4 30 11 30 16 0 15 -33 10 -65 -10z"/>
<path d="M961 417 c-16 -16 -14 -27 7 -25 34 3 53 -2 47 -12 -14 -23 12 -7 33
21 23 28 23 29 3 29 -11 0 -22 -4 -26 -10 -3 -6 -15 -6 -29 0 -15 5 -27 5 -35
-3z"/>
<path d="M2217 354 c-8 -8 31 -44 47 -44 6 0 0 10 -14 21 -24 20 -24 20 -2 9
13 -6 26 -9 29 -6 3 3 -6 10 -21 16 -32 12 -31 12 -39 4z"/>
<path d="M2498 349 c-10 -5 -14 -17 -11 -29 6 -24 22 -25 49 -5 18 13 18 14
-6 9 -15 -4 -20 -2 -13 3 18 13 1 33 -19 22z"/>
<path d="M2150 334 c8 -3 32 -15 53 -25 20 -10 37 -15 37 -11 0 13 -42 34 -74
38 -17 2 -24 1 -16 -2z"/>
<path d="M2410 298 c21 -17 19 -39 -3 -37 -8 0 -8 2 1 6 21 8 -36 33 -69 31
-23 -2 -26 -5 -18 -20 6 -11 6 -18 0 -18 -5 0 -12 6 -15 13 -5 9 -7 9 -12 -1
-3 -6 -9 -10 -13 -8 -4 3 -13 1 -20 -3 -10 -7 -11 -13 -1 -31 6 -12 14 -19 17
-16 3 3 0 12 -7 21 -8 9 -8 15 -2 15 6 0 14 -9 17 -20 3 -11 11 -20 16 -20 6
0 7 9 4 20 -5 16 -2 20 14 20 12 0 21 5 21 10 0 17 18 11 23 -7 4 -17 5 -17 6
0 0 9 6 17 12 17 5 0 7 -4 4 -10 -3 -5 3 -10 14 -10 10 0 22 -6 24 -12 3 -8 6
-5 6 6 1 12 6 16 16 12 13 -4 13 -2 5 14 -7 13 -7 21 2 26 7 4 8 3 4 -4 -8
-14 3 -15 21 -4 22 14 -2 29 -45 28 -42 -1 -42 -1 -22 -18z"/>
<path d="M670 265 c-30 -7 -76 -19 -102 -25 -27 -6 -48 -14 -48 -17 0 -13 150
9 220 32 75 24 75 24 30 24 -25 -1 -70 -7 -100 -14z"/>
<path d="M1332 260 c-12 -11 -35 -20 -51 -20 -30 0 -87 -17 -80 -24 2 -3 24
-1 49 4 25 5 52 4 60 -1 8 -4 11 -9 6 -9 -5 0 9 -13 31 -29 53 -38 80 -74 100
-133 10 -26 23 -48 30 -48 13 0 5 40 -17 80 -11 20 -10 22 4 17 18 -7 21 4 5
20 -8 8 -8 13 0 18 7 4 21 -15 36 -50 28 -62 29 -65 16 -65 -5 0 -14 13 -20
30 -5 16 -13 30 -16 30 -5 0 21 -69 30 -78 2 -2 13 -1 24 3 22 7 30 37 10 32
-7 -1 -16 13 -21 32 -5 18 -16 45 -25 58 -14 21 -14 26 -2 33 11 7 11 12 2 21
-10 10 -16 9 -31 -4 -25 -22 -29 -22 -67 11 -17 15 -40 32 -50 38 -12 7 -15
13 -8 17 6 4 32 -9 58 -29 26 -19 49 -33 52 -30 3 3 -16 20 -41 38 -27 18 -44
38 -42 45 8 20 -18 15 -42 -7z"/>
<path d="M1727 237 c4 -26 2 -29 -7 -17 -10 12 -11 10 -6 -10 3 -14 6 -34 6
-44 0 -33 13 -8 20 39 5 30 3 48 -5 55 -8 7 -10 1 -8 -23z"/>
<path d="M2536 249 c-10 -9 -24 -15 -32 -12 -8 3 -17 -2 -20 -12 -4 -9 -13
-14 -20 -11 -7 3 -16 0 -20 -6 -4 -7 -9 -6 -15 3 -6 10 -9 6 -9 -13 0 -29 15
-46 23 -26 3 7 6 3 6 -8 1 -15 7 -21 23 -20 12 0 23 7 26 15 3 10 0 12 -11 8
-9 -3 -19 -2 -22 3 -4 6 1 10 9 10 8 0 20 9 26 20 6 11 16 20 23 20 8 0 7 -4
-3 -11 -12 -8 -11 -10 5 -7 11 2 20 8 21 13 0 6 4 18 9 28 11 25 3 28 -19 6z"/>
<path d="M1797 211 c-19 -32 -21 -42 -9 -40 33 5 42 -2 36 -28 -4 -16 -10 -33
-13 -38 -3 -6 2 -2 12 8 21 24 22 56 2 63 -8 4 -15 13 -15 22 0 11 9 8 31 -14
l32 -29 -19 33 c-29 51 -38 55 -57 23z"/>
<path d="M915 200 c-22 -10 -35 -19 -30 -19 6 0 17 4 25 9 11 7 18 3 27 -13
11 -22 11 -22 18 6 4 15 6 30 4 32 -3 2 -22 -5 -44 -15z"/>
<path d="M1197 193 c-4 -3 -7 -13 -7 -21 0 -13 2 -13 18 0 9 9 24 18 32 21 9
3 4 6 -11 6 -14 1 -29 -2 -32 -6z"/>
<path d="M2324 186 c-5 -13 -9 -14 -14 -5 -4 6 -7 -3 -5 -22 1 -18 8 -35 15
-37 8 -3 10 2 5 17 -4 13 -1 28 6 37 6 8 9 17 6 21 -4 3 -10 -2 -13 -11z"/>
<path d="M2379 193 c-1 -5 -1 -11 0 -15 2 -13 -17 -9 -21 4 -3 7 -7 2 -11 -11
-4 -17 -2 -21 9 -17 15 6 19 -4 7 -20 -5 -5 0 -1 10 9 9 11 17 28 17 38 0 18
-9 27 -11 12z"/>
<path d="M1284 167 c10 -6 32 -21 50 -32 18 -12 43 -44 61 -80 30 -61 47 -57
21 5 -19 45 -61 85 -111 104 -22 9 -32 10 -21 3z"/>
<path d="M2386 126 c-9 -19 -16 -37 -16 -40 0 -11 39 -6 46 5 4 8 -1 9 -17 4
-21 -7 -22 -6 -10 9 7 9 10 16 6 16 -4 0 -2 7 5 15 7 9 11 18 8 21 -3 2 -13
-11 -22 -30z"/>
<path d="M655 139 c-4 -6 -4 -13 -1 -16 3 -4 6 -1 6 5 0 7 4 12 10 12 5 0 7
-8 4 -17 -5 -15 -4 -15 6 1 10 15 14 16 21 5 7 -11 9 -10 9 4 0 19 -44 25 -55
6z"/>
<path d="M2251 117 c-8 -10 -1 -23 30 -53 l40 -39 -58 -11 -58 -11 53 0 c34
-1 58 4 68 14 13 14 16 14 27 -2 9 -11 22 -15 42 -12 l30 4 -32 2 c-24 1 -33
6 -33 19 0 9 -23 32 -52 51 -46 30 -50 35 -33 42 15 6 16 8 4 8 -9 1 -21 -5
-28 -12z"/>
<path d="M0 65 c0 -33 2 -35 20 -25 23 12 24 19 6 43 -20 25 -26 21 -26 -18z"/>
<path d="M1863 86 c-29 -5 -53 -13 -53 -18 0 -6 6 -8 14 -5 49 19 85 18 105
-2 13 -13 21 -16 21 -8 0 30 -33 42 -87 33z"/>
<path d="M2500 75 c-13 -14 -18 -25 -12 -25 7 0 12 5 12 10 0 6 3 9 8 9 19 -3
29 2 29 16 0 21 -10 19 -37 -10z"/>
<path d="M937 39 c-10 -6 -46 -17 -80 -24 l-62 -14 93 2 c72 2 91 5 87 15 -3
8 -5 18 -5 23 0 12 -10 11 -33 -2z"/>
<path d="M1804 28 c-3 -4 3 -8 13 -8 10 0 29 -3 42 -7 16 -4 22 -2 18 4 -9 14
-66 22 -73 11z"/>
</g>
</svg>
