<?xml version="1.0" standalone="no"?>
<!DOCTYPE svg PUBLIC "-//W3C//DTD SVG 20010904//EN"
 "http://www.w3.org/TR/2001/REC-SVG-20010904/DTD/svg10.dtd">
<svg version="1.0" xmlns="http://www.w3.org/2000/svg"
 width="300.000000pt" height="180.000000pt" viewBox="0 0 300.000000 180.000000"
 preserveAspectRatio="xMidYMid meet">
<metadata>
Created by potrace 1.10, written by Peter Selinger 2001-2011
</metadata>
<g transform="translate(0.000000,180.000000) scale(0.100000,-0.100000)"
fill="#000000" stroke="none">
<path d="M1536 1776 c-10 -42 -55 -86 -87 -86 -41 0 -88 -46 -96 -92 -5 -33
-1 -42 35 -84 23 -25 41 -49 40 -53 -1 -3 4 -29 11 -58 7 -29 10 -56 7 -61 -3
-5 -20 -7 -38 -5 l-33 5 33 -21 c31 -20 37 -35 33 -88 -1 -11 3 -24 8 -28 6
-3 11 -1 11 4 0 6 7 11 15 11 19 0 19 -11 0 -36 -27 -36 -8 -49 27 -17 17 15
21 15 29 3 5 -8 7 -23 5 -32 -7 -30 17 -19 47 20 23 30 26 38 13 40 -9 2 -16
7 -16 12 0 8 33 11 145 12 59 0 125 -24 125 -46 0 -9 5 -16 10 -16 7 0 7 6 1
19 -12 21 -5 31 21 31 21 0 22 -4 8 -29 -6 -13 -5 -24 5 -37 13 -17 16 -17 25
-4 9 13 12 13 24 -2 9 -12 16 -14 23 -7 12 12 33 4 33 -12 0 -5 -6 -9 -14 -9
-7 0 -19 -7 -26 -15 -7 -8 -16 -12 -21 -9 -5 3 -9 -2 -9 -10 0 -9 -4 -15 -9
-14 -5 2 -9 0 -10 -4 -3 -22 0 -29 9 -23 6 4 7 -1 3 -11 -6 -15 -7 -15 -15 0
-12 22 -38 3 -31 -22 5 -20 -34 -75 -48 -67 -5 4 -9 1 -9 -5 0 -8 9 -10 24 -6
29 7 39 -2 21 -20 -17 -17 -49 -19 -39 -2 4 6 3 8 -4 4 -5 -3 -13 0 -16 6 -4
7 -4 3 -2 -10 3 -14 -1 -25 -10 -29 -8 -3 -11 -9 -8 -14 3 -5 -16 -6 -43 -3
l-48 5 65 -30 c35 -16 67 -28 70 -26 8 5 60 110 88 175 10 25 28 56 40 70 70
82 100 130 82 130 -5 0 -10 -6 -10 -14 0 -7 -6 -18 -12 -24 -10 -8 -12 3 -10
51 3 40 9 65 18 70 8 4 14 18 14 30 0 13 3 17 8 11 5 -8 13 -5 27 8 20 20 20
20 -5 16 -14 -2 -29 -13 -35 -25 -5 -13 -14 -23 -19 -23 -5 0 -19 -11 -31 -24
-20 -21 -21 -27 -10 -43 17 -25 4 -46 -25 -41 -32 4 -35 22 -8 37 22 11 22 11
-4 6 -15 -3 -29 -1 -32 4 -3 4 -16 7 -28 6 -13 -1 -15 0 -5 2 9 2 17 9 17 14
0 13 -8 11 -38 -7 -25 -14 -32 -13 -87 3 -47 15 -61 23 -63 41 -2 15 4 25 21
33 23 10 23 12 8 45 -20 45 -31 43 -31 -5 0 -27 -5 -41 -16 -45 -9 -4 -19 -4
-22 -1 -10 9 -21 107 -21 188 -1 78 -14 123 -32 112 -5 -4 -9 -16 -9 -29 0
-12 -7 -31 -15 -42 -14 -18 -14 -18 -15 4 0 13 -4 20 -10 17 -5 -3 -10 -17
-10 -31 0 -19 -5 -24 -24 -24 -31 0 -56 -25 -55 -53 l0 -22 9 21 c8 21 62 49
87 45 6 -1 14 3 18 9 3 5 13 10 20 10 20 0 8 -90 -14 -108 -9 -8 -11 -11 -4
-8 15 8 27 -10 13 -19 -15 -9 -12 -23 8 -29 9 -3 5 -4 -10 -2 -34 4 -37 -10
-5 -18 13 -3 35 -16 48 -28 14 -13 36 -31 49 -41 16 -11 18 -16 8 -13 -10 3
-40 8 -68 12 -40 5 -50 10 -50 25 0 11 -4 19 -10 19 -13 0 -13 -43 -1 -56 13
-12 1 -66 -13 -61 -17 6 -24 108 -10 136 14 26 10 41 -8 41 -6 0 -8 -3 -5 -7
4 -3 2 -12 -4 -20 -7 -8 -10 -31 -7 -56 6 -47 -5 -102 -15 -77 -10 25 -29 133
-28 158 0 13 -6 37 -14 53 -10 19 -14 41 -9 63 5 29 3 34 -12 33 -11 -1 -23 8
-28 20 -6 12 -18 24 -29 27 -44 11 25 116 78 116 14 0 25 -3 25 -7 -1 -16 -29
-45 -39 -39 -5 4 -17 -4 -25 -16 -20 -29 -20 -36 2 -34 11 0 16 -5 14 -15 -2
-17 23 -33 38 -24 4 2 10 31 14 62 5 44 17 73 46 118 44 66 49 85 21 85 -12 0
-21 -9 -25 -24z"/>
<path d="M1960 1792 c0 -19 -52 -73 -65 -68 -8 3 -15 -8 -19 -29 -4 -18 -16
-44 -27 -57 l-21 -23 5 22 c5 24 -17 63 -28 51 -4 -4 0 -25 8 -46 9 -22 13
-50 10 -62 -6 -22 -6 -22 -19 6 -14 31 -14 25 1 -153 5 -57 4 -62 -21 -82
l-27 -21 38 0 c23 0 70 16 124 41 91 44 191 84 214 88 4 0 21 8 37 16 17 9 30
13 30 11 0 -3 12 6 26 19 14 13 39 27 55 30 17 4 32 14 35 23 3 10 18 44 34
77 17 34 30 66 30 72 0 19 39 41 62 35 11 -3 24 1 29 9 7 11 9 9 9 -7 0 -42
31 -38 79 11 l46 45 -29 0 c-15 0 -39 -9 -53 -20 -18 -14 -34 -18 -61 -14 -65
9 -83 -5 -132 -102 -44 -88 -46 -90 -120 -131 -80 -44 -202 -88 -224 -80 -8 3
-14 16 -14 29 0 13 -5 74 -10 137 -7 76 -7 123 0 143 6 16 8 32 4 35 -3 4 -6
1 -6 -5z m-22 -163 c1 -46 5 -91 9 -99 11 -27 11 -54 1 -97 -11 -45 -32 -62
-46 -36 -8 13 -10 11 -16 -11 -9 -34 -29 -23 -22 12 3 15 10 82 16 149 11 129
23 177 43 171 8 -3 13 -33 15 -89z m-83 -157 c-8 -52 -14 -49 -26 14 -7 37 -5
54 9 83 l17 36 3 -45 c2 -25 1 -65 -3 -88z"/>
<path d="M1755 1720 c-4 -6 -15 -8 -25 -5 -10 3 -21 1 -25 -5 -3 -5 -1 -10 5
-10 15 0 41 -26 33 -33 -3 -3 -12 0 -20 8 -22 22 -31 18 -38 -16 -8 -37 2 -50
20 -25 8 10 17 16 22 13 17 -10 51 12 55 37 6 28 -15 55 -27 36z"/>
<path d="M2456 1706 c4 -9 1 -16 -6 -16 -21 0 -1 -51 46 -117 25 -35 47 -63
48 -63 2 0 6 7 10 15 3 8 0 14 -6 12 -13 -2 -78 101 -78 124 0 9 7 19 15 23 8
3 15 10 15 16 0 6 -5 8 -10 5 -6 -4 -18 -1 -26 6 -12 10 -13 9 -8 -5z"/>
<path d="M2405 1593 c15 -27 33 -53 40 -58 7 -6 16 -25 19 -43 4 -17 14 -32
21 -32 7 0 22 -10 32 -23 10 -12 31 -30 46 -40 18 -12 26 -24 23 -33 -3 -8 -1
-12 4 -9 5 3 15 1 22 -5 47 -39 62 -50 71 -50 6 0 -13 22 -41 49 -29 27 -52
56 -52 65 0 14 -12 20 -32 17 -5 0 -8 4 -8 9 0 6 -9 10 -20 10 -11 0 -20 7
-20 16 0 8 -3 13 -7 11 -5 -3 -14 1 -21 9 -10 11 -10 14 0 14 10 0 10 2 -1 9
-7 5 -11 13 -8 19 4 5 -2 17 -13 27 -11 10 -20 23 -20 28 0 10 -47 57 -56 57
-3 0 6 -21 21 -47z"/>
<path d="M2677 1607 c4 -7 0 -8 -13 -4 -18 7 -18 7 0 -8 11 -8 28 -15 39 -15
27 0 59 19 51 32 -4 7 -9 6 -15 -3 -6 -11 -14 -11 -39 -2 -21 8 -28 8 -23 0z"/>
<path d="M601 1521 c-29 -29 -16 -58 46 -99 l55 -36 -46 -40 c-41 -37 -46 -46
-48 -90 -5 -84 -51 -86 -126 -3 -39 42 -59 46 -93 16 -102 -87 -119 -105 -119
-123 0 -12 -4 -27 -9 -34 -6 -11 -11 -10 -25 3 -16 17 -16 38 1 98 4 14 0 18
-13 15 -24 -4 -39 -64 -25 -95 17 -38 13 -98 -7 -116 -21 -19 -48 -22 -57 -7
-4 6 -11 7 -17 4 -7 -4 -5 -10 6 -16 9 -5 16 -15 16 -23 0 -11 9 -10 47 6 26
11 57 18 68 15 18 -5 17 -3 -4 13 -19 15 -22 23 -16 49 7 34 22 42 31 17 4 -8
12 -15 19 -15 7 0 18 -7 25 -15 11 -13 11 -20 0 -40 -7 -13 -10 -30 -7 -39 6
-16 -27 -65 -37 -55 -3 3 -2 19 3 35 l8 30 -49 -24 c-32 -15 -59 -21 -74 -18
-26 7 -33 -8 -8 -18 22 -8 6 -29 -18 -23 -14 4 -18 1 -14 -8 3 -8 1 -17 -4
-20 -6 -4 -10 -15 -10 -26 0 -13 -7 -19 -22 -18 -13 0 -17 3 -10 6 6 2 12 19
12 36 l-1 32 -14 -26 c-8 -15 -21 -29 -30 -33 -8 -3 -15 -14 -15 -25 0 -11 -5
-23 -10 -26 -6 -3 -10 -16 -10 -28 0 -19 3 -18 20 10 17 29 23 32 44 23 17 -6
27 -6 32 1 3 6 13 8 21 5 10 -4 14 0 13 17 -1 12 -2 28 -1 35 2 20 86 54 115
46 14 -3 37 1 54 10 24 12 37 13 62 5 17 -6 34 -9 37 -5 3 3 12 1 19 -5 21
-17 25 7 4 26 -14 13 -29 16 -55 12 -19 -3 -35 -3 -35 1 1 4 7 34 15 67 19 79
19 78 -14 72 -23 -5 -32 -1 -45 18 -15 22 -14 25 24 59 41 37 55 42 79 27 19
-12 6 -41 -19 -41 -11 0 -20 -4 -20 -10 0 -5 4 -10 10 -10 19 0 40 -60 40
-114 0 -54 13 -77 32 -58 6 6 6 12 -1 16 -15 9 -14 59 1 74 9 9 8 15 -6 25
-17 13 -17 15 -2 45 19 38 52 62 84 62 32 0 81 -30 88 -53 8 -25 -12 -45 -28
-29 -19 19 -43 14 -73 -14 -34 -31 -28 -39 14 -18 18 9 41 14 52 11 10 -3 22
-1 25 4 8 14 45 10 90 -10 39 -18 42 -18 64 -1 l24 18 -46 7 c-81 12 -137 79
-89 105 25 13 43 13 78 -1 35 -14 83 -19 83 -9 0 5 -19 18 -43 29 -30 15 -53
19 -80 14 l-37 -6 0 38 c0 30 7 44 36 71 40 39 93 45 144 19 32 -17 40 -49 15
-59 -13 -5 -14 -10 -5 -27 14 -24 27 -15 32 21 2 21 8 25 32 23 18 -1 34 4 42
15 16 23 9 32 -26 32 -74 0 -304 115 -298 148 5 26 35 26 70 -1 54 -41 149
-84 213 -97 68 -14 153 -54 162 -75 3 -8 9 -15 14 -15 5 0 3 13 -5 29 -16 29
-54 46 -191 86 -33 9 -97 39 -141 66 -45 27 -87 49 -93 49 -6 0 -20 -9 -30
-19z m-135 -278 c3 -10 10 -26 14 -35 7 -13 3 -22 -17 -37 -14 -12 -32 -21
-39 -21 -22 0 -16 31 6 37 32 8 23 23 -14 23 -38 0 -55 24 -28 39 28 17 72 13
78 -6z"/>
<path d="M1693 1507 c-3 -6 -1 -7 5 -3 7 4 12 1 12 -8 0 -9 5 -16 11 -16 5 0
7 5 4 10 -3 6 -1 10 4 10 6 0 11 -12 12 -27 0 -27 1 -27 9 -5 5 12 7 28 5 35
-6 15 -53 19 -62 4z"/>
<path d="M2281 1501 c-38 -20 -28 -37 22 -33 16 1 50 -8 75 -21 26 -14 60 -30
75 -36 16 -6 31 -20 34 -31 3 -11 10 -20 15 -20 5 0 6 -5 3 -10 -4 -6 -3 -10
2 -9 20 3 44 -2 40 -8 -2 -5 8 -20 23 -36 25 -24 29 -26 41 -11 10 13 10 17
-2 25 -8 5 -19 7 -26 4 -7 -2 -10 2 -7 9 3 8 -11 26 -32 42 -21 16 -53 43 -71
59 -19 17 -52 39 -73 51 -22 12 -36 25 -32 29 4 5 -1 5 -12 1 -10 -3 -24 -2
-30 3 -7 6 -23 3 -45 -8z"/>
<path d="M2755 1464 c-30 -31 -55 -60 -55 -65 0 -5 -8 -9 -17 -9 -14 -1 -10
-8 15 -30 18 -17 40 -30 50 -30 13 0 11 5 -11 25 -15 14 -27 28 -27 31 0 14
73 89 107 110 32 20 34 23 16 24 -14 0 -43 -21 -78 -56z"/>
<path d="M2835 1469 c-13 -13 -79 -62 -99 -74 -14 -8 -9 -15 33 -43 57 -37 64
-61 29 -99 -12 -13 -17 -23 -11 -23 12 0 38 29 46 52 9 26 -10 72 -35 83 -31
14 -34 33 -6 44 22 8 47 32 62 59 8 14 -4 15 -19 1z"/>
<path d="M1535 1434 c-20 -15 -30 -54 -14 -54 5 0 9 9 9 19 0 11 9 23 20 26
11 3 20 11 20 16 0 13 -12 11 -35 -7z"/>
<path d="M1693 1443 c-13 -5 -18 -43 -7 -43 8 0 33 32 34 43 0 8 -8 8 -27 0z"/>
<path d="M2223 1357 c-36 -24 -42 -42 -17 -51 22 -8 26 -8 19 4 -10 16 19 40
36 29 11 -7 11 -9 -3 -9 -10 0 -18 -5 -18 -11 0 -5 5 -7 10 -4 14 9 12 -8 -2
-25 -7 -7 0 -4 16 9 21 15 32 18 37 10 4 -7 14 -9 23 -6 8 3 22 -1 30 -9 9 -8
18 -15 21 -14 20 1 24 -2 18 -17 -3 -10 -2 -15 2 -11 5 5 24 -4 43 -19 20 -15
32 -22 29 -15 -4 6 7 3 25 -6 45 -22 66 -24 89 -8 18 12 16 14 -28 30 -95 35
-103 39 -103 52 0 7 -5 16 -12 20 -7 5 -8 3 -3 -7 5 -7 -4 -4 -19 9 -16 12
-37 22 -48 22 -11 0 -16 5 -13 10 4 6 3 10 -2 9 -20 -4 -24 2 -12 18 13 15 12
15 -9 2 -12 -8 -18 -15 -12 -17 17 -6 11 -19 -7 -16 -41 5 -64 17 -59 30 7 17
8 17 -31 -9z"/>
<path d="M1978 1314 c5 -28 8 -29 28 -10 11 12 11 16 2 23 -25 15 -35 11 -30
-13z"/>
<path d="M970 1289 c0 -28 -3 -31 -26 -26 -24 4 -23 2 11 -26 33 -27 35 -31
21 -45 -14 -15 -17 -14 -29 2 -12 16 -14 16 -26 2 -18 -22 -47 -20 -71 4 -18
18 -24 18 -21 -2 0 -4 -10 -24 -24 -44 -27 -39 -32 -83 -13 -102 6 -6 8 -15 4
-19 -4 -4 -11 -1 -15 6 -11 18 -30 6 -43 -27 -6 -16 -12 -22 -15 -14 -7 19
-25 14 -19 -5 7 -22 -59 -97 -75 -87 -7 4 -10 1 -7 -6 9 -29 40 -16 84 33 l46
52 -4 -32 c-5 -38 -2 -39 30 -14 25 22 28 31 8 31 -14 0 -26 21 -26 43 0 7 4
6 10 -3 8 -12 14 -10 39 14 19 18 42 29 60 30 21 1 31 6 31 16 0 9 5 21 11 27
9 9 6 10 -12 6 -13 -3 -30 -10 -36 -16 -17 -13 -63 0 -63 18 0 20 20 29 33 16
6 -6 18 -11 26 -11 13 1 13 2 -1 11 -19 11 -24 34 -9 43 11 7 81 -21 81 -32 0
-4 8 -8 18 -9 14 -1 21 9 28 34 14 55 32 60 95 30 30 -15 50 -26 45 -27 -6 0
7 -16 28 -35 37 -33 56 -37 56 -12 0 7 -14 18 -31 24 -17 7 -33 21 -36 33 -3
11 -16 23 -29 26 -13 3 -24 12 -24 18 0 7 -19 19 -42 26 -24 7 -47 14 -53 15
-5 2 0 4 13 4 27 1 27 9 3 39 -25 29 -31 28 -31 -9z"/>
<path d="M1746 1295 c-18 -14 -18 -15 15 -29 19 -8 36 -12 39 -9 3 3 -1 8 -7
10 -7 3 -13 13 -13 24 0 23 -8 24 -34 4z"/>
<path d="M2134 1294 c4 -10 -1 -22 -10 -29 -19 -13 -11 -37 9 -29 16 6 22 74
6 74 -6 0 -8 -7 -5 -16z"/>
<path d="M272 1280 c-12 -12 -22 -25 -22 -30 0 -20 27 -9 48 20 27 35 9 42
-26 10z"/>
<path d="M1370 1290 c0 -5 4 -10 9 -10 5 0 8 -13 7 -30 -1 -33 -7 -36 -35 -19
-13 9 -23 9 -37 1 -18 -11 -18 -11 2 -12 12 0 32 -9 46 -19 14 -11 30 -16 36
-12 19 11 27 78 12 96 -14 17 -40 20 -40 5z"/>
<path d="M2594 1165 c-9 -27 -39 -96 -66 -152 -52 -110 -80 -137 -132 -127
-19 3 -25 1 -21 -6 4 -6 13 -9 20 -6 7 2 15 2 18 -1 6 -5 2 -11 -38 -57 -19
-22 -22 -31 -13 -37 13 -8 50 23 46 38 -3 15 25 62 34 57 5 -4 19 3 31 14 12
11 33 25 45 32 13 6 21 14 18 17 -2 3 4 28 16 57 11 28 33 85 48 126 l28 75
48 11 49 12 -56 -2 -57 -1 -18 -50z"/>
<path d="M1275 1191 c-6 -18 -12 -21 -41 -15 -22 4 -34 2 -34 -5 0 -17 47 -32
76 -25 13 3 24 2 24 -2 0 -18 -16 -33 -40 -39 -26 -7 -90 -59 -90 -73 0 -33
-91 -58 -104 -29 -5 10 -7 10 -12 0 -3 -7 -21 -13 -41 -13 -43 0 -40 21 5 35
38 11 37 26 -1 36 -19 5 -27 3 -27 -5 0 -7 -9 -22 -21 -35 -17 -18 -18 -25 -9
-36 10 -12 9 -15 -4 -15 -12 0 -16 -10 -16 -42 0 -23 3 -38 6 -35 4 3 15 2 25
-4 13 -7 19 -6 19 2 0 6 -9 13 -20 16 -48 13 6 59 78 68 33 4 27 -12 -8 -20
-28 -6 -43 -25 -19 -25 6 0 9 -10 8 -22 -2 -13 1 -29 5 -37 7 -11 4 -13 -17
-7 -21 5 -25 3 -21 -9 4 -8 17 -15 29 -15 45 0 80 -29 38 -31 -15 0 -15 -2 2
-8 16 -7 13 -9 -18 -15 -40 -7 -68 1 -47 14 9 6 8 15 -4 39 -18 34 -31 39 -40
15 -4 -9 -2 -13 5 -8 7 4 9 -5 6 -30 -3 -20 -1 -36 5 -36 26 0 -7 -18 -43 -24
-44 -7 -193 -65 -186 -72 2 -3 33 3 67 12 60 15 64 15 77 -2 11 -15 13 -16 13
-2 0 17 33 33 49 24 5 -3 11 3 14 14 8 30 30 25 25 -5 -6 -29 16 -34 46 -12
17 13 18 14 2 20 -10 4 -15 11 -11 16 3 6 12 8 20 4 8 -3 15 0 15 6 0 15 51 3
68 -15 6 -8 7 -10 1 -5 -15 12 -41 2 -32 -13 4 -6 1 -6 -9 2 -13 10 -17 10
-22 -4 -9 -22 -8 -24 10 -24 8 0 13 -4 10 -9 -4 -5 -18 -6 -33 -2 -25 7 -93
-7 -93 -19 0 -8 44 -5 59 4 7 5 23 3 36 -4 21 -11 28 -10 55 14 33 27 50 33
50 16 0 -5 -6 -10 -14 -10 -8 0 -18 -5 -22 -12 -4 -7 -3 -8 4 -4 8 4 12 0 12
-11 1 -16 2 -16 12 2 6 11 20 30 31 43 11 12 15 22 9 22 -7 0 -12 9 -12 20 0
16 -5 19 -23 15 -18 -5 -28 0 -40 19 -10 14 -17 28 -17 32 0 7 33 1 65 -11 19
-7 19 -7 4 10 -9 9 -31 18 -48 20 -35 2 -71 30 -71 55 0 9 11 26 23 39 l24 22
49 -34 c27 -19 50 -43 52 -54 2 -13 21 -28 52 -43 44 -21 53 -22 77 -10 16 8
31 14 35 14 16 2 27 23 30 61 2 32 9 42 37 59 37 21 36 11 -2 -31 -30 -34 -15
-28 33 12 23 19 36 35 28 35 -10 0 -10 2 -1 8 8 5 9 13 3 22 -8 12 -10 12 -16
-3 -4 -10 -22 -20 -45 -23 -33 -6 -40 -11 -47 -38 -5 -19 -14 -30 -23 -29 -11
2 -14 -7 -14 -32 2 -39 1 -39 -26 -25 -15 8 -19 7 -19 -5 0 -8 -8 -15 -17 -15
-14 0 -15 2 -4 9 10 7 11 13 2 30 -12 22 -11 22 29 25 11 1 13 13 11 51 -2 41
3 58 24 89 32 47 28 54 -9 19 -41 -38 -56 -15 -16 25 27 28 37 31 88 31 36 0
68 -7 88 -19 19 -11 37 -15 45 -9 7 4 11 10 9 12 -9 8 -75 41 -85 42 -5 1 -15
3 -22 3 -7 1 -10 9 -6 19 5 13 2 15 -11 10 -10 -4 -20 -7 -22 -7 -2 0 -4 -7
-4 -15 0 -9 -10 -15 -26 -15 -28 0 -104 -69 -104 -95 0 -8 -3 -15 -7 -15 -5 0
-17 -7 -27 -15 -16 -12 -17 -17 -6 -30 11 -13 9 -19 -9 -39 -11 -12 -18 -26
-14 -31 13 -14 -20 7 -59 38 -44 33 -48 47 -14 47 15 0 36 14 57 37 18 21 38
38 44 38 6 0 19 8 29 18 31 30 80 65 101 70 13 3 9 5 -13 6 -25 1 -37 8 -51
32 -18 29 -19 30 -26 10z m24 -240 c0 -10 -2 -11 -5 -4 -3 7 -12 9 -20 6 -19
-7 -31 27 -13 38 16 10 39 -15 38 -40z m-28 -31 c-7 -4 -11 -11 -10 -16 5 -28
-2 -43 -18 -37 -10 4 -12 8 -6 10 7 3 9 11 6 19 -6 17 15 46 29 38 6 -4 6 -9
-1 -14z"/>
<path d="M1737 1193 c-12 -12 -7 -22 13 -28 11 -4 34 -18 51 -32 22 -19 33
-23 41 -15 8 8 4 14 -15 21 -15 6 -27 15 -27 21 0 5 -11 10 -24 10 -28 0 -43
16 -24 23 7 3 8 6 2 6 -6 1 -14 -2 -17 -6z"/>
<path d="M2367 1194 c-6 -7 1 -33 15 -51 8 -9 14 -9 29 0 25 16 24 26 -3 19
-15 -3 -19 -2 -14 7 5 7 2 10 -6 9 -7 -2 -12 3 -10 10 2 13 -1 15 -11 6z"/>
<path d="M86 1171 c-18 -19 -21 -102 -5 -136 6 -15 8 -9 6 25 -2 38 1 45 16
44 24 -2 22 12 -3 19 -27 7 -26 36 2 46 12 4 17 11 11 14 -6 4 -18 -2 -27 -12z"/>
<path d="M2104 1158 c3 -10 1 -20 -4 -23 -6 -4 -5 -11 2 -19 11 -11 15 -10 25
3 12 14 12 14 6 -3 -4 -13 -3 -17 5 -12 14 8 11 47 -3 43 -5 -2 -16 3 -23 12
-12 14 -13 14 -8 -1z"/>
<path d="M2266 1149 c3 -5 -5 -13 -17 -17 -15 -6 -18 -11 -11 -16 7 -4 12 -12
12 -17 0 -6 -5 -7 -12 -3 -7 4 -8 3 -4 -4 11 -18 33 -3 32 21 -1 18 4 21 23
19 27 -4 21 13 -9 21 -11 3 -17 1 -14 -4z"/>
<path d="M700 1131 c0 -13 37 -24 50 -16 6 4 8 11 5 16 -8 12 -55 12 -55 0z"/>
<path d="M2466 1133 c-12 -12 -5 -23 23 -38 29 -14 47 -9 33 10 -11 16 -49 34
-56 28z"/>
<path d="M1132 1078 c-6 -6 -8 -17 -5 -24 4 -10 -3 -14 -21 -14 -26 0 -35 -13
-16 -25 13 -8 70 32 70 50 0 19 -15 26 -28 13z"/>
<path d="M1716 1055 c-19 -15 -19 -15 3 -15 12 0 19 -4 16 -10 -3 -6 1 -7 10
-4 17 7 17 35 0 40 -5 2 -19 -3 -29 -11z"/>
<path d="M1544 1008 c9 -62 29 -104 55 -113 29 -9 71 -55 71 -79 1 -30 30 -61
86 -91 41 -22 50 -24 52 -11 2 9 7 16 12 16 5 0 15 3 24 6 12 5 16 0 16 -20 0
-14 5 -26 10 -26 6 0 10 9 10 21 0 11 5 17 10 14 6 -3 10 1 10 9 0 9 8 16 17
16 9 0 13 3 10 6 -3 4 -2 15 4 25 6 13 6 19 -1 19 -5 0 -10 -4 -10 -10 0 -13
-32 -50 -43 -50 -4 0 -6 3 -3 8 2 4 -2 18 -10 32 -12 23 -18 16 -13 -16 0 -4
-5 -10 -12 -15 -8 -5 -33 10 -68 40 -31 27 -65 51 -75 55 -10 3 -16 9 -12 13
3 3 -8 14 -24 24 -17 11 -30 23 -30 29 0 5 -6 10 -14 10 -26 0 -58 52 -52 82
6 32 -1 58 -16 58 -7 0 -8 -19 -4 -52z m212 -249 c19 -11 38 -18 44 -14 5 3
10 2 10 -3 0 -5 -9 -12 -20 -15 -11 -3 -20 -1 -20 5 0 5 -3 7 -7 5 -5 -2 -19
6 -33 19 -30 30 -19 31 26 3z"/>
<path d="M1987 1036 c-15 -13 -24 -26 -20 -30 3 -3 2 -6 -3 -6 -5 0 -10 -9
-11 -20 -2 -23 12 -27 21 -5 8 22 24 18 29 -7 l4 -23 2 23 c1 24 2 25 25 16 9
-3 16 -15 16 -26 0 -10 4 -17 9 -13 20 12 8 -63 -19 -120 -16 -33 -36 -78 -46
-100 -9 -22 -24 -48 -32 -58 -12 -13 -13 -20 -4 -27 7 -6 10 -7 8 -4 -7 10 36
54 47 47 6 -4 8 0 4 9 -3 9 1 27 8 42 8 14 12 26 10 26 -3 0 7 16 20 36 28 41
40 92 32 132 -4 21 -1 31 14 40 21 13 27 46 7 40 -7 -3 -13 -11 -13 -19 0 -8
-8 -13 -20 -11 -25 5 -37 22 -31 45 2 9 0 17 -5 17 -5 0 -9 -4 -9 -10 0 -5 -7
-10 -16 -10 -14 0 -14 3 -4 15 21 25 6 26 -23 1z"/>
<path d="M891 1026 c-12 -14 -5 -26 16 -26 15 0 18 26 4 34 -5 3 -14 0 -20 -8z"/>
<path d="M2350 1029 c-11 -8 -12 -12 -2 -16 6 -2 9 -10 5 -15 -4 -7 2 -9 16
-5 30 7 51 -1 45 -18 -7 -17 12 -29 22 -14 4 8 3 9 -4 5 -15 -9 -16 6 -2 20
15 15 1 44 -20 44 -10 0 -24 2 -32 5 -7 3 -20 0 -28 -6z"/>
<path d="M1180 981 l-34 -28 34 -18 34 -18 -17 27 c-10 14 -14 26 -10 26 5 0
14 9 21 20 16 26 13 25 -28 -9z"/>
<path d="M832 951 c-10 -6 -7 -12 13 -25 30 -20 45 -14 29 11 -13 21 -25 25
-42 14z"/>
<path d="M460 935 c0 -9 7 -18 15 -21 19 -8 20 -24 1 -24 -7 0 -21 -11 -30
-25 -18 -28 -46 -34 -46 -10 0 8 -9 15 -20 15 -23 0 -23 2 -9 -39 9 -27 8 -35
-6 -51 -17 -19 -17 -20 3 -20 11 0 24 -4 27 -10 13 -22 25 -8 25 29 0 34 5 42
35 61 36 22 75 69 75 90 0 9 -4 9 -16 -1 -14 -11 -18 -11 -29 4 -15 21 -25 22
-25 2z"/>
<path d="M1926 942 c-10 -10 -6 -33 4 -27 6 3 9 -2 7 -12 -3 -20 -44 -67 -67
-76 -12 -4 -11 -6 3 -6 19 -1 23 -17 5 -23 -6 -2 -8 -10 -4 -17 11 -17 37 5
29 25 -3 7 2 16 10 20 9 3 13 13 10 22 -4 15 -3 15 7 2 9 -11 13 -12 17 -2 2
6 18 12 34 12 16 0 29 5 29 13 0 9 3 8 9 -2 10 -16 31 -6 31 14 0 15 -19 24
-37 18 -7 -3 -13 -10 -13 -17 0 -6 -11 -13 -25 -14 -17 -1 -25 3 -25 14 0 10
7 14 21 12 17 -2 23 3 26 21 2 14 1 22 -3 19 -3 -3 -18 -2 -34 2 -16 4 -31 6
-34 2z"/>
<path d="M1513 928 c4 -12 1 -18 -7 -18 -21 0 -76 -67 -76 -93 -1 -40 -25
-113 -43 -131 -22 -22 -22 -25 3 -19 11 3 20 9 20 14 0 5 6 9 14 9 15 0 80 50
73 56 -2 3 -20 -3 -40 -11 -21 -8 -37 -11 -37 -7 0 12 80 36 105 33 45 -6 46
-16 4 -59 -23 -23 -46 -39 -52 -35 -5 3 -7 1 -3 -5 8 -14 -55 -35 -79 -26 -13
5 -16 4 -11 -4 4 -7 1 -12 -9 -12 -10 0 -14 -5 -10 -12 4 -7 0 -5 -8 5 -8 9
-19 17 -25 17 -13 0 16 61 36 76 11 8 12 13 4 18 -7 4 -24 -11 -42 -40 -26
-42 -28 -49 -15 -64 13 -14 13 -19 0 -37 -15 -21 -15 -21 15 -7 22 11 34 12
49 5 26 -14 56 -4 41 14 -8 9 -8 15 0 20 5 3 10 -1 10 -9 0 -9 8 -16 18 -16
14 0 15 2 2 10 -16 10 -9 13 25 11 11 -1 29 5 40 14 19 15 18 16 -15 10 -31
-5 -32 -4 -15 6 11 7 25 20 32 28 7 9 13 12 13 8 0 -4 9 -3 20 3 16 9 20 8 20
-5 0 -8 -8 -15 -17 -15 -15 0 -16 -2 -3 -10 8 -5 11 -10 6 -10 -5 0 -3 -6 3
-14 8 -10 9 -16 1 -21 -5 -3 -10 -2 -10 4 0 6 -7 8 -15 4 -15 -5 -12 -18 3
-18 4 0 13 -4 21 -9 8 -5 16 -4 22 5 6 10 9 6 9 -14 0 -15 7 -30 15 -33 8 -4
15 -16 16 -28 0 -11 3 -15 6 -8 2 6 9 10 13 7 5 -3 11 -1 15 5 3 5 0 10 -7 10
-15 0 -48 50 -48 73 0 9 -7 23 -16 31 -8 9 -11 16 -5 16 6 0 11 6 11 14 0 25
19 28 46 7 14 -11 38 -23 55 -26 18 -4 35 -17 44 -35 20 -39 19 -56 -6 -74
-14 -9 -19 -21 -16 -31 5 -12 1 -15 -21 -12 -18 3 -33 -3 -44 -15 -20 -23 -38
-16 -38 16 0 31 -9 37 -33 24 -19 -10 -63 -56 -79 -83 -11 -17 6 -110 20 -108
6 2 9 -4 6 -12 -14 -37 -44 7 -44 65 0 28 -1 29 -29 19 -19 -7 -28 -16 -24
-24 6 -16 -45 -33 -56 -19 -3 5 -14 15 -23 23 -27 20 -21 0 8 -32 18 -20 31
-26 46 -21 15 4 19 2 16 -7 -3 -8 -14 -14 -25 -13 -15 0 -19 -5 -15 -18 2 -10
-1 -18 -7 -18 -6 0 -11 7 -11 15 0 8 -6 15 -13 15 -7 0 -28 8 -47 18 -19 10
-54 24 -78 32 l-42 13 21 20 c13 12 18 25 14 36 -15 35 -11 72 7 82 15 8 18 6
18 -18 1 -26 1 -27 15 -9 8 10 28 19 44 20 19 1 32 7 35 18 5 20 -13 36 -23
21 -12 -19 -47 -32 -61 -23 -8 5 -18 6 -22 4 -4 -3 -8 0 -8 7 0 6 8 9 20 6 10
-3 24 1 30 8 15 18 2 71 -18 71 -9 0 -29 3 -43 7 -22 5 -28 3 -32 -13 -3 -11
-1 -17 4 -14 6 3 17 0 25 -7 8 -6 23 -12 34 -13 37 -2 25 -17 -27 -36 -75 -26
-84 -34 -49 -40 33 -6 33 -26 1 -22 -17 2 -17 1 3 -8 12 -5 22 -14 22 -19 0
-5 3 -16 6 -25 4 -11 -3 -20 -23 -28 -15 -7 -31 -17 -35 -22 -4 -6 -15 -5 -30
2 l-23 11 23 7 c25 7 30 24 7 24 -8 0 -15 5 -15 10 0 6 -10 10 -22 10 -21 -1
-22 -2 -5 -14 21 -16 21 -26 3 -51 -12 -16 -16 -17 -30 -6 -17 14 -23 36 -7
27 16 -10 20 23 5 39 -20 19 -35 19 -28 0 4 -9 0 -15 -10 -16 -9 -1 -20 -3
-26 -4 -5 -1 -14 -3 -20 -4 -5 0 -10 -6 -10 -12 0 -7 -8 -18 -17 -26 -16 -13
-11 -14 40 -9 31 2 55 1 52 -4 -8 -12 47 -22 58 -11 16 16 30 13 23 -5 -5 -12
0 -15 22 -12 15 1 30 7 34 12 4 6 13 4 22 -3 11 -9 16 -10 16 -2 0 6 5 11 11
11 6 0 9 -7 5 -15 -4 -11 2 -15 23 -15 28 0 111 -52 111 -70 0 -5 7 -7 15 -4
12 5 14 0 9 -25 -4 -20 -3 -31 5 -31 6 0 11 3 11 8 0 6 20 9 85 12 16 1 17 3
5 10 -13 8 -13 10 1 10 9 0 22 -6 28 -14 9 -10 6 -17 -13 -30 -14 -9 -30 -16
-37 -16 -7 0 -9 -10 -7 -24 4 -19 1 -22 -14 -18 -21 5 -24 18 -5 26 6 3 1 3
-13 1 -29 -6 -54 11 -64 43 -4 12 -13 22 -19 23 -7 0 -25 2 -41 2 -18 1 -34
11 -44 26 l-16 24 33 -17 c37 -20 50 -17 24 6 -29 25 -103 46 -184 53 -63 5
-80 3 -93 -10 -9 -9 -21 -13 -27 -9 -8 5 -7 10 5 16 9 5 16 13 16 18 0 15 -37
12 -44 -2 -5 -10 -7 -10 -12 0 -3 6 -17 12 -30 12 -21 0 -23 -2 -12 -20 18
-28 4 -35 -31 -14 -36 21 -39 30 -11 39 11 3 20 10 20 14 0 18 -15 20 -36 6
-21 -13 -24 -13 -33 2 -5 10 -13 15 -17 11 -3 -4 -16 -2 -28 4 -19 10 -20 10
-7 -6 8 -9 11 -20 7 -24 -4 -4 -18 5 -30 21 -12 15 -27 27 -33 27 -6 0 -19 7
-28 16 -12 12 -19 14 -28 5 -8 -8 -15 -6 -29 6 -25 22 -23 36 3 23 11 -7 22
-10 24 -8 2 2 -1 24 -6 49 -7 34 -15 45 -29 46 -24 2 -25 -1 -4 -22 20 -20 11
-48 -13 -41 -10 3 -24 1 -32 -3 -12 -8 -7 -14 22 -31 27 -16 37 -29 37 -47 0
-15 -5 -23 -12 -20 -7 2 -13 13 -12 24 0 11 -6 20 -13 20 -8 0 -11 -7 -8 -17
9 -28 -34 -34 -46 -7 l-10 22 5 -22 c6 -33 -20 -29 -38 5 -9 15 -15 21 -16 11
0 -8 5 -20 12 -27 7 -7 8 -12 3 -12 -4 0 2 -9 15 -20 27 -23 34 -25 27 -7 -4
10 7 13 37 13 23 1 48 4 54 8 7 4 12 4 12 -1 0 -4 4 -1 10 7 7 12 12 12 29 -4
13 -12 28 -16 45 -12 16 4 26 1 30 -9 4 -11 11 -13 29 -6 26 10 47 -2 47 -25
0 -7 8 -10 20 -7 13 4 20 0 20 -9 0 -8 12 -21 28 -28 37 -18 62 -22 62 -10 0
6 -4 10 -10 10 -5 0 -10 5 -10 10 0 6 7 10 15 10 8 0 15 -4 15 -9 0 -5 29 -6
64 -4 36 3 73 2 83 -2 10 -5 24 -7 31 -6 6 1 12 -3 12 -10 0 -8 3 -9 13 0 16
13 28 5 21 -14 -3 -7 5 -15 18 -19 l23 -7 -22 -11 c-35 -17 -28 -31 11 -25 22
4 36 1 39 -6 3 -9 8 -9 18 1 20 19 50 14 56 -8 3 -11 11 -20 18 -20 7 0 16 -7
19 -16 4 -10 13 -13 25 -9 14 4 20 -1 24 -22 6 -32 0 -44 -12 -24 -7 11 -9 11
-13 0 -3 -8 2 -19 11 -26 14 -11 12 -12 -11 -13 -16 0 -28 5 -28 11 0 24 -87
89 -146 109 -41 14 -68 30 -83 50 -29 39 -49 39 -21 0 12 -17 40 -40 63 -52
l42 -21 -28 -10 c-19 -6 -36 -6 -50 1 -12 5 -42 15 -67 22 -27 7 -57 25 -77
46 -17 19 -34 34 -37 34 -14 0 -4 -32 15 -51 12 -12 19 -29 16 -40 -3 -10 -2
-19 3 -19 4 0 10 9 13 20 3 13 10 18 21 14 24 -9 20 -16 -34 -59 -27 -22 -50
-43 -50 -47 0 -20 42 -4 67 26 28 33 96 56 108 36 5 -8 45 -7 87 5 38 10 65
-2 110 -46 22 -22 53 -41 72 -44 31 -6 33 -5 45 34 9 31 21 46 51 63 22 13 38
28 36 34 -3 6 0 16 5 21 16 16 -8 62 -35 69 -18 4 -31 0 -48 -15 -29 -28 -52
-23 -56 10 -2 21 6 34 35 58 l38 31 32 -35 c18 -20 33 -41 33 -47 0 -5 6 -8
14 -5 9 4 12 0 9 -13 -3 -10 0 -21 6 -24 16 -10 13 -26 -4 -26 -8 0 -15 -4
-15 -10 0 -15 15 -12 33 8 22 24 3 112 -22 105 -11 -3 -17 2 -17 16 0 15 3 17
13 9 18 -15 17 5 -2 42 -9 17 -13 46 -11 77 4 46 6 48 34 49 21 1 29 -3 25
-12 -3 -8 -10 -11 -15 -8 -6 4 -5 -3 1 -15 7 -11 18 -21 25 -21 8 0 21 -10 29
-23 l16 -22 -2 25 c-2 21 3 26 27 28 20 3 27 0 24 -10 -3 -7 -12 -12 -22 -10
-9 2 -16 -2 -16 -8 0 -5 5 -10 10 -10 6 0 10 -5 10 -11 0 -5 -4 -7 -10 -4 -5
3 -22 -2 -37 -12 -15 -10 -24 -12 -20 -5 5 6 4 12 -1 12 -6 0 -8 8 -6 18 4 13
-1 17 -20 17 -25 0 -36 -22 -19 -39 4 -3 8 -14 9 -22 4 -29 26 -119 31 -127 3
-5 15 1 27 12 14 13 29 18 44 14 31 -8 27 -22 -7 -29 -17 -4 -38 -15 -47 -25
-17 -19 -17 -22 4 -65 12 -24 22 -55 22 -69 0 -13 5 -27 12 -31 8 -5 9 5 5 34
-5 43 0 51 21 30 9 -9 12 -8 12 5 0 9 -5 17 -10 17 -15 0 -55 39 -47 46 3 3
16 -1 29 -10 27 -19 38 -20 38 -3 0 8 -17 18 -37 24 -32 8 -35 11 -19 18 11 5
26 4 37 -4 15 -9 19 -8 19 3 0 7 3 28 7 46 4 23 3 31 -5 26 -6 -3 -16 -1 -23
6 -7 8 -27 12 -51 10 -38 -4 -39 -3 -32 22 4 16 1 33 -7 43 -13 15 -12 15 9 4
18 -9 23 -9 27 1 3 7 19 14 36 15 27 2 29 0 18 -13 -7 -8 -18 -13 -24 -10 -13
5 -35 -12 -35 -27 0 -5 14 -7 30 -5 19 3 30 0 30 -8 0 -6 6 -14 13 -17 10 -4
13 15 14 80 l1 85 -58 -4 c-32 -1 -61 0 -65 4 -9 9 79 21 102 14 15 -5 22 3
36 44 17 47 20 50 54 50 30 0 34 2 23 14 -6 8 -18 12 -26 9 -18 -7 -18 21 0
36 12 10 18 7 30 -16 10 -19 15 -22 16 -11 0 33 -46 67 -136 99 -49 17 -97 35
-107 41 -23 12 -13 27 16 22 22 -5 22 -5 1 7 -12 6 -27 22 -33 35 -6 13 -15
24 -20 24 -5 0 -8 12 -6 26 3 28 -15 98 -29 111 -5 5 -6 1 -3 -9z m17 -67 c0
-5 -6 -12 -12 -15 -10 -5 -10 -7 0 -12 24 -11 12 -21 -19 -15 -16 3 -30 9 -30
14 1 4 1 11 1 16 0 8 10 12 53 20 4 0 7 -3 7 -8z m-60 -511 c0 -13 -7 -20 -20
-20 -22 0 -28 25 -7 33 22 10 27 7 27 -13z"/>
<path d="M2259 905 c-24 -22 -39 -47 -44 -71 -9 -48 -53 -136 -64 -129 -5 3
-18 2 -29 -2 -17 -7 -18 -10 -6 -21 12 -11 14 -10 14 4 0 11 5 14 16 10 9 -3
17 -6 20 -6 2 0 1 -7 -2 -15 -4 -8 -4 -15 -1 -15 6 0 33 57 72 150 14 36 36
75 47 87 35 37 15 44 -23 8z"/>
<path d="M23 908 c-6 -7 -13 -25 -15 -41 -4 -21 -2 -25 7 -17 13 11 29 59 22
66 -2 3 -9 -1 -14 -8z"/>
<path d="M855 882 c2 -28 14 -42 31 -35 9 3 20 0 24 -7 9 -14 30 -5 30 13 0 8
-3 7 -9 -2 -7 -11 -12 -9 -21 10 -21 40 -58 54 -55 21z"/>
<path d="M1567 880 c6 -7 9 -20 6 -29 -4 -9 -2 -13 2 -8 5 4 17 0 27 -10 18
-17 35 -13 24 6 -4 5 -21 20 -39 32 -18 12 -27 16 -20 9z"/>
<path d="M637 855 c-13 -13 -17 -27 -13 -47 4 -21 2 -28 -9 -28 -14 0 -21 -37
-16 -77 1 -7 -8 -13 -21 -13 -17 0 -23 -6 -24 -25 -1 -14 2 -22 7 -19 5 3 9
-2 9 -10 0 -19 -11 -21 -28 -4 -9 9 -12 9 -12 0 0 -7 5 -12 11 -12 5 0 7 -4 4
-10 -9 -14 8 -12 29 3 16 12 17 16 5 35 -17 27 -4 40 22 23 12 -7 23 -11 25
-8 2 2 9 30 16 63 6 32 14 61 17 64 3 3 4 23 1 44 -5 39 -6 39 -23 21z"/>
<path d="M2896 862 c-2 -4 0 -14 5 -22 8 -13 10 -13 19 0 5 8 10 18 10 23 0
10 -28 9 -34 -1z"/>
<path d="M2175 850 c-4 -6 -4 -22 -1 -35 5 -18 1 -25 -13 -30 -13 -4 -18 -12
-14 -22 3 -8 0 -19 -8 -24 -12 -8 -12 -10 0 -18 16 -10 39 24 47 69 3 14 7 32
10 42 6 19 -11 33 -21 18z"/>
<path d="M2287 811 c-25 -32 -26 -36 -11 -40 10 -2 24 5 31 15 7 10 13 14 13
8 0 -13 20 19 20 32 0 27 -27 19 -53 -15z"/>
<path d="M230 819 c0 -6 5 -19 10 -30 9 -17 7 -19 -17 -21 -15 0 -36 -1 -45 0
-10 1 -18 -3 -18 -8 0 -6 -14 -9 -32 -8 -29 3 -32 0 -41 -34 -10 -41 -27 -51
-27 -16 0 20 -1 20 -12 5 -14 -18 -31 -12 -41 13 -5 13 -6 13 -6 -1 -1 -9 22
-39 50 -67 57 -57 57 -54 -7 -137 -19 -26 -38 -64 -42 -84 l-5 -36 39 34 c52
46 94 88 94 95 0 3 -16 -4 -36 -16 l-36 -21 16 31 c9 18 23 32 32 32 24 0 89
69 77 81 -8 8 -17 8 -32 -1 -24 -12 -41 -6 -41 15 0 17 157 108 176 101 21 -8
17 -25 -10 -36 -13 -5 -27 -14 -31 -20 -3 -5 -10 -8 -15 -5 -4 3 -18 -4 -31
-14 -18 -15 -21 -22 -12 -33 7 -7 23 -14 37 -16 19 -1 25 4 28 21 2 12 9 21
17 19 17 -3 43 17 35 29 -3 5 1 9 9 9 8 0 25 9 38 20 l24 19 -23 1 c-27 0 -87
29 -78 37 3 3 12 0 21 -7 9 -7 18 -10 22 -6 8 8 -27 47 -37 41 -4 -3 -13 2
-20 10 -14 17 -30 20 -30 4z"/>
<path d="M1194 785 c-9 -37 1 -53 43 -64 27 -8 39 -7 44 1 4 7 5 16 3 20 -3 4
1 8 8 8 7 0 19 9 26 20 7 11 19 20 27 20 8 0 15 5 15 10 0 11 -36 -7 -89 -45
-41 -30 -61 -33 -37 -6 22 24 13 61 -14 61 -13 0 -22 -9 -26 -25z"/>
<path d="M825 781 c-3 -5 -19 -12 -35 -16 -17 -4 -30 -10 -30 -15 0 -8 -54 8
-77 23 -20 13 -16 -43 4 -65 16 -18 15 -20 -20 -51 -44 -38 -45 -43 -13 -49
17 -3 23 -1 19 8 -3 8 2 11 14 8 11 -3 27 4 42 19 l23 25 -22 7 c-18 6 -20 9
-9 17 11 7 11 11 1 15 -7 2 -16 13 -22 22 -7 14 -5 17 11 16 11 -1 24 -7 29
-14 6 -11 15 -11 46 -1 51 16 86 39 79 50 -8 13 -32 13 -40 1z"/>
<path d="M2063 741 c-12 -23 -18 -41 -12 -41 5 0 9 5 9 11 0 6 7 8 16 5 13 -5
14 -4 6 7 -8 10 -8 17 -1 24 6 6 10 16 7 23 -2 6 -13 -7 -25 -29z"/>
<path d="M2270 753 c0 -7 -6 -10 -12 -8 -7 3 -18 -6 -25 -20 -14 -30 -9 -31
19 -5 17 15 24 17 30 8 4 -7 8 -8 8 -3 0 6 -5 17 -10 25 -6 9 -10 11 -10 3z"/>
<path d="M2341 728 c12 -22 38 -47 50 -48 3 0 3 14 1 31 -6 41 19 36 33 -7 9
-26 15 -29 50 -29 35 0 40 -3 39 -22 0 -19 8 -25 52 -38 62 -18 110 -19 120
-4 5 9 -4 10 -30 5 -25 -5 -43 -3 -53 5 -8 7 -23 14 -33 16 -10 1 -32 15 -48
30 -88 81 -130 101 -147 73 -4 -7 -13 -6 -26 1 -19 10 -20 9 -8 -13z"/>
<path d="M430 729 c0 -6 -10 -19 -21 -28 l-21 -17 27 -18 c28 -18 28 -18 23 2
-4 13 0 26 10 34 12 10 14 10 8 1 -4 -8 -1 -13 8 -13 9 0 16 -7 16 -16 0 -14
22 -44 33 -44 2 0 4 10 3 23 -1 12 3 25 9 29 6 5 2 8 -9 8 -10 0 -29 11 -42
25 -24 26 -44 33 -44 14z"/>
<path d="M1650 730 c-26 -8 -21 -10 40 -15 35 -2 124 -47 137 -68 13 -22 20
-97 9 -97 -6 0 -5 -4 2 -9 8 -4 13 -12 13 -17 -1 -5 5 -9 12 -9 7 0 13 15 14
35 2 26 0 30 -6 16 -10 -25 -22 -6 -14 23 4 17 8 19 15 9 7 -11 11 -10 21 3 6
8 21 21 32 28 18 11 18 11 -5 5 -45 -13 -55 -10 -54 14 0 15 -4 21 -12 18 -8
-3 -20 1 -28 9 -8 8 -19 15 -25 15 -6 0 -34 11 -63 25 -28 14 -54 25 -57 24
-3 -1 -17 -5 -31 -9z"/>
<path d="M1235 688 c-39 -21 -58 -58 -30 -58 9 0 12 6 8 17 -4 11 -3 14 5 9 7
-4 22 -9 35 -11 19 -4 22 0 22 25 0 32 -8 36 -40 18z"/>
<path d="M2246 676 c-10 -15 -11 -27 -5 -37 8 -11 9 -10 7 5 -5 33 22 30 28
-3 7 -31 18 -39 29 -21 3 6 14 10 24 10 26 0 46 26 29 36 -23 15 -46 12 -40
-5 5 -14 3 -14 -11 -2 -9 7 -15 17 -12 21 3 4 -4 10 -15 13 -12 3 -24 -3 -34
-17z"/>
<path d="M327 679 c-13 -8 -15 -14 -7 -29 5 -10 7 -26 4 -34 -10 -26 -22 -18
-16 10 4 24 3 25 -16 15 -24 -13 -20 -37 8 -46 24 -8 34 -34 12 -30 -9 2 -19
4 -22 5 -3 1 -8 2 -12 1 -5 0 -8 5 -8 13 0 8 -7 17 -16 20 -24 9 -31 7 -14 -4
13 -8 12 -10 -2 -10 -10 0 -18 5 -18 12 0 6 -2 9 -5 6 -9 -8 6 -38 16 -32 5 3
9 -1 9 -8 0 -11 2 -10 9 0 7 11 9 11 14 -1 3 -9 14 -18 24 -20 10 -3 1 -3 -20
-2 -20 2 -34 -1 -31 -6 9 -15 -16 -10 -33 7 -13 13 -17 13 -24 2 -7 -10 -9
-10 -10 2 -1 8 -1 19 0 23 1 5 -3 6 -8 3 -5 -4 -7 -21 -5 -39 5 -29 -3 -41
-75 -124 -45 -51 -81 -100 -81 -110 0 -15 2 -15 14 3 13 17 17 17 37 6 20 -13
21 -12 16 10 -5 18 -2 25 9 25 9 0 13 -6 9 -14 -3 -8 -5 -28 -5 -44 0 -36 -24
-48 -49 -25 -22 20 -26 20 -28 -2 -1 -17 43 -46 58 -37 4 3 29 -8 55 -25 54
-34 64 -36 64 -15 0 8 -7 15 -15 15 -8 0 -15 5 -15 10 0 15 19 12 37 -5 19
-20 22 -17 25 22 2 23 6 29 20 25 10 -2 18 1 18 7 0 6 16 19 36 28 37 19 92
89 60 77 -9 -3 -16 -10 -16 -15 0 -4 -18 -13 -40 -19 -32 -9 -46 -8 -71 5 -36
19 -45 15 -29 -14 8 -17 15 -19 29 -11 20 10 31 4 31 -17 0 -10 -6 -12 -20 -8
-11 4 -20 2 -20 -4 0 -6 -7 -11 -15 -11 -8 0 -15 -4 -15 -9 0 -9 -69 -36 -74
-29 -2 1 -6 20 -10 41 -7 36 -6 38 13 33 12 -3 30 -9 41 -12 11 -3 20 -2 20 1
0 14 -31 36 -47 33 -14 -2 -18 4 -17 27 0 17 -4 33 -10 37 -6 4 1 8 16 8 15 0
29 4 33 10 3 5 15 6 28 1 18 -7 25 -3 39 20 20 33 30 36 48 14 17 -20 32 -19
28 1 -2 10 3 19 10 21 11 4 17 -15 13 -44 -1 -7 4 -13 11 -13 8 0 13 14 13 39
0 27 -3 37 -11 30 -6 -5 -14 -5 -18 -1 -4 4 -18 7 -29 7 -14 0 -21 5 -19 15 2
11 -1 11 -12 -3 -13 -17 -14 -16 -19 2 -6 23 10 32 34 20 11 -5 28 -3 48 7 17
8 36 12 43 8 8 -5 7 -1 -2 10 -13 16 -12 20 5 33 19 15 19 15 -2 8 -19 -5 -23
-2 -23 14 0 12 5 21 11 21 5 0 7 -4 4 -10 -4 -6 1 -7 10 -3 10 3 20 1 24 -5 4
-7 12 -8 21 -2 13 8 12 10 -2 10 -10 0 -18 5 -18 11 0 6 7 8 16 5 9 -3 22 -6
30 -6 9 0 12 -5 8 -12 -5 -8 -2 -9 9 -5 9 3 19 2 22 -3 3 -5 -3 -10 -12 -13
-17 -4 -17 -4 -1 -11 11 -5 23 -2 32 7 14 13 14 16 1 21 -8 3 -15 12 -15 20 0
8 -5 18 -12 22 -7 4 -8 3 -4 -4 11 -18 -5 -14 -41 8 -18 10 -35 15 -38 10 -3
-4 1 -11 7 -13 7 -3 -2 -4 -19 -4 -32 2 -45 21 -20 30 6 2 10 7 7 10 -3 3 -13
1 -23 -4z m-111 -170 c3 -6 1 -15 -6 -19 -7 -4 -10 -17 -7 -29 4 -17 1 -20
-19 -19 -13 1 -24 6 -24 11 0 5 6 7 14 4 10 -4 12 0 9 14 -3 11 0 19 7 19 7 0
10 7 6 15 -6 17 9 20 20 4z"/>
<path d="M845 679 c-14 -5 -16 -8 -5 -9 8 -2 18 -2 21 -2 4 1 5 -8 2 -18 -4
-17 -2 -19 13 -13 11 4 25 13 32 20 7 6 18 10 26 7 7 -3 13 2 13 11 0 17 -32
21 -42 5 -4 -6 -13 -7 -23 -1 -9 5 -26 5 -37 0z"/>
<path d="M2792 661 c-35 -29 -26 -42 14 -19 29 17 39 19 60 9 30 -13 54 -14
54 -1 0 9 -62 30 -91 30 -9 0 -26 -8 -37 -19z"/>
<path d="M773 656 c-23 -11 -50 -52 -40 -62 7 -7 35 8 36 19 1 4 1 13 1 20 0
9 2 9 8 -1 5 -7 18 -14 30 -17 12 -2 27 -7 33 -11 7 -4 9 -2 5 7 -3 8 -9 21
-12 31 -7 21 -33 27 -61 14z"/>
<path d="M979 653 c-1 -5 -1 -11 -1 -14 1 -3 -9 -5 -22 -4 -19 2 -23 -2 -24
-26 -1 -26 2 -29 26 -26 16 3 38 -4 55 -15 15 -11 27 -16 27 -12 0 3 6 2 13
-4 12 -9 75 -7 86 4 3 3 -1 9 -9 14 -8 6 -10 10 -4 10 7 0 14 8 17 19 4 16 1
17 -31 10 -20 -4 -38 -7 -41 -7 -18 2 -24 -3 -13 -11 11 -7 11 -9 -1 -14 -13
-5 -73 40 -64 49 2 2 17 0 34 -5 21 -6 39 -5 55 3 13 7 29 11 36 8 7 -2 10 2
6 12 -7 17 -34 22 -34 7 0 -15 -40 -24 -54 -12 -6 5 -23 7 -36 4 -16 -4 -21
-3 -16 5 4 7 5 12 2 12 -3 0 -7 -3 -7 -7z"/>
<path d="M36 629 c4 -8 0 -9 -15 -4 -11 3 -21 2 -21 -3 0 -5 13 -12 29 -14 23
-3 27 -1 23 14 -2 10 -9 18 -14 18 -5 0 -6 -5 -2 -11z"/>
<path d="M892 620 c-13 -10 -24 -23 -25 -27 -1 -4 -10 -7 -19 -6 -10 2 -18 -3
-18 -9 0 -7 -7 -3 -15 8 -11 14 -14 15 -14 4 0 -8 6 -24 14 -34 8 -11 15 -15
15 -9 0 6 8 13 18 17 9 3 23 9 31 12 10 5 12 2 8 -10 -4 -9 -3 -16 1 -16 4 0
12 20 18 45 6 25 10 45 10 45 -1 -1 -11 -9 -24 -20z"/>
<path d="M2420 623 c-8 -4 -37 -21 -64 -40 -26 -18 -54 -33 -62 -33 -8 0 -14
-4 -14 -9 0 -5 9 -7 20 -4 25 7 27 -14 3 -21 -10 -3 -32 -4 -50 -2 -19 1 -34
-3 -37 -11 -3 -7 0 -13 6 -13 41 0 -117 -89 -164 -93 -22 -2 -23 0 7 -47 14
-22 25 -45 26 -52 1 -7 4 -2 8 12 6 22 8 20 15 -20 5 -25 11 -38 14 -30 3 8 9
18 15 21 5 4 4 16 -3 30 -10 18 -10 24 -1 27 9 3 9 7 1 17 -17 21 -3 52 31 69
26 13 31 13 36 0 3 -7 12 -14 21 -14 8 0 13 -3 9 -6 -7 -7 15 -34 24 -28 11 6
6 -31 -5 -38 -19 -12 -2 -16 39 -8 23 4 30 8 17 9 -35 2 -21 25 19 32 19 4 28
7 21 8 -7 0 -10 5 -7 11 4 6 11 5 19 -3 8 -6 12 -15 9 -19 -2 -5 7 -8 21 -8
29 0 36 24 10 34 -8 3 -12 10 -9 16 7 12 35 -12 35 -30 0 -6 5 -8 10 -5 6 3
10 2 10 -4 0 -5 -3 -11 -7 -14 -5 -2 -3 -2 4 -1 17 4 74 -77 71 -101 -2 -11 4
-26 12 -33 13 -10 10 -11 -13 -6 -18 4 -34 1 -45 -9 -9 -8 -27 -18 -40 -22
-19 -5 -25 -2 -29 14 -3 11 -9 18 -14 15 -11 -6 47 -116 67 -127 17 -10 19 4
2 22 -10 11 -10 13 0 7 7 -4 12 -2 12 6 0 7 8 3 18 -10 10 -13 21 -20 25 -16
4 4 1 14 -7 23 -21 25 -28 67 -12 80 16 13 22 11 113 -47 61 -38 59 -35 76
-101 13 -51 13 -52 27 -26 17 32 26 32 34 -1 7 -25 8 -26 92 -22 73 3 87 6
104 26 11 12 25 22 31 22 6 0 9 8 6 19 -2 10 0 27 6 37 6 10 12 33 13 49 l3
30 -12 -26 c-12 -26 -14 -26 -85 -23 -47 3 -71 0 -67 -6 3 -5 15 -10 25 -10
13 0 17 -5 14 -15 -5 -11 1 -15 25 -15 17 0 31 5 31 10 0 6 -7 10 -17 10 -9 0
-14 2 -11 5 7 8 68 -6 68 -16 0 -4 -11 -20 -25 -35 -14 -15 -25 -30 -25 -34 0
-3 -38 -7 -85 -9 -65 -1 -85 1 -85 11 0 23 43 52 72 50 16 -1 28 3 28 9 0 6
-7 9 -15 5 -10 -3 -15 1 -15 13 0 12 -7 17 -22 15 -34 -4 -34 -4 -18 -14 8 -5
11 -12 7 -16 -4 -4 -20 4 -35 18 -15 14 -43 34 -62 43 -45 23 -45 22 -31 38 9
11 8 17 -4 27 -8 7 -15 9 -15 5 0 -5 -10 0 -22 11 -23 19 -23 19 0 -7 l23 -26
-26 -1 c-14 0 -28 4 -31 9 -2 4 -11 6 -19 2 -8 -3 -15 0 -15 6 0 7 10 16 23
21 12 5 16 9 10 9 -7 1 -12 4 -12 9 3 20 -3 29 -22 28 -12 -1 -24 6 -26 14 -4
12 -3 12 5 2 7 -11 10 -9 15 7 6 23 0 31 -24 31 -20 0 -23 39 -4 53 5 5 -3 6
-20 3 -24 -5 -27 -4 -12 4 25 16 21 26 -15 41 l-33 13 29 4 c16 2 32 -1 36 -8
4 -6 14 -8 23 -4 11 4 19 0 24 -12 3 -11 9 -21 12 -24 13 -11 31 -50 23 -50
-4 0 -8 -9 -9 -20 -1 -11 2 -20 8 -20 5 0 8 3 8 8 -3 18 2 32 12 32 5 0 8 -4
5 -8 -2 -4 -1 -14 4 -22 5 -9 5 -19 -2 -27 -7 -9 -7 -13 1 -13 6 0 16 11 21
25 11 29 25 34 17 6 -4 -17 -2 -18 13 -9 16 10 15 13 -10 35 -15 12 -32 23
-38 23 -12 0 -52 60 -69 105 -11 29 -12 29 -19 7 -5 -17 -11 -21 -23 -16 -48
22 -183 -30 -174 -67 4 -14 0 -16 -15 -12 -11 2 -19 12 -18 21 0 9 -5 17 -11
17 -7 0 -13 3 -13 8 0 4 0 10 0 13 0 4 7 1 15 -6 17 -14 35 -5 35 19 0 10 7
24 15 31 12 10 13 16 3 29 -12 14 -11 15 6 1 16 -13 20 -12 32 5 8 10 14 22
14 26 0 19 43 20 63 1 12 -11 36 -26 54 -34 44 -18 148 -119 133 -128 -8 -5
-9 -10 -2 -14 6 -3 13 -3 16 2 8 14 66 1 66 -14 0 -8 8 -14 17 -14 14 0 12 4
-7 25 -16 17 -30 23 -43 19 -17 -5 -19 -3 -14 15 4 18 2 21 -13 16 -10 -3 -21
-1 -25 5 -3 5 2 10 12 10 14 0 12 3 -7 13 -18 9 -25 21 -25 40 1 31 -10 35
-24 10 -5 -10 -13 -15 -17 -11 -9 10 23 58 39 58 20 0 37 -22 37 -46 0 -12 7
-25 16 -28 8 -3 12 -10 9 -16 -3 -5 -1 -10 4 -10 14 0 14 6 0 32 -15 29 -4 33
28 11 39 -28 55 -32 77 -21 12 7 22 6 29 -1 8 -8 7 -11 -3 -11 -7 0 -10 -3 -7
-6 4 -4 13 -1 22 6 8 7 23 9 32 6 15 -6 16 -5 6 5 -19 19 -16 47 7 61 23 15
27 33 5 24 -8 -3 -32 4 -52 15 -51 29 -70 31 -107 12 -33 -17 -90 -28 -82 -15
2 4 -9 7 -25 8 -15 1 -26 -3 -23 -7 7 -12 -27 -11 -46 1 -13 9 -13 10 0 10 13
0 13 2 1 9 -10 7 -18 5 -26 -6 -10 -14 -15 -14 -43 1 -21 11 -29 21 -26 31 6
16 0 18 -26 8z m389 -99 c36 -30 40 -44 11 -37 -11 3 -20 9 -20 14 0 5 -4 9
-10 9 -5 0 -10 -7 -10 -15 0 -8 -4 -15 -10 -15 -5 0 -7 6 -4 14 3 8 -3 16 -15
19 -12 3 -21 1 -21 -5 0 -5 -5 -6 -11 -2 -8 5 -8 9 1 14 7 4 9 17 4 34 l-7 28
30 -16 c17 -8 45 -27 62 -42z m-139 15 c0 -8 5 -8 15 1 12 10 15 10 15 -4 0
-20 -20 -21 -46 -1 -17 13 -17 14 -1 15 9 0 17 -5 17 -11z m-360 -81 c0 -3 -8
-5 -17 -3 -23 3 -55 -13 -48 -25 3 -6 -1 -7 -10 -4 -10 4 -14 13 -9 23 3 9 8
24 11 33 5 15 7 15 39 0 18 -9 34 -20 34 -24z m-200 -83 c0 -8 5 -15 11 -15 5
0 7 -5 4 -10 -5 -8 -11 -8 -19 -1 -7 6 -16 8 -20 4 -7 -7 -26 14 -26 30 0 4
11 7 25 7 16 0 25 -6 25 -15z m594 -243 c18 -5 23 -11 17 -21 -7 -10 -16 -6
-42 19 -19 18 -26 27 -17 21 9 -7 28 -15 42 -19z m51 -52 c6 -10 -5 -17 -39
-22 -12 -2 -20 4 -21 15 -3 13 4 17 25 17 16 0 32 -5 35 -10z"/>
<path d="M2198 613 c-10 -3 -18 -9 -18 -14 0 -6 -4 -8 -9 -4 -5 3 -12 1 -16
-5 -3 -5 -18 -10 -33 -10 -15 0 -34 -5 -42 -10 -20 -14 53 -6 93 9 35 14 47
14 47 1 0 -5 -9 -10 -20 -10 -11 0 -20 -5 -20 -10 0 -6 19 -10 45 -8 42 3 45
5 45 31 0 15 -5 27 -11 27 -5 0 -7 -4 -4 -10 9 -15 -16 -12 -29 3 -6 8 -19 12
-28 10z"/>
<path d="M620 578 c0 -21 11 -23 28 -6 10 10 17 10 32 0 11 -6 27 -12 35 -12
9 0 18 -7 21 -15 4 -8 12 -15 19 -15 7 0 20 -11 28 -24 19 -28 59 -38 93 -22
31 14 30 24 -3 31 -56 11 -133 39 -133 47 0 5 5 6 10 3 6 -3 10 0 10 7 1 9 5
7 14 -4 7 -10 19 -18 27 -18 10 1 9 5 -5 15 -10 7 -15 19 -11 25 4 7 -6 5 -23
-4 -36 -18 -46 -20 -37 -6 4 6 -6 10 -22 11 -15 1 -40 2 -55 3 -21 2 -28 -1
-28 -16z"/>
<path d="M1493 593 c-7 -3 -13 -9 -13 -15 0 -6 6 -8 13 -5 7 3 22 -2 32 -10
19 -15 19 -15 -4 -8 -17 5 -21 4 -16 -5 6 -9 2 -9 -15 0 -15 8 -20 8 -16 1 9
-14 -14 -14 -34 -1 -13 9 -13 11 0 20 8 5 11 10 5 10 -5 0 -16 -4 -24 -9 -11
-7 -10 -12 8 -22 26 -17 27 -29 1 -29 -11 0 -20 7 -20 15 0 8 -6 12 -14 9 -8
-3 -17 -1 -21 5 -10 17 -45 14 -39 -4 4 -8 15 -15 25 -15 11 0 29 -9 41 -19
19 -18 23 -19 44 -5 23 16 84 30 84 20 0 -3 -25 -20 -56 -37 -31 -18 -51 -35
-46 -38 7 -4 6 -12 -2 -23 -7 -10 -16 -15 -19 -11 -4 3 -7 -1 -7 -9 0 -14 4
-14 24 -5 14 7 23 13 21 16 -2 2 9 14 24 27 15 13 39 39 52 59 13 19 33 38 43
41 19 6 19 7 1 20 -11 8 -25 12 -32 10 -7 -3 -16 1 -20 8 -5 7 -14 11 -20 9z"/>
<path d="M361 571 c-9 -6 -10 -11 -2 -15 6 -4 15 -5 20 -2 5 4 20 2 33 -3 21
-9 21 -10 -10 -10 -20 -1 -31 -5 -27 -11 3 -6 -4 -14 -17 -19 -26 -11 -25 -12
14 -15 19 -2 28 3 31 16 3 10 13 18 24 18 10 0 27 8 38 17 16 13 17 15 3 10
-10 -4 -18 -3 -18 2 0 4 -6 8 -13 8 -7 0 -24 2 -37 6 -14 3 -31 2 -39 -2z"/>
<path d="M513 564 c-3 -8 -9 -12 -13 -9 -4 3 -11 -3 -14 -12 -4 -10 -4 -14 0
-11 4 4 16 2 27 -3 15 -8 22 -8 28 2 5 8 9 10 9 6 0 -4 9 -3 21 3 15 9 18 15
9 24 -14 18 -60 17 -67 0z"/>
<path d="M930 550 c0 -16 -4 -21 -16 -16 -14 5 -15 4 -4 -9 14 -17 35 -21 25
-5 -3 6 0 10 9 10 8 0 21 3 30 6 11 4 16 0 17 -12 0 -11 3 -14 6 -6 2 6 17 12
31 12 26 1 26 1 -7 15 -18 8 -37 13 -41 10 -5 -3 -11 1 -13 7 -4 10 -6 9 -6
-1 -1 -11 -4 -11 -16 -1 -13 10 -15 9 -15 -10z"/>
<path d="M1890 562 c0 -4 4 -22 10 -40 8 -29 7 -32 -5 -22 -11 9 -15 9 -15 1
0 -6 8 -14 18 -18 9 -3 24 -14 32 -25 9 -10 29 -21 45 -23 17 -2 32 -4 34 -4
2 -1 -2 -8 -9 -16 -10 -12 -16 -13 -27 -4 -7 7 -16 9 -19 6 -3 -2 15 -20 40
-38 64 -46 61 -67 -28 -203 -29 -44 -65 -103 -81 -130 -24 -42 -25 -48 -9 -41
11 4 38 10 62 12 23 3 42 9 42 14 0 4 -19 9 -42 11 -43 4 -43 4 -15 16 15 6
26 17 25 24 -2 7 6 13 17 13 16 0 20 6 19 33 -2 23 2 32 15 33 10 0 11 2 4 6
-21 8 -15 25 6 18 22 -7 39 24 19 37 -11 6 -10 8 0 8 7 0 20 7 29 16 9 8 22
13 29 10 7 -3 16 -1 19 4 3 5 -11 6 -31 4 -31 -4 -35 -2 -25 10 16 20 6 88
-17 106 -19 16 -20 29 -6 64 5 14 4 17 -5 12 -7 -4 -20 2 -32 16 l-20 23 11
-23 c13 -26 8 -38 -9 -27 -6 3 -8 11 -5 17 5 7 2 9 -7 6 -10 -4 -15 2 -17 19
-1 17 2 22 11 17 7 -4 9 -3 4 2 -5 5 -12 9 -16 9 -14 0 -38 30 -33 43 2 6 -1
12 -7 12 -6 0 -11 -3 -11 -8z"/>
<path d="M2143 543 c9 -2 17 -11 17 -19 0 -8 -4 -13 -9 -9 -5 3 -12 1 -16 -5
-8 -13 11 -13 36 1 16 8 18 13 8 25 -6 8 -21 13 -33 13 -17 -1 -17 -2 -3 -6z"/>
<path d="M2937 543 c-12 -3 -16 -11 -12 -23 3 -10 1 -21 -5 -25 -13 -8 -13
-25 0 -25 6 0 10 5 10 10 0 6 15 24 33 40 27 25 29 29 12 29 -11 -1 -28 -3
-38 -6z"/>
<path d="M450 506 c0 -17 14 -19 45 -6 16 7 17 9 3 9 -9 1 -23 4 -32 7 -11 4
-16 1 -16 -10z"/>
<path d="M1057 508 c-10 -5 -24 -7 -32 -5 -7 3 -22 -3 -33 -13 -15 -15 -26
-17 -48 -10 -23 6 -25 9 -9 10 11 1 23 2 28 1 4 0 7 4 7 10 0 11 -38 3 -53
-11 -12 -11 2 -52 14 -44 5 3 7 10 4 15 -10 15 18 10 43 -7 15 -10 22 -11 22
-3 0 11 24 9 65 -6 16 -5 17 -5 5 4 -8 6 -10 11 -4 11 6 0 17 -7 24 -15 7 -8
19 -15 27 -15 8 0 21 -7 30 -15 8 -9 18 -13 21 -10 4 3 0 10 -8 15 -11 7 -12
10 -2 10 7 0 10 5 7 11 -4 6 -13 8 -20 5 -7 -2 -21 1 -30 8 -16 12 -16 13 0
30 22 22 11 34 -17 17 -11 -7 -17 -8 -14 -2 10 15 -7 21 -27 9z"/>
<path d="M1802 498 c-21 -21 -13 -27 18 -17 16 6 27 15 24 20 -7 13 -28 11
-42 -3z"/>
<path d="M2110 502 c0 -6 -9 -13 -19 -17 -19 -6 -32 -27 -30 -50 0 -5 -8 -12
-18 -16 -13 -6 -14 -8 -3 -8 8 0 22 4 30 9 9 6 11 10 3 10 -7 0 -10 7 -7 15 4
8 12 15 20 15 15 0 39 38 30 48 -3 3 -6 0 -6 -6z"/>
<path d="M520 490 c0 -5 -7 -7 -15 -4 -8 4 -15 3 -15 0 0 -11 53 -27 61 -19 5
5 0 14 -11 21 -11 7 -20 8 -20 2z"/>
<path d="M2125 464 l-40 -36 35 22 c19 12 43 24 53 27 9 3 17 9 17 14 0 19
-26 7 -65 -27z"/>
<path d="M424 482 c3 -6 2 -13 -3 -16 -5 -4 -12 -2 -16 4 -9 15 -25 12 -25 -6
0 -8 4 -13 9 -10 5 3 11 0 14 -8 3 -8 15 -12 31 -9 31 6 52 28 36 38 -5 3 -10
4 -10 0 0 -3 -10 -1 -21 6 -13 7 -19 7 -15 1z"/>
<path d="M2992 452 c-1 -7 -14 -17 -28 -22 -30 -12 -27 -34 5 -38 35 -5 25
-53 -13 -63 -23 -7 -29 -4 -33 12 -6 23 -19 25 -27 4 -7 -18 -37 -20 -54 -3
-9 9 -12 8 -12 -7 0 -18 -1 -18 -22 1 -13 11 -31 26 -41 33 -15 12 -17 12 -11
-3 3 -9 12 -16 20 -16 8 0 14 -4 14 -10 0 -5 -9 -10 -21 -10 -11 0 -18 -4 -15
-9 3 -5 16 -7 28 -3 14 3 19 1 14 -6 -5 -9 0 -9 18 -2 17 6 27 6 31 -1 4 -5
28 -8 55 -6 33 3 47 1 45 -7 -2 -6 9 -21 26 -34 22 -18 29 -20 29 -8 0 8 -4
18 -10 21 -13 8 -13 52 1 57 6 2 9 28 6 68 -2 36 -4 59 -5 52z"/>
<path d="M922 414 c-19 -20 -32 -38 -29 -41 9 -8 48 17 42 28 -4 5 6 14 20 19
14 5 23 14 20 20 -9 15 -17 12 -53 -26z"/>
<path d="M2867 443 c-9 -9 12 -33 29 -33 8 0 14 -7 14 -16 0 -20 27 -47 34
-35 4 5 -1 16 -9 24 -8 9 -15 18 -15 21 0 8 -33 46 -41 46 -3 0 -9 -3 -12 -7z"/>
<path d="M1829 417 c-19 -14 -34 -150 -16 -144 6 2 11 28 12 58 1 30 7 64 13
77 14 25 13 26 -9 9z"/>
<path d="M1262 397 c-16 -19 3 -46 20 -29 20 20 31 14 24 -13 -5 -21 -3 -25
14 -25 18 0 19 3 9 23 -14 28 -40 57 -49 57 -4 0 -12 -6 -18 -13z"/>
<path d="M2524 392 c-9 -13 -8 -21 4 -32 14 -13 15 -12 9 5 -7 19 -6 19 7 2
11 -14 15 -15 19 -3 3 8 -2 21 -12 30 -15 14 -18 14 -27 -2z"/>
<path d="M160 390 c0 -6 7 -10 15 -10 8 0 15 -4 15 -10 0 -5 9 -10 20 -10 11
0 20 5 20 12 0 6 -3 8 -7 5 -3 -4 -11 -3 -17 2 -19 14 -46 21 -46 11z"/>
<path d="M2155 382 c-4 -11 0 -13 21 -8 17 5 23 3 19 -4 -3 -5 -12 -10 -18
-10 -7 0 -13 -9 -14 -20 -2 -19 1 -18 27 7 32 30 31 38 -4 45 -16 3 -27 0 -31
-10z"/>
<path d="M1948 321 c2 -34 8 -59 12 -56 16 10 52 66 41 63 -6 -2 -21 10 -33
25 l-23 28 3 -60z"/>
<path d="M1913 313 c-1 -10 -4 -29 -8 -43 -6 -22 -4 -21 15 7 12 18 19 37 15
43 -10 16 -21 12 -22 -7z"/>
<path d="M347 305 c-3 -7 -2 -15 3 -17 6 -2 11 -15 12 -30 1 -16 8 -27 15 -25
6 1 12 -2 11 -7 0 -5 6 -12 14 -17 9 -6 7 -8 -7 -7 -11 0 -32 -2 -47 -6 -21
-6 -29 -3 -38 13 -13 25 -35 29 -26 5 4 -9 1 -23 -6 -32 -7 -8 -12 -18 -10
-21 1 -3 -6 -6 -15 -6 -10 0 -21 -4 -24 -9 -9 -12 -29 2 -29 20 0 8 -5 12 -11
9 -6 -4 -8 -13 -5 -20 6 -16 -44 -4 -81 20 -13 9 -28 13 -33 10 -5 -3 -13 3
-19 12 -14 24 -14 7 1 -34 14 -37 22 -41 37 -15 9 15 10 15 11 -5 0 -25 15
-39 25 -23 9 15 68 12 90 -4 36 -26 112 27 84 60 -8 10 -8 14 0 14 6 0 11 -4
11 -10 0 -5 5 -10 11 -10 7 0 17 -7 24 -17 11 -15 14 -14 34 6 23 23 61 25 68
5 2 -6 -11 -14 -28 -18 -31 -6 -32 -7 -13 -21 18 -14 18 -14 -8 -15 -16 0 -27
-5 -25 -11 1 -6 -10 -13 -25 -16 -32 -4 -39 20 -10 36 13 8 14 10 2 10 -8 0
-24 -7 -35 -15 -19 -14 -19 -16 -2 -25 9 -6 17 -17 17 -24 0 -19 9 -19 49 1
46 23 61 23 97 2 l31 -18 42 31 c24 17 41 32 39 35 -9 9 -68 -21 -64 -33 3 -6
-11 -2 -30 9 l-35 21 25 26 c14 15 26 37 26 48 0 14 7 23 22 25 11 2 22 10 23
19 2 12 -3 15 -22 11 -15 -3 -35 3 -54 17 -34 26 -35 23 -9 -24 11 -20 20 -38
20 -40 0 -13 -30 -2 -55 19 -22 19 -26 29 -21 50 5 19 3 26 -8 26 -8 0 -21 7
-29 15 -13 12 -16 12 -20 0z"/>
<path d="M780 311 c0 -5 8 -12 17 -15 33 -13 -1 -27 -36 -15 -17 6 -35 9 -38
5 -10 -10 28 -45 43 -39 8 3 14 1 14 -4 0 -13 -30 -38 -54 -47 -17 -6 -17 -8
8 -31 14 -13 26 -28 26 -33 0 -6 12 -13 27 -17 39 -9 53 -23 53 -52 0 -29 17
-63 31 -63 6 0 3 7 -6 16 -9 9 -12 21 -8 28 5 6 7 27 5 46 -1 19 -3 47 -4 63
-1 33 -18 36 -18 3 0 -32 -20 -44 -27 -17 -4 15 -11 20 -23 16 -24 -8 -34 9
-20 34 9 17 18 20 55 16 24 -3 47 0 50 5 4 6 -9 10 -29 10 -40 0 -51 24 -16
33 11 3 20 10 20 15 0 6 -9 14 -20 17 -11 3 -20 10 -20 15 0 4 -7 10 -15 14
-8 3 -15 1 -15 -3z"/>
<path d="M2670 290 c0 -11 -5 -20 -11 -20 -7 0 -6 -8 4 -22 8 -13 21 -22 28
-20 7 2 16 -3 20 -10 12 -18 11 -30 -1 -23 -16 10 -12 -11 4 -25 13 -10 15 -7
13 17 -2 15 3 34 11 42 11 12 10 17 -7 34 -11 12 -24 18 -27 14 -4 -4 1 -14
12 -21 28 -21 9 -32 -21 -12 -23 15 -24 18 -10 32 8 9 13 20 10 25 -11 16 -25
10 -25 -11z"/>
<path d="M2181 269 c-12 -19 -21 -28 -21 -21 0 7 -4 11 -10 7 -5 -3 -7 -12 -4
-20 4 -8 10 -12 15 -9 5 3 6 -2 3 -10 -3 -9 -13 -16 -21 -16 -9 0 -12 -6 -8
-19 5 -18 -20 -49 -32 -38 -3 3 -24 -7 -47 -22 -23 -16 -50 -30 -60 -32 -11
-2 -21 -10 -24 -18 -3 -9 2 -11 17 -7 11 3 31 9 42 12 15 4 20 2 17 -7 -2 -7
-15 -16 -29 -19 -23 -6 -22 -7 9 -13 17 -4 32 -11 32 -18 0 -7 -11 -8 -31 -4
-22 5 -29 4 -25 -4 4 -6 22 -11 39 -11 l32 0 -2 60 -3 60 35 -3 c25 -3 35 0
37 12 2 10 6 12 10 5 4 -6 -2 -27 -12 -47 -25 -46 -25 -50 -1 -42 15 4 20 0
23 -17 2 -15 11 -24 27 -26 15 -2 21 0 16 7 -3 6 -9 9 -13 7 -25 -15 -17 229
8 259 7 9 10 18 7 21 -3 4 -15 -9 -26 -27z"/>
<path d="M2755 248 c4 -66 15 -97 37 -104 11 -3 21 -4 24 -2 7 7 -27 49 -36
43 -4 -3 -10 1 -13 9 -3 8 1 13 10 12 9 0 18 5 20 12 3 6 -3 12 -12 12 -11 0
-15 5 -11 15 3 8 9 22 12 30 4 10 0 15 -14 15 -18 0 -20 -6 -17 -42z"/>
<path d="M2840 281 c0 -3 5 -13 11 -21 9 -12 12 -13 16 -1 3 8 8 9 12 3 3 -5
14 -6 24 -3 14 5 8 9 -23 17 -22 6 -40 8 -40 5z"/>
<path d="M1772 237 c-2 -17 -10 -39 -18 -48 -11 -12 -12 -19 -4 -24 7 -4 15
-3 20 1 11 13 21 92 12 98 -4 2 -9 -10 -10 -27z"/>
<path d="M1866 239 c-9 -45 -8 -65 3 -54 12 14 22 85 12 85 -5 0 -11 -14 -15
-31z"/>
<path d="M2437 253 c-2 -10 -8 -26 -12 -36 -6 -13 -4 -16 9 -11 10 4 15 12 12
20 -3 7 0 15 7 17 9 3 9 8 1 16 -9 10 -13 8 -17 -6z"/>
<path d="M2925 250 c-3 -5 -14 -10 -23 -10 -14 0 -87 -33 -101 -46 -8 -7 22
-34 37 -34 13 0 12 3 -4 15 -19 14 -19 14 3 15 12 0 24 4 27 9 8 12 55 20 62
9 3 -4 10 -6 15 -2 5 3 7 9 4 14 -3 5 -1 11 5 15 11 7 4 25 -10 25 -5 0 -12
-4 -15 -10z"/>
<path d="M896 205 c-12 -19 -14 -30 -6 -44 5 -11 11 -53 11 -93 1 -40 4 -64 6
-53 3 11 9 25 13 30 8 11 7 172 -2 180 -3 3 -13 -6 -22 -20z"/>
<path d="M2965 211 c-7 -13 -64 -41 -84 -42 -11 0 -8 -4 7 -12 19 -8 30 -7 56
7 38 20 65 56 42 56 -8 0 -17 -4 -21 -9z"/>
<path d="M0 160 c0 -22 2 -40 4 -40 2 0 11 -3 20 -6 14 -5 14 -1 0 40 -9 25
-18 46 -20 46 -2 0 -4 -18 -4 -40z"/>
<path d="M520 163 c-24 -30 -25 -43 -6 -43 10 0 12 7 9 21 -5 19 -3 21 20 15
20 -5 27 -3 27 8 0 26 -29 26 -50 -1z"/>
<path d="M1530 104 c-41 -24 -54 -37 -52 -52 2 -12 -6 -27 -19 -35 -20 -15
-18 -15 32 -14 59 3 75 20 35 38 -29 14 -31 20 -14 37 9 9 15 9 26 0 10 -9 15
-9 21 1 5 7 7 -8 6 -33 0 -24 2 -43 6 -40 7 4 24 123 18 128 -2 2 -29 -12 -59
-30z"/>
<path d="M2558 119 c-22 -16 -26 -24 -18 -38 11 -21 2 -35 -14 -22 -8 6 -11
-1 -11 -25 0 -25 4 -34 16 -34 18 0 29 28 29 74 0 16 7 38 17 48 21 23 15 22
-19 -3z"/>
<path d="M44 99 c-10 -11 -24 -17 -31 -15 -8 3 -13 -2 -13 -13 0 -11 4 -21 9
-23 5 -1 11 -10 13 -18 5 -22 19 -30 56 -30 22 0 32 5 32 15 0 16 9 19 34 9 9
-3 13 -10 10 -15 -3 -5 0 -9 5 -9 6 0 11 7 11 15 0 8 -7 15 -15 15 -8 0 -15 6
-15 14 0 7 -11 16 -25 18 -22 5 -25 2 -25 -23 0 -23 -5 -29 -21 -29 -17 0 -20
5 -17 38 3 32 6 37 26 34 14 -2 22 2 22 11 0 24 -37 27 -56 6z"/>
<path d="M692 108 c-15 -15 -16 -38 -2 -38 6 0 10 7 10 15 0 8 5 15 10 15 6 0
10 5 10 10 0 14 -13 13 -28 -2z"/>
<path d="M2347 92 c-13 -13 -19 -13 -29 -4 -18 18 -31 15 -47 -9 -12 -20 -11
-21 8 -16 11 3 25 -1 32 -9 16 -20 29 -17 29 6 0 12 5 17 14 14 7 -3 16 2 19
10 9 23 -7 28 -26 8z"/>
<path d="M1720 90 c0 -9 9 -23 20 -33 11 -9 20 -26 20 -37 0 -11 7 -20 15 -20
8 0 15 6 15 13 0 18 -69 95 -70 77z"/>
<path d="M206 74 c13 -11 15 -17 7 -20 -18 -8 -16 -24 2 -24 24 0 31 31 10 46
-26 19 -43 18 -19 -2z"/>
<path d="M1606 49 c-7 -45 -1 -63 14 -39 12 19 12 51 1 68 -5 9 -10 0 -15 -29z"/>
<path d="M1065 55 c-23 -19 -26 -24 -12 -25 27 0 20 -18 -10 -23 -27 -4 -27
-4 3 -6 34 -1 66 23 42 32 -8 3 -4 8 10 14 20 7 21 11 10 21 -11 8 -20 6 -43
-13z"/>
<path d="M1237 40 c-36 -19 -108 -30 -79 -11 10 6 8 10 -8 14 -15 4 -20 2 -17
-8 3 -7 0 -18 -6 -24 -8 -8 2 -11 40 -11 29 0 55 4 58 10 3 5 15 10 26 10 10
0 19 5 19 10 0 6 7 10 16 10 8 0 12 5 9 10 -9 14 -15 13 -58 -10z"/>
<path d="M2346 21 c-6 -9 84 -25 92 -16 8 8 -1 12 -45 19 -23 3 -44 2 -47 -3z"/>
</g>
</svg>
